<?xml version="1.0" encoding="UTF-8"?>
<svg width="14px" height="14px" viewBox="0 0 14 14" version="1.1" xmlns="http://www.w3.org/2000/svg" xmlns:xlink="http://www.w3.org/1999/xlink">
    <!-- Generator: Sketch 53 (72520) - https://sketchapp.com -->
    <title>Group</title>
    <desc>Created with Sketch.</desc>
    <g id="Page-1" stroke="none" stroke-width="1" fill="none" fill-rule="evenodd" opacity="0.800000012">
        <g id="icon-切图" transform="translate(-153.000000, -54.000000)" fill="#fff" fill-rule="nonzero">
            <g id="Group" transform="translate(153.000000, 54.000000)">
                <path d="M4.35875355,6.73200346 C3.64424747,6.04108777 3.2,5.07242366 3.2,4 C3.2,1.90131795 4.90131795,0.2 7,0.2 C9.09868205,0.2 10.8,1.90131795 10.8,4 C10.8,6.09868205 9.09868205,7.8 7,7.8 C4.40017112,7.8 2.24596269,9.70792795 1.86115854,12.2 L12.1386856,12.2 C11.9280947,10.8378682 11.1853435,9.62002564 10.0705575,8.80286862 C9.71421164,8.54166104 9.6370868,8.04103502 9.89829439,7.68468912 C10.159502,7.32834322 10.660128,7.25121838 11.0164739,7.51242596 C12.752512,8.78497131 13.8,10.8057832 13.8,13 C13.8,13.4418278 13.4418278,13.8 13,13.8 L1,13.8 C0.5581722,13.8 0.2,13.4418278 0.2,13 C0.2,10.1811861 1.91514036,7.76296479 4.35875355,6.73200346 Z M7,6.2 C8.21502645,6.2 9.2,5.21502645 9.2,4 C9.2,2.78497355 8.21502645,1.8 7,1.8 C5.78497355,1.8 4.8,2.78497355 4.8,4 C4.8,5.21502645 5.78497355,6.2 7,6.2 Z" id="Combined-Shape"></path>
            </g>
        </g>
    </g>
</svg>