<?xml version="1.0" encoding="UTF-8"?>
<svg width="16px" height="16px" viewBox="0 0 16 16" version="1.1" xmlns="http://www.w3.org/2000/svg" xmlns:xlink="http://www.w3.org/1999/xlink">
    <title>global_icon_mine</title>
    <g id="飞机稿" stroke="none" stroke-width="1" fill="none" fill-rule="evenodd" stroke-linecap="round" stroke-linejoin="round">
        <g id="二级导航展开" transform="translate(-287.000000, -208.000000)" fill-rule="nonzero" stroke="#E8E8E8" stroke-width="0.825">
            <g id="3" transform="translate(287.000000, 208.000000)">
                <path d="M8,1 C11.0375661,1 13.5,3.45270093 13.5,6.47826086 C13.5,8.91785144 11.8990161,10.9849902 9.68645519,11.694181 C10.6508303,12.1427384 11.3514204,13.0309863 11.7892117,14.3579743 C11.8737676,14.6143791 11.7344911,14.8907997 11.4780968,14.9753876 C11.4286789,14.9916913 11.3769748,15 11.3249369,15 L4.67511728,15 C4.40508884,15.0000408 4.18618754,14.7811395 4.18618754,14.5111111 C4.18618754,14.4590641 4.19449787,14.407351 4.2108047,14.3579245 C4.64859893,13.0309584 5.34918772,12.1427253 6.31257107,11.693225 C4.10098386,10.9849902 2.5,8.91785144 2.5,6.47826086 C2.5,3.45270093 4.96243388,1 8,1 Z" id="Combined-Shape"></path>
            </g>
        </g>
    </g>
</svg>