<?xml version="1.0" encoding="UTF-8"?>
<svg width="20px" height="20px" viewBox="0 0 20 20" version="1.1" xmlns="http://www.w3.org/2000/svg" xmlns:xlink="http://www.w3.org/1999/xlink">
    <title>global_icon_collect_nor</title>
    <g id="预约类业务流程（积分）" stroke-width="1" fill-rule="evenodd" stroke-linejoin="round">
        <g id="预约类-商品详情" transform="translate(-63.000000, -1370.000000)"  stroke-width="1.04166667">
            <g id="商品详情/底部操作栏" transform="translate(0.000000, 1358.000000)">
                <g id="全局/图标/客服-copy">
                    <g transform="translate(62.000000, 12.000000)">
                        <g id="收藏" transform="translate(0.583333, 0.000000)">
                            <path d="M9.64109812,16.4494072 L6.08737578,18.3177096 C5.59853119,18.5747104 4.99390403,18.3867639 4.73690323,17.8979193 C4.63456416,17.7032588 4.59924948,17.4802907 4.63642632,17.2635331 L5.3151269,13.3064051 C5.4078568,12.7657483 5.22860932,12.2140813 4.83579918,11.8311861 L1.96077741,9.02873247 C1.56529383,8.64323126 1.55720152,8.010118 1.94270273,7.61463442 C2.09621134,7.45715078 2.29735375,7.35466361 2.51499078,7.32303909 L6.48817315,6.7457019 C7.03102342,6.66682114 7.5002994,6.32587218 7.74306942,5.8339664 L9.51993059,2.23365242 C9.76435288,1.73839876 10.3639787,1.53505976 10.8592324,1.77948205 C11.056445,1.87681229 11.2160725,2.03643981 11.3134027,2.23365242 L13.0902639,5.8339664 C13.3330339,6.32587218 13.8023099,6.66682114 14.3451602,6.7457019 L18.3183426,7.32303909 C18.8648874,7.40245671 19.2435689,7.90989956 19.1641513,8.45644443 C19.1325267,8.67408146 19.0300396,8.87522387 18.8725559,9.02873247 L15.9975342,11.8311861 C15.604724,12.2140813 15.4254765,12.7657483 15.5182064,13.3064051 L16.196907,17.2635331 C16.290268,17.8078695 15.9246802,18.3248255 15.3803437,18.4181865 C15.1635861,18.4553633 14.940618,18.4200487 14.7459576,18.3177096 L11.1922352,16.4494072 C10.7066952,16.1941437 10.1266382,16.1941437 9.64109812,16.4494072 Z" id="Star"></path>
                        </g>
                    </g>
                </g>
            </g>
        </g>
    </g>
</svg>