<?xml version="1.0" encoding="UTF-8"?>
<svg width="22px" height="22px" viewBox="0 0 22 22" version="1.1" xmlns="http://www.w3.org/2000/svg" xmlns:xlink="http://www.w3.org/1999/xlink">
    <!-- Generator: Sketch 64 (93537) - https://sketch.com -->
    <title>global_icon_back</title>
    <desc>Created with Sketch.</desc>
    <g id="购物车" stroke="none" stroke-width="1" fill="none" fill-rule="evenodd">
        <g transform="translate(-10.000000, -75.000000)" id="导航栏/微信小程序二级导航栏（带功能）">
            <g transform="translate(0.000000, 64.000000)">
                <g id="global_icon_left_darkgrey" transform="translate(10.000000, 11.000000)">
                    <rect id="矩形" x="0" y="0" width="22" height="22"></rect>
                    <path d="M8.6,6 C8.26862915,6 8,6.26862915 8,6.6 L8,15 L8,15 C8,15.3313708 8.26862915,15.6 8.6,15.6 L17,15.6 C17.3313708,15.6 17.6,15.3313708 17.6,15 C17.6,14.6686292 17.3313708,14.4 17,14.4 L9.2,14.4 L9.2,14.4 L9.2,6.6 C9.2,6.26862915 8.93137085,6 8.6,6 Z" id="路径" fill="#404040" fill-rule="nonzero" transform="translate(12.800000, 10.800000) rotate(-315.000000) translate(-12.800000, -10.800000) "></path>
                </g>
            </g>
        </g>
    </g>
</svg>