<?xml version="1.0" encoding="UTF-8"?>
<svg width="16px" height="16px" viewBox="0 0 16 16" version="1.1" xmlns="http://www.w3.org/2000/svg" xmlns:xlink="http://www.w3.org/1999/xlink">
    <title>global_icon_home</title>
    <g id="飞机稿" stroke="none" stroke-width="1" fill="none" fill-rule="evenodd" stroke-linecap="round" stroke-linejoin="round">
        <g id="二级导航展开" transform="translate(-287.000000, -128.000000)" fill-rule="nonzero" stroke="#E8E8E8" stroke-width="0.8">
            <g id="1" transform="translate(287.000000, 128.000000)">
                <path d="M2.92505604,4.47181556 L7.11725887,1.75686515 C7.45784756,1.53629343 7.5953167,1.47927489 7.75775652,1.44176269 C7.92019633,1.40425049 8.07980367,1.40425049 8.24224348,1.44176269 C8.4046833,1.47927489 8.54215244,1.53629343 8.88274113,1.75686515 L13.074944,4.47181556 C13.5322387,4.76796837 13.6794161,4.89779205 13.8217313,5.06685507 C13.9640465,5.23591809 14.0641692,5.42004471 14.1287131,5.63139747 C14.1932571,5.84275023 14.2222222,6.03685432 14.2222222,6.5816708 L14.2222222,11.9432132 C14.2222222,12.7356743 14.1397106,13.0230398 13.9847709,13.3127517 C13.8298313,13.6024637 13.6024637,13.8298313 13.3127517,13.9847709 C13.0230398,14.1397106 12.7356743,14.2222222 11.9432132,14.2222222 L4.05678684,14.2222222 C3.26432574,14.2222222 2.9769602,14.1397106 2.68724826,13.9847709 C2.39753633,13.8298313 2.17016871,13.6024637 2.01522907,13.3127517 C1.86028943,13.0230398 1.77777778,12.7356743 1.77777778,11.9432132 L1.77777778,6.5816708 C1.77777778,6.03685432 1.80674293,5.84275023 1.87128687,5.63139747 C1.93583081,5.42004471 2.03595354,5.23591809 2.1782687,5.06685507 C2.32058386,4.89779205 2.46776126,4.76796837 2.92505604,4.47181556 Z" id="Rectangle"></path>
                <line x1="6" y1="11" x2="10" y2="11" id="Line"></line>
            </g>
        </g>
    </g>
</svg>