<?xml version="1.0" encoding="UTF-8"?>
<svg width="20px" height="20px" viewBox="0 0 20 20" version="1.1" xmlns="http://www.w3.org/2000/svg" xmlns:xlink="http://www.w3.org/1999/xlink">
    <title>global_icon_edit</title>
    <g id="实体类业务流程" stroke="none" stroke-width="1" fill="none" fill-rule="evenodd">
        <g id="地址管理" transform="translate(-339.000000, -137.000000)">
            <g id="地址管理/列表-copy-2" transform="translate(0.000000, 108.000000)">
                <g id="全局/图标/编辑" transform="translate(339.000000, 29.000000)">
                    <g id="Group-2">
                        <rect id="矩形" opacity="0" fill-rule="nonzero" x="0" y="0" width="20" height="20"></rect>
                        <rect id="Rectangle" fill="#4D4D4D" fill-rule="nonzero" x="2.08333333" y="17.5" width="15.8333333" height="1.04166667" rx="0.520833333"></rect>
                        <g id="Group" transform="translate(8.758450, 9.470717) rotate(45.000000) translate(-8.758450, -9.470717) translate(6.258450, 0.470717)">
                            <path d="M1.04166667,9.47390314e-14 L3.95833333,9.47390314e-14 C4.53362995,9.44113066e-14 5,0.466370052 5,1.04166667 L5,15.1244589 L5,15.1244589 L2.5,17.6220388 L-4.73695157e-14,15.1244589 L-4.73695157e-14,1.04166667 C-4.76620138e-14,0.466370052 0.466370052,9.44006225e-14 1.04166667,9.47390314e-14 Z" id="Rectangle" stroke="#4D4D4D" stroke-width="1.04166667" stroke-linecap="round" stroke-linejoin="round"></path>
                            <rect id="Rectangle" fill="#4D4D4D" fill-rule="nonzero" x="4.73695157e-14" y="2.89318784" width="5" height="1.04166667"></rect>
                        </g>
                    </g>
                </g>
            </g>
        </g>
    </g>
</svg>