<?xml version="1.0" encoding="UTF-8"?>
<svg width="20px" height="20px" viewBox="0 0 20 20" version="1.1" xmlns="http://www.w3.org/2000/svg" xmlns:xlink="http://www.w3.org/1999/xlink">
    <title>global_icon_cart</title>
    <g id="实体类业务流程" stroke="none" stroke-width="1" fill="none" fill-rule="evenodd">
        <g id="药品详情/非处方药" transform="translate(-107.000000, -2005.000000)">
            <g id="商品详情/底部操作栏" transform="translate(0.000000, 1993.000000)">
                <g id="全局/图标/客服-copy-2">
                    <g transform="translate(107.000000, 12.000000)">
                        <g id="Group">
                            <g id="Group-2" transform="translate(1.250000, 1.666667)">
                                <path d="M0,0 L1.48174029,12.6932454 C1.54630801,13.2463611 1.87691227,13.7098998 2.33665243,13.9620121 M6.46631876,14.1666667 C7.61913675,14.1666667 9.14527205,14.1666667 11.0447247,14.1666667 M15.2669913,13.9672144 C15.6890991,13.7394532 16.0057174,13.3334772 16.1082969,12.837676 L17.9186417,4.08767601 C18.1051351,3.18629168 17.5256014,2.30439261 16.6242171,2.1178993 C16.5131281,2.09491537 16.3999828,2.08333333 16.286541,2.08333333 L4.16666667,2.08333333" id="Shape" stroke="#4D4D4D" stroke-width="1.04166667" stroke-linecap="round" stroke-linejoin="round"></path>
                                <circle id="Oval" stroke="#4D4D4D" stroke-width="1.04166667" stroke-linecap="round" stroke-linejoin="round" cx="4.375" cy="14.5833333" r="2.08333333"></circle>
                                <circle id="Oval-Copy-4" stroke="#4D4D4D" stroke-width="1.04166667" stroke-linecap="round" stroke-linejoin="round" cx="13.125" cy="14.5833333" r="2.08333333"></circle>
                                <rect id="Rectangle" fill="#4D4D4D" fill-rule="nonzero" x="5" y="7.5" width="8.33333333" height="1.16666667" rx="0.583333333"></rect>
                            </g>
                        </g>
                    </g>
                </g>
            </g>
        </g>
    </g>
</svg>