<?xml version="1.0" encoding="UTF-8"?>
<svg width="17px" height="16px" viewBox="0 0 17 16" version="1.1" xmlns="http://www.w3.org/2000/svg" xmlns:xlink="http://www.w3.org/1999/xlink">
    <title>global_icon_like</title>
    <g id="飞机稿" stroke-width="1"  fill-rule="evenodd" stroke-linejoin="round">
        <g id="健康大真相" transform="translate(-103.000000, -142.000000)"  stroke-width="0.833333333">
            <g id="Group" transform="translate(84.000000, 50.000000)">
                <g id="全局/图标/收藏/未选" transform="translate(19.000000, 92.000000)">
                    <g id="收藏" transform="translate(0.666667, 0.000000)">
                        <path d="M7.7128785,13.1595257 L4.86990062,14.6541677 C4.47882495,14.8597683 3.99512323,14.7094111 3.78952258,14.3183354 C3.70765132,14.162607 3.67939958,13.9842326 3.70914106,13.8108265 L4.25210152,10.6451241 C4.32628544,10.2125987 4.18288746,9.77126507 3.86863934,9.46494886 L1.56862192,7.22298598 C1.25223506,6.91458501 1.24576122,6.4080944 1.55416219,6.09170754 C1.67696907,5.96572063 1.837883,5.88373089 2.01199262,5.85843128 L5.19053852,5.39656152 C5.62481873,5.33345691 6.00023952,5.06069775 6.19445553,4.66717312 L7.61594447,1.78692193 C7.81148231,1.39071901 8.29118297,1.22804781 8.6873859,1.42358564 C8.84515599,1.50144983 8.972858,1.62915185 9.05072219,1.78692193 L10.4722111,4.66717312 C10.6664271,5.06069775 11.0418479,5.33345691 11.4761281,5.39656152 L14.654674,5.85843128 C15.0919099,5.92196537 15.3948551,6.32791965 15.331321,6.76515554 C15.3060214,6.93926517 15.2240316,7.10017909 15.0980447,7.22298598 L12.7980273,9.46494886 C12.4837792,9.77126507 12.3403812,10.2125987 12.4145651,10.6451241 L12.9575256,13.8108265 C13.0322144,14.2462956 12.7397442,14.6598604 12.304275,14.7345492 C12.1308689,14.7642907 11.9524944,14.7360389 11.796766,14.6541677 L8.95378817,13.1595257 C8.56535614,12.9553149 8.10131053,12.9553149 7.7128785,13.1595257 Z" id="Star"></path>
                    </g>
                </g>
            </g>
        </g>
    </g>
</svg>