<?xml version="1.0" encoding="UTF-8"?>
<svg width="16px" height="16px" viewBox="0 0 16 16" version="1.1" xmlns="http://www.w3.org/2000/svg" xmlns:xlink="http://www.w3.org/1999/xlink">
    <title>global_icon_hot</title>
    <g id="药品商城迭代" stroke="none" stroke-width="1" fill="none" fill-rule="evenodd">
        <g id="搜索页/默认" transform="translate(-79.000000, -191.000000)">
            <rect fill="#FFFFFF" x="0" y="0" width="375" height="750"></rect>
            <g id="全局/图标/热门" transform="translate(79.000000, 191.000000)">
                <g id="Group">
                    <rect id="Rectangle" fill="#000000" fill-rule="nonzero" opacity="0" x="0" y="0" width="16" height="16"></rect>
                    <path d="M7.49667837,0.666666667 C10.5019904,2.58440131 10.6414257,4.96432104 10.3588742,7.01636608 C11.0033058,6.17695349 11.2874629,4.77378039 11.2874629,3.89446093 C13.2300842,5.2057619 14,7.3691075 14,9.41954328 C14,12.8698284 11.350991,15.6666667 8.08333333,15.6666667 C4.81567565,15.6666667 2.16666667,12.8698284 2.16666667,9.41954328 C2.16666667,4.96432104 7.78224336,2.50284911 7.49667837,0.666666667 Z M8.08333333,9.55866587 C7.58182244,10.6664079 5.88631935,11.3272599 5.88631935,13.0285342 C5.88631935,14.6304871 6.86273529,15.6666667 8.08333333,15.6666667 C9.30393137,15.6666667 10.4220986,14.8441012 10.4220986,13.0285342 C10.4220986,11.5357456 9.30393137,10.0632234 8.08333333,9.55866587 Z" id="Combined-Shape" fill="#FA541C" fill-rule="nonzero"></path>
                </g>
            </g>
            <g id="全局/图标/热门" transform="translate(79.000000, 191.000000)" fill-rule="nonzero">
                <g id="Group">
                    <rect id="Rectangle" fill="#000000" opacity="0" x="0" y="0" width="16" height="16"></rect>
                    <path d="M7.49667837,0.666666667 C10.5019904,2.58440131 10.6414257,4.96432104 10.3588742,7.01636608 C11.0033058,6.17695349 11.2874629,4.77378039 11.2874629,3.89446093 C13.2300842,5.2057619 14,7.3691075 14,9.41954328 C14,12.8698284 11.350991,15.6666667 8.08333333,15.6666667 C4.81567565,15.6666667 2.16666667,12.8698284 2.16666667,9.41954328 C2.16666667,4.96432104 7.78224336,2.50284911 7.49667837,0.666666667 Z M8.08333333,9.55866587 C7.58182244,10.6664079 5.88631935,11.3272599 5.88631935,13.0285342 C5.88631935,14.6304871 6.86273529,15.6666667 8.08333333,15.6666667 C9.30393137,15.6666667 10.4220986,14.8441012 10.4220986,13.0285342 C10.4220986,11.5357456 9.30393137,10.0632234 8.08333333,9.55866587 Z" id="Combined-Shape" fill="#FA541C"></path>
                </g>
            </g>
        </g>
    </g>
</svg>