<?xml version="1.0" encoding="UTF-8"?>
<svg width="20px" height="20px" viewBox="0 0 20 20" version="1.1" xmlns="http://www.w3.org/2000/svg" xmlns:xlink="http://www.w3.org/1999/xlink">
    <title>global_icon_service</title>
    <g id="预约类业务流程（积分）" stroke="none" stroke-width="1" fill="none" fill-rule="evenodd" stroke-linejoin="round">
        <g id="预约类-商品详情" transform="translate(-15.000000, -1370.000000)" stroke="#4D4D4D" stroke-width="1.04166667">
            <g id="商品详情/底部操作栏" transform="translate(0.000000, 1358.000000)">
                <g id="全局/图标/客服">
                    <g transform="translate(15.000000, 12.000000)">
                        <g id="客服">
                            <g transform="translate(1.250000, 1.250000)">
                                <path d="M15.9090909,7.95454545 C15.9090909,3.07324085 13.125,0 8.75,0 C4.375,0 1.59090909,3.07324085 1.59090909,7.95454545" id="Path" stroke-linecap="round"></path>
                                <path d="M1.79048922,8.01461043 C3.77864792,8.26601243 4.77272727,9.30659683 4.77272727,11.1363636 C4.77272727,12.9661273 3.77865139,14.0067112 1.79049962,14.2581155 C0.918803187,14.3683501 0.122796021,13.7510566 0.0125687849,12.8793592 C0.00419788615,12.8131606 8.17155021e-18,12.7465009 0,12.6797752 L0,9.59294704 C4.10051908e-06,8.71431448 0.712276526,8.00204205 1.59090909,8.00204205 C1.65763354,8.00204205 1.7242919,8.0062398 1.79048922,8.01461043 Z" id="Rectangle" transform="translate(2.386364, 11.136364) scale(-1, 1) translate(-2.386364, -11.136364) "></path>
                                <path d="M14.5177619,8.01461043 C16.5059206,8.26601243 17.5,9.30659683 17.5,11.1363636 C17.5,12.9661273 16.5059241,14.0067112 14.5177724,14.2581155 C13.6460759,14.3683501 12.8500687,13.7510566 12.7398415,12.8793592 C12.7314706,12.8131606 12.7272727,12.7465009 12.7272727,12.6797752 L12.7272727,9.59294704 C12.7272768,8.71431448 13.4395493,8.00204205 14.3181818,8.00204205 C14.3849063,8.00204205 14.4515646,8.0062398 14.5177619,8.01461043 Z" id="Rectangle-Copy-8"></path>
                                <path d="M15.1136364,14.3181818 C15.1136364,16.7398631 13.5227273,17.5 11.1363636,17.5" id="Path-3" stroke-linecap="round"></path>
                            </g>
                        </g>
                    </g>
                </g>
            </g>
        </g>
    </g>
</svg>