<?xml version="1.0" encoding="UTF-8"?>
<svg width="40px" height="40px" viewBox="0 0 40 40" version="1.1" xmlns="http://www.w3.org/2000/svg" xmlns:xlink="http://www.w3.org/1999/xlink">
    <title>home_icon_10</title>
    <defs>
        <filter x="-20.0%" y="-20.0%" width="140.0%" height="140.0%" filterUnits="objectBoundingBox" id="filter-1">
            <feOffset dx="0" dy="1" in="SourceAlpha" result="shadowOffsetOuter1"></feOffset>
            <feGaussianBlur stdDeviation="1.5" in="shadowOffsetOuter1" result="shadowBlurOuter1"></feGaussianBlur>
            <feColorMatrix values="0 0 0 0 1   0 0 0 0 0.68   0 0 0 0 0.2  0 0 0 0.5 0" type="matrix" in="shadowBlurOuter1" result="shadowMatrixOuter1"></feColorMatrix>
            <feMerge>
                <feMergeNode in="shadowMatrixOuter1"></feMergeNode>
                <feMergeNode in="SourceGraphic"></feMergeNode>
            </feMerge>
        </filter>
        <linearGradient x1="0%" y1="0%" x2="100%" y2="100%" id="linearGradient-2">
            <stop stop-color="#FFE01A" offset="0%"></stop>
            <stop stop-color="#FF9419" offset="100%"></stop>
        </linearGradient>
        <linearGradient x1="0%" y1="0%" x2="100%" y2="100%" id="linearGradient-3">
            <stop stop-color="#FFA31A" offset="0%"></stop>
            <stop stop-color="#FF571A" offset="100%"></stop>
        </linearGradient>
    </defs>
    <g id="首页" stroke="none" stroke-width="1" fill="none" fill-rule="evenodd">
        <g transform="translate(-308.000000, -453.000000)" fill-rule="nonzero" id="品类图标">
            <g transform="translate(23.000000, 372.000000)">
                <g id="Group" transform="translate(285.000000, 81.000000)" filter="url(#filter-1)">
                    <path d="M14.476858,21.25 C15.9627226,21.25 16.501533,21.4047094 17.0447428,21.6952212 C17.5879527,21.985733 18.014267,22.4120473 18.3047788,22.9552572 C18.5952906,23.498467 18.75,24.0372774 18.75,25.523142 L18.75,30.3101913 C18.75,31.7960559 18.5952906,32.3348663 18.3047788,32.8780762 C18.014267,33.421286 17.5879527,33.8476003 17.0447428,34.1381122 C16.501533,34.428624 15.9627226,34.5833333 14.476858,34.5833333 L9.68980867,34.5833333 C8.2039441,34.5833333 7.6651337,34.428624 7.12192383,34.1381122 C6.57871395,33.8476003 6.15239966,33.421286 5.86188784,32.8780762 C5.57137602,32.3348663 5.41666667,31.7960559 5.41666667,30.3101913 L5.41666667,25.523142 C5.41666667,24.0372774 5.57137602,23.498467 5.86188784,22.9552572 C6.15239966,22.4120473 6.57871395,21.985733 7.12192383,21.6952212 C7.6651337,21.4047094 8.2039441,21.25 9.68980867,21.25 L14.476858,21.25 Z M30.3101913,21.25 C31.7960559,21.25 32.3348663,21.4047094 32.8780762,21.6952212 C33.421286,21.985733 33.8476003,22.4120473 34.1381122,22.9552572 C34.428624,23.498467 34.5833333,24.0372774 34.5833333,25.523142 L34.5833333,30.3101913 C34.5833333,31.7960559 34.428624,32.3348663 34.1381122,32.8780762 C33.8476003,33.421286 33.421286,33.8476003 32.8780762,34.1381122 C32.3348663,34.428624 31.7960559,34.5833333 30.3101913,34.5833333 L25.523142,34.5833333 C24.0372774,34.5833333 23.498467,34.428624 22.9552572,34.1381122 C22.4120473,33.8476003 21.985733,33.421286 21.6952212,32.8780762 C21.4047094,32.3348663 21.25,31.7960559 21.25,30.3101913 L21.25,25.523142 C21.25,24.0372774 21.4047094,23.498467 21.6952212,22.9552572 C21.985733,22.4120473 22.4120473,21.985733 22.9552572,21.6952212 C23.498467,21.4047094 24.0372774,21.25 25.523142,21.25 L30.3101913,21.25 Z M14.476858,5.41666667 C15.9627226,5.41666667 16.501533,5.57137602 17.0447428,5.86188784 C17.5879527,6.15239966 18.014267,6.57871395 18.3047788,7.12192383 C18.5952906,7.6651337 18.75,8.2039441 18.75,9.68980867 L18.75,14.476858 C18.75,15.9627226 18.5952906,16.501533 18.3047788,17.0447428 C18.014267,17.5879527 17.5879527,18.014267 17.0447428,18.3047788 C16.501533,18.5952906 15.9627226,18.75 14.476858,18.75 L9.68980867,18.75 C8.2039441,18.75 7.6651337,18.5952906 7.12192383,18.3047788 C6.57871395,18.014267 6.15239966,17.5879527 5.86188784,17.0447428 C5.57137602,16.501533 5.41666667,15.9627226 5.41666667,14.476858 L5.41666667,9.68980867 C5.41666667,8.2039441 5.57137602,7.6651337 5.86188784,7.12192383 C6.15239966,6.57871395 6.57871395,6.15239966 7.12192383,5.86188784 C7.6651337,5.57137602 8.2039441,5.41666667 9.68980867,5.41666667 L14.476858,5.41666667 Z" id="Combined-Shape" fill="url(#linearGradient-2)"></path>
                    <rect id="Rectangle-Copy" fill="url(#linearGradient-3)" x="21.25" y="5.41666667" width="13.3333333" height="13.3333333" rx="6.66666667"></rect>
                </g>
            </g>
        </g>
    </g>
</svg>