<?xml version="1.0" encoding="UTF-8"?>
<svg width="167px" height="88px" viewBox="0 0 167 88" version="1.1" xmlns="http://www.w3.org/2000/svg" xmlns:xlink="http://www.w3.org/1999/xlink">
    <title>home_img_1</title>
    <defs>
        <path d="M15.3833112,-1.52833832e-15 L151.616689,8.72962203e-15 C156.965801,-5.07216179e-15 158.905519,0.556953667 160.861074,1.60279622 C162.81663,2.64863878 164.351361,4.18337022 165.397204,6.13892578 C166.443046,8.09448133 167,10.0341988 167,15.3833112 L167,72.6166888 C167,77.9658012 166.443046,79.9055187 165.397204,81.8610742 C164.351361,83.8166298 162.81663,85.3513612 160.861074,86.3972038 C158.905519,87.4430463 156.965801,88 151.616689,88 L15.3833112,88 C10.0341988,88 8.09448133,87.4430463 6.13892578,86.3972038 C4.18337022,85.3513612 2.64863878,83.8166298 1.60279622,81.8610742 C0.556953667,79.9055187 7.67637969e-16,77.9658012 -1.32117026e-15,72.6166888 L-4.92498016e-16,15.3833112 C2.8615553e-16,10.0341988 0.556953667,8.09448133 1.60279622,6.13892578 C2.64863878,4.18337022 4.18337022,2.64863878 6.13892578,1.60279622 C8.09448133,0.556953667 10.0341988,8.88008579e-16 15.3833112,-1.52833832e-15 Z" id="path-1"></path>
        <linearGradient x1="27.8214884%" y1="9.91752299%" x2="55.3155473%" y2="90.082477%" id="linearGradient-3">
            <stop stop-color="#FAF2DC" offset="0%"></stop>
            <stop stop-color="#FFF8E9" stop-opacity="0.2" offset="100%"></stop>
        </linearGradient>
        <filter x="-27.9%" y="-31.2%" width="155.8%" height="162.3%" filterUnits="objectBoundingBox" id="filter-4">
            <feGaussianBlur stdDeviation="8" in="SourceGraphic"></feGaussianBlur>
        </filter>
        <filter x="-41.7%" y="-41.7%" width="185.7%" height="185.7%" filterUnits="objectBoundingBox" id="filter-5">
            <feOffset dx="0" dy="2" in="SourceAlpha" result="shadowOffsetOuter1"></feOffset>
            <feGaussianBlur stdDeviation="3.5" in="shadowOffsetOuter1" result="shadowBlurOuter1"></feGaussianBlur>
            <feColorMatrix values="0 0 0 0 1   0 0 0 0 0.77165968   0 0 0 0 0.597046494  0 0 0 0.5 0" type="matrix" in="shadowBlurOuter1" result="shadowMatrixOuter1"></feColorMatrix>
            <feMerge>
                <feMergeNode in="shadowMatrixOuter1"></feMergeNode>
                <feMergeNode in="SourceGraphic"></feMergeNode>
            </feMerge>
        </filter>
        <linearGradient x1="0%" y1="0%" x2="100%" y2="100%" id="linearGradient-6">
            <stop stop-color="#FFBE4D" offset="0%"></stop>
            <stop stop-color="#FFC757" offset="100%"></stop>
        </linearGradient>
        <path d="M7.97653173,5.8457271e-16 L30.9123572,7.75678499e-16 C33.685971,-4.50691546e-16 34.6917504,0.28879079 35.7057422,0.831079523 C36.719734,1.37336826 37.5155206,2.16915493 38.0578094,3.1831467 C38.6000981,4.19713847 38.8888889,5.20291788 38.8888889,7.97653173 L38.8888889,30.9123572 C38.8888889,33.685971 38.6000981,34.6917504 38.0578094,35.7057422 C37.5155206,36.719734 36.719734,37.5155206 35.7057422,38.0578094 C34.6917504,38.6000981 33.685971,38.8888889 30.9123572,38.8888889 L7.97653173,38.8888889 C5.20291788,38.8888889 4.19713847,38.6000981 3.1831467,38.0578094 C2.16915493,37.5155206 1.37336826,36.719734 0.831079523,35.7057422 C0.28879079,34.6917504 -4.02067969e-16,33.685971 6.91993187e-16,30.9123572 L6.68258022e-16,7.97653173 C-3.88277155e-16,5.20291788 0.28879079,4.19713847 0.831079523,3.1831467 C1.37336826,2.16915493 2.16915493,1.37336826 3.1831467,0.831079523 C4.19713847,0.28879079 5.20291788,-3.39653579e-16 7.97653173,5.8457271e-16 Z" id="path-7"></path>
        <linearGradient x1="29.6792332%" y1="0%" x2="29.6792332%" y2="100%" id="linearGradient-9">
            <stop stop-color="#FFF8EB" offset="0%"></stop>
            <stop stop-color="#FAE9C8" offset="100%"></stop>
        </linearGradient>
        <path d="M29.2855674,-2.52951416e-17 C31.0190761,1.46972057e-17 31.6476882,0.180494244 32.2814331,0.519424702 C32.9151779,0.85835516 33.4125446,1.35572183 33.7514751,1.98946669 C34.0904055,2.62321154 34.2708998,3.25182367 34.2708998,4.98533233 L34.270836,14.777 L33.8820109,14.7777778 C33.2806342,14.7777778 32.785531,15.2327891 32.7221901,15.8173233 L32.7153442,15.9444444 L32.714836,16.333 L3.15883595,16.333 L3.15978866,15.9444444 C3.15978866,15.3430677 2.70477731,14.8479646 2.12024318,14.7846236 L1.99312199,14.7777778 L1.60383595,14.777 L1.6042331,4.98533233 C1.6042331,3.25182367 1.78472735,2.62321154 2.1236578,1.98946669 C2.46258826,1.35572183 2.95995493,0.85835516 3.59369979,0.519424702 C4.22744465,0.180494244 4.85605678,2.48751169e-16 6.58956544,-4.28121928e-16 L29.2855674,-2.52951416e-17 Z" id="path-10"></path>
        <filter x="-4.6%" y="-9.2%" width="109.2%" height="118.4%" filterUnits="objectBoundingBox" id="filter-11">
            <feGaussianBlur stdDeviation="1" in="SourceAlpha" result="shadowBlurInner1"></feGaussianBlur>
            <feOffset dx="0" dy="1" in="shadowBlurInner1" result="shadowOffsetInner1"></feOffset>
            <feComposite in="shadowOffsetInner1" in2="SourceAlpha" operator="arithmetic" k2="-1" k3="1" result="shadowInnerInner1"></feComposite>
            <feColorMatrix values="0 0 0 0 0.996078431   0 0 0 0 0.956235294   0 0 0 0 0.87654902  0 0 0 0.4 0" type="matrix" in="shadowInnerInner1"></feColorMatrix>
        </filter>
        <linearGradient x1="38.2701148%" y1="100%" x2="38.2701148%" y2="0%" id="linearGradient-12">
            <stop stop-color="#FFF5E0" offset="0%"></stop>
            <stop stop-color="#FFFAF0" offset="100%"></stop>
        </linearGradient>
        <linearGradient x1="81.1899986%" y1="86.7919627%" x2="17.8858353%" y2="15.8742625%" id="linearGradient-13">
            <stop stop-color="#FFC962" offset="0%"></stop>
            <stop stop-color="#FFC257" offset="100%"></stop>
        </linearGradient>
        <circle id="path-14" cx="12.0555556" cy="7.77777778" r="1.94444444"></circle>
        <filter x="-38.6%" y="-38.6%" width="177.1%" height="177.1%" filterUnits="objectBoundingBox" id="filter-15">
            <feOffset dx="0" dy="0" in="SourceAlpha" result="shadowOffsetOuter1"></feOffset>
            <feGaussianBlur stdDeviation="0.5" in="shadowOffsetOuter1" result="shadowBlurOuter1"></feGaussianBlur>
            <feColorMatrix values="0 0 0 0 1   0 0 0 0 1   0 0 0 0 1  0 0 0 0.4 0" type="matrix" in="shadowBlurOuter1"></feColorMatrix>
        </filter>
        <circle id="path-16" cx="26.8333333" cy="7.77777778" r="1.94444444"></circle>
        <filter x="-38.6%" y="-38.6%" width="177.1%" height="177.1%" filterUnits="objectBoundingBox" id="filter-17">
            <feOffset dx="0" dy="0" in="SourceAlpha" result="shadowOffsetOuter1"></feOffset>
            <feGaussianBlur stdDeviation="0.5" in="shadowOffsetOuter1" result="shadowBlurOuter1"></feGaussianBlur>
            <feColorMatrix values="0 0 0 0 1   0 0 0 0 1   0 0 0 0 1  0 0 0 0.4 0" type="matrix" in="shadowBlurOuter1"></feColorMatrix>
        </filter>
        <circle id="path-18" cx="10.1111111" cy="10.1111111" r="10.1111111"></circle>
        <filter x="-17.3%" y="-17.3%" width="134.6%" height="134.6%" filterUnits="objectBoundingBox" id="filter-19">
            <feGaussianBlur stdDeviation="2.5" in="SourceAlpha" result="shadowBlurInner1"></feGaussianBlur>
            <feOffset dx="-1" dy="-2" in="shadowBlurInner1" result="shadowOffsetInner1"></feOffset>
            <feComposite in="shadowOffsetInner1" in2="SourceAlpha" operator="arithmetic" k2="-1" k3="1" result="shadowInnerInner1"></feComposite>
            <feColorMatrix values="0 0 0 0 0.96   0 0 0 0 0.4992   0 0 0 0 0.096  0 0 0 0.6 0" type="matrix" in="shadowInnerInner1"></feColorMatrix>
        </filter>
        <path d="M10.1111111,5.05555556 C10.7554433,5.05555556 11.2777778,5.57789001 11.2777778,6.22222222 L11.2774444,9.21555556 L14.1694449,9.99071616 C14.791822,10.1574816 15.1611682,10.7972081 14.9944028,11.4195852 C14.8276373,12.0419623 14.1879109,12.4113085 13.5655338,12.2445431 L9.80915556,11.2380246 L9.78161342,11.230599 C9.75558497,11.2229504 9.72993441,11.2144187 9.70469638,11.2050386 L9.80915556,11.2380246 C9.76111241,11.2251515 9.71457702,11.2094601 9.66967958,11.191176 C9.64484562,11.1812135 9.62048939,11.1702464 9.59659412,11.1584857 C9.57904432,11.1498453 9.56166126,11.1407744 9.54457539,11.1313032 C9.52947442,11.1228289 9.51443905,11.1140151 9.4996234,11.1048793 C9.48075042,11.0934437 9.46237883,11.0814106 9.44441283,11.0689033 C9.42674934,11.0563215 9.40936502,11.0434651 9.39235968,11.030147 C9.37837455,11.0195117 9.36499122,11.008537 9.35187979,10.9972877 C9.33577766,10.9831691 9.31938109,10.9683009 9.30341924,10.9529832 C9.28983583,10.9402106 9.27721337,10.9274886 9.26490303,10.9144974 C9.25019685,10.8987867 9.23552652,10.8824576 9.22131987,10.8657226 C9.20889508,10.8511745 9.19682212,10.8361802 9.18513233,10.8209072 C9.17320897,10.8053704 9.16180729,10.7897253 9.15079189,10.7737927 C9.13971379,10.7575864 9.12877905,10.7408336 9.11828062,10.723815 C9.10723625,10.7062475 9.09694201,10.6885719 9.08710665,10.6706092 C9.07835114,10.6541439 9.06970139,10.637378 9.06145832,10.6204079 C9.05167734,10.6008545 9.04263564,10.5808385 9.03415155,10.5605314 C9.02719915,10.5432634 9.02042135,10.5259036 9.01405746,10.5083776 C9.00600062,10.4867666 8.99878117,10.4648145 8.99220609,10.4425858 C8.98817799,10.4285405 8.98429805,10.4145342 8.98067826,10.4004455 C8.97421242,10.3754355 8.9685698,10.3497715 8.9637869,10.3238063 C8.96066411,10.30737 8.95797879,10.2909906 8.95564323,10.2745315 C8.95303064,10.2548009 8.95073824,10.2347203 8.9489621,10.2144916 C8.94411186,10.1626313 8.94296212,10.1104239 8.94541309,10.0578695 L8.94444444,6.22222222 C8.94444444,5.57789001 9.4667789,5.05555556 10.1111111,5.05555556 Z" id="path-20"></path>
        <filter x="-90.3%" y="-48.4%" width="280.6%" height="252.2%" filterUnits="objectBoundingBox" id="filter-21">
            <feOffset dx="0" dy="2" in="SourceAlpha" result="shadowOffsetOuter1"></feOffset>
            <feGaussianBlur stdDeviation="1.5" in="shadowOffsetOuter1" result="shadowBlurOuter1"></feGaussianBlur>
            <feColorMatrix values="0 0 0 0 0.782835145   0 0 0 0 0.313134058   0 0 0 0 0.0782835145  0 0 0 0.5 0" type="matrix" in="shadowBlurOuter1"></feColorMatrix>
        </filter>
    </defs>
    <g id="一级页面" stroke="none" stroke-width="1" fill="none" fill-rule="evenodd">
        <g id="首页" transform="translate(-16.000000, -264.000000)">
            <g id="Group" transform="translate(16.000000, 264.000000)">
                <mask id="mask-2" fill="white">
                    <use xlink:href="#path-1"></use>
                </mask>
                <use id="Mask" fill="#FFFFFF" fill-rule="nonzero" xlink:href="#path-1"></use>
                <path d="M157.47619,27 C169.915747,27 180,37.2229545 180,49.8336079 C180,70.6868565 160.714272,98.0792918 137.000049,104 C113.688669,98.5929308 94,70.6868565 94,49.8336079 C94,37.2229545 104.084253,27 116.52381,27 C125.60947,27 133.438667,32.4535545 136.999951,40.3077957 C140.561333,32.4535545 148.39053,27 157.47619,27 Z" id="Path" fill="url(#linearGradient-3)" fill-rule="nonzero" opacity="0.600000024" filter="url(#filter-4)" mask="url(#mask-2)" transform="translate(137.000000, 65.500000) rotate(-30.000000) translate(-137.000000, -65.500000) "></path>
                <g id="bt" mask="url(#mask-2)">
                    <g transform="translate(14.000000, 17.000000)">
                        <text id="约体检" fill="#3D3E40" fill-rule="nonzero" font-family="NotoSansCJKsc-Bold, Noto Sans CJK SC" font-size="19" font-weight="bold" line-spacing="19">
                            <tspan x="0" y="22">约体检</tspan>
                        </text>
                        <path d="M66,6.25 C66.3796958,6.25 66.693491,6.53215388 66.7431534,6.89822944 L66.75,7 L66.75,12 C66.75,12.3796958 66.4678461,12.693491 66.1017706,12.7431534 L66,12.75 L61,12.75 C60.5857864,12.75 60.25,12.4142136 60.25,12 C60.25,11.6203042 60.5321539,11.306509 60.8982294,11.2568466 L61,11.25 L65.25,11.25 L65.25,7 C65.25,6.62030423 65.5321539,6.30650904 65.8982294,6.25684662 L66,6.25 Z" id="Path" fill="#3D3E40" fill-rule="nonzero" transform="translate(63.500000, 9.500000) rotate(-45.000000) translate(-63.500000, -9.500000) "></path>
                        <text id="选购体检套餐" fill="none" font-family="NotoSansCJKsc-Regular, Noto Sans CJK SC" font-size="11" font-weight="normal" line-spacing="11" letter-spacing="0.2">
                            <tspan x="0" y="38" fill="#9DA2A6">选购体检套餐</tspan>
                        </text>
                    </g>
                </g>
                <g mask="url(#mask-2)" id="插画/约体检">
                    <g transform="translate(117.000000, 40.000000)" filter="url(#filter-5)">
                        <g id="Group-3">
                            <g id="Group-2-Copy-2">
                                <mask id="mask-8" fill="white">
                                    <use xlink:href="#path-7"></use>
                                </mask>
                                <use id="Mask" fill="url(#linearGradient-6)" fill-rule="nonzero" xlink:href="#path-7"></use>
                                <g id="Group-2" mask="url(#mask-8)" fill-rule="nonzero">
                                    <g transform="translate(1.506878, 3.111111)" id="Combined-Shape">
                                        <path d="M32.714836,16.3333333 L32.7153442,16.7222222 C32.7153442,17.3665544 33.2376787,17.8888889 33.8820109,17.8888889 L33.8820109,17.8888889 L34.270836,17.8883333 L34.2708998,27.6813343 C34.2708998,29.414843 34.0904055,30.0434551 33.7514751,30.6772 C33.4125446,31.3109448 32.9151779,31.8083115 32.2814331,32.147242 C31.6476882,32.4861724 31.0190761,32.6666667 29.2855674,32.6666667 L6.58956544,32.6666667 C4.85605678,32.6666667 4.22744465,32.4861724 3.59369979,32.147242 C2.95995493,31.8083115 2.46258826,31.3109448 2.1236578,30.6772 C1.78472735,30.0434551 1.6042331,29.414843 1.6042331,27.6813343 L1.60383595,17.8883333 L1.99312199,17.8888889 C2.59449872,17.8888889 3.08960185,17.4338775 3.15294282,16.8493434 L3.15978866,16.7222222 L3.15883595,16.3333333 L32.714836,16.3333333 Z" fill="#FFDEB3"></path>
                                        <g fill="none">
                                            <use fill="url(#linearGradient-9)" xlink:href="#path-10"></use>
                                            <use fill="black" fill-opacity="1" filter="url(#filter-11)" xlink:href="#path-10"></use>
                                        </g>
                                        <path d="M32.7144502,16.3333333 L32.7153442,16.7222222 C32.7153442,17.3665544 33.2376787,17.8888889 33.8820109,17.8888889 L33.8820109,17.8888889 L34.4644502,17.8883333 L35.3893307,25.2807808 C35.3973311,25.3447839 35.4033372,25.4090048 35.4073432,25.4733502 L35.4133551,25.6666667 C35.4133551,27.3848859 34.0204632,28.7777778 32.302244,28.7777778 L32.302244,28.7777778 L3.57288889,28.7777778 C3.4438866,28.7777778 3.31500918,28.7697542 3.18700305,28.7537534 C1.48205213,28.5406345 0.272683301,26.9857317 0.485802166,25.2807808 L0.485802166,25.2807808 L1.40945022,17.8883333 L1.99312199,17.8888889 C2.59449872,17.8888889 3.08960185,17.4338775 3.15294282,16.8493434 L3.15978866,16.7222222 L3.15945022,16.3333333 L32.7144502,16.3333333 Z" fill="url(#linearGradient-12)"></path>
                                    </g>
                                </g>
                                <g id="Oval" fill-rule="nonzero" mask="url(#mask-8)">
                                    <use fill="black" fill-opacity="1" filter="url(#filter-15)" xlink:href="#path-14"></use>
                                    <use fill="url(#linearGradient-13)" xlink:href="#path-14"></use>
                                </g>
                                <g id="Oval-Copy" fill-rule="nonzero" mask="url(#mask-8)">
                                    <use fill="black" fill-opacity="1" filter="url(#filter-17)" xlink:href="#path-16"></use>
                                    <use fill="url(#linearGradient-13)" xlink:href="#path-16"></use>
                                </g>
                            </g>
                            <g id="Group" transform="translate(21.777778, 21.777778)" fill-rule="nonzero">
                                <g id="Oval">
                                    <use fill="#FFB24D" xlink:href="#path-18"></use>
                                    <use fill="black" fill-opacity="1" filter="url(#filter-19)" xlink:href="#path-18"></use>
                                </g>
                                <g id="Combined-Shape">
                                    <use fill="black" fill-opacity="1" filter="url(#filter-21)" xlink:href="#path-20"></use>
                                    <use fill="#FAF0DC" xlink:href="#path-20"></use>
                                </g>
                            </g>
                        </g>
                    </g>
                </g>
            </g>
        </g>
    </g>
</svg>