<?xml version="1.0" encoding="UTF-8"?>
<svg width="167px" height="88px" viewBox="0 0 167 88" version="1.1" xmlns="http://www.w3.org/2000/svg" xmlns:xlink="http://www.w3.org/1999/xlink">
    <title>home_img_2</title>
    <defs>
        <path d="M15.3833112,-1.52833832e-15 L151.616689,8.72962203e-15 C156.965801,-5.07216179e-15 158.905519,0.556953667 160.861074,1.60279622 C162.81663,2.64863878 164.351361,4.18337022 165.397204,6.13892578 C166.443046,8.09448133 167,10.0341988 167,15.3833112 L167,72.6166888 C167,77.9658012 166.443046,79.9055187 165.397204,81.8610742 C164.351361,83.8166298 162.81663,85.3513612 160.861074,86.3972038 C158.905519,87.4430463 156.965801,88 151.616689,88 L15.3833112,88 C10.0341988,88 8.09448133,87.4430463 6.13892578,86.3972038 C4.18337022,85.3513612 2.64863878,83.8166298 1.60279622,81.8610742 C0.556953667,79.9055187 7.67637969e-16,77.9658012 -1.32117026e-15,72.6166888 L-4.92498016e-16,15.3833112 C2.8615553e-16,10.0341988 0.556953667,8.09448133 1.60279622,6.13892578 C2.64863878,4.18337022 4.18337022,2.64863878 6.13892578,1.60279622 C8.09448133,0.556953667 10.0341988,8.88008579e-16 15.3833112,-1.52833832e-15 Z" id="path-1"></path>
        <linearGradient x1="27.3070312%" y1="9.91752299%" x2="51.4888478%" y2="81.6200015%" id="linearGradient-3">
            <stop stop-color="#C5EBE4" offset="0%"></stop>
            <stop stop-color="#F0FFFC" stop-opacity="0.2" offset="100%"></stop>
        </linearGradient>
        <filter x="-27.9%" y="-31.2%" width="155.8%" height="162.3%" filterUnits="objectBoundingBox" id="filter-4">
            <feGaussianBlur stdDeviation="8" in="SourceGraphic"></feGaussianBlur>
        </filter>
        <filter x="-58.8%" y="-36.5%" width="227.5%" height="175.0%" filterUnits="objectBoundingBox" id="filter-5">
            <feOffset dx="0" dy="2" in="SourceAlpha" result="shadowOffsetOuter1"></feOffset>
            <feGaussianBlur stdDeviation="3.5" in="shadowOffsetOuter1" result="shadowBlurOuter1"></feGaussianBlur>
            <feColorMatrix values="0 0 0 0 0.597046494   0 0 0 0 1   0 0 0 0 0.919409299  0 0 0 0.5 0" type="matrix" in="shadowBlurOuter1" result="shadowMatrixOuter1"></feColorMatrix>
            <feMerge>
                <feMergeNode in="shadowMatrixOuter1"></feMergeNode>
                <feMergeNode in="SourceGraphic"></feMergeNode>
            </feMerge>
        </filter>
        <linearGradient x1="33.2885742%" y1="0%" x2="66.7114258%" y2="100%" id="linearGradient-6">
            <stop stop-color="#7AEBD4" offset="0%"></stop>
            <stop stop-color="#53E6AB" offset="100%"></stop>
        </linearGradient>
        <path d="M6.62083662,-7.20906793e-16 L20.2882543,2.67489724e-16 C22.5904634,-1.55419233e-16 23.4253001,0.239707771 24.2669533,0.689828853 C25.1086066,1.13994994 25.769141,1.80048433 26.2192621,2.64213758 C26.6693831,3.48379082 26.9090909,4.31862749 26.9090909,6.62083662 L26.9090909,39.9246179 C26.9090909,42.2268271 26.6693831,43.0616637 26.2192621,43.903317 C25.769141,44.7449702 25.1086066,45.4055046 24.2669533,45.8556257 C23.4253001,46.3057468 22.5904634,46.5454545 20.2882543,46.5454545 L6.62083662,46.5454545 C4.31862749,46.5454545 3.48379082,46.3057468 2.64213758,45.8556257 C1.80048433,45.4055046 1.13994994,44.7449702 0.689828853,43.903317 C0.239707771,43.0616637 6.30509572e-16,42.2268271 -1.08516062e-15,39.9246179 L1.78326482e-16,6.62083662 C-1.03612822e-16,4.31862749 0.239707771,3.48379082 0.689828853,2.64213758 C1.13994994,1.80048433 1.80048433,1.13994994 2.64213758,0.689828853 C3.48379082,0.239707771 4.31862749,4.18867608e-16 6.62083662,-7.20906793e-16 Z" id="path-7"></path>
        <filter x="-3.7%" y="-2.1%" width="107.4%" height="104.3%" filterUnits="objectBoundingBox" id="filter-8">
            <feGaussianBlur stdDeviation="0.5" in="SourceAlpha" result="shadowBlurInner1"></feGaussianBlur>
            <feOffset dx="0" dy="1" in="shadowBlurInner1" result="shadowOffsetInner1"></feOffset>
            <feComposite in="shadowOffsetInner1" in2="SourceAlpha" operator="arithmetic" k2="-1" k3="1" result="shadowInnerInner1"></feComposite>
            <feColorMatrix values="0 0 0 0 1   0 0 0 0 1   0 0 0 0 1  0 0 0 0.2 0" type="matrix" in="shadowInnerInner1"></feColorMatrix>
        </filter>
        <linearGradient x1="50%" y1="0%" x2="50%" y2="100%" id="linearGradient-9">
            <stop stop-color="#D3FBF3" offset="0%"></stop>
            <stop stop-color="#B9FAE4" offset="100%"></stop>
        </linearGradient>
        <path d="M11.5561129,0 C18.5902685,0 23.1122257,4.31153996 23.1122257,9.63009404 C23.1122257,12.2950319 21.9769183,14.7071433 19.9591311,16.4507189 L20.1373378,18.6747159 C20.1661903,19.0332659 19.8989178,19.3473177 19.5403678,19.3761702 C19.4365273,19.3845263 19.3321973,19.3678517 19.2361342,19.3275461 L16.8297762,18.3186706 C15.2982527,18.9221693 13.5256592,19.2601881 11.5561129,19.2601881 C4.5219572,19.2601881 0,14.9486481 0,9.63009404 C0,4.31153996 4.5219572,0 11.5561129,0 Z" id="path-10"></path>
        <filter x="-47.6%" y="-51.6%" width="195.2%" height="212.9%" filterUnits="objectBoundingBox" id="filter-12">
            <feMorphology radius="0.5" operator="erode" in="SourceAlpha" result="shadowSpreadOuter1"></feMorphology>
            <feOffset dx="0" dy="1" in="shadowSpreadOuter1" result="shadowOffsetOuter1"></feOffset>
            <feGaussianBlur stdDeviation="4" in="shadowOffsetOuter1" result="shadowBlurOuter1"></feGaussianBlur>
            <feColorMatrix values="0 0 0 0 0   0 0 0 0 0.4   0 0 0 0 0.268131868  0 0 0 0.2 0" type="matrix" in="shadowBlurOuter1"></feColorMatrix>
        </filter>
        <path d="M11.5561129,0 C18.5902685,0 23.1122257,4.31153996 23.1122257,9.63009404 C23.1122257,12.2950319 21.9769183,14.7071433 19.9591311,16.4507189 L20.1373378,18.6747159 C20.1661903,19.0332659 19.8989178,19.3473177 19.5403678,19.3761702 C19.4365273,19.3845263 19.3321973,19.3678517 19.2361342,19.3275461 L16.8297762,18.3186706 C15.2982527,18.9221693 13.5256592,19.2601881 11.5561129,19.2601881 C4.5219572,19.2601881 0,14.9486481 0,9.63009404 C0,4.31153996 4.5219572,0 11.5561129,0 Z" id="path-13"></path>
        <filter x="-13.0%" y="-15.5%" width="126.0%" height="130.9%" filterUnits="objectBoundingBox" id="filter-14">
            <feGaussianBlur stdDeviation="2.5" in="SourceAlpha" result="shadowBlurInner1"></feGaussianBlur>
            <feOffset dx="-1" dy="-1" in="shadowBlurInner1" result="shadowOffsetInner1"></feOffset>
            <feComposite in="shadowOffsetInner1" in2="SourceAlpha" operator="arithmetic" k2="-1" k3="1" result="shadowInnerInner1"></feComposite>
            <feColorMatrix values="0 0 0 0 0.255188519   0 0 0 0 0.850628397   0 0 0 0 0.608730946  0 0 0 1 0" type="matrix" in="shadowInnerInner1" result="shadowMatrixInner1"></feColorMatrix>
            <feGaussianBlur stdDeviation="0.5" in="SourceAlpha" result="shadowBlurInner2"></feGaussianBlur>
            <feOffset dx="-1" dy="-1" in="shadowBlurInner2" result="shadowOffsetInner2"></feOffset>
            <feComposite in="shadowOffsetInner2" in2="SourceAlpha" operator="arithmetic" k2="-1" k3="1" result="shadowInnerInner2"></feComposite>
            <feColorMatrix values="0 0 0 0 0.576470588   0 0 0 0 0.917647059   0 0 0 0 0.8  0 0 0 0.597546984 0" type="matrix" in="shadowInnerInner2" result="shadowMatrixInner2"></feColorMatrix>
            <feMerge>
                <feMergeNode in="shadowMatrixInner1"></feMergeNode>
                <feMergeNode in="shadowMatrixInner2"></feMergeNode>
            </feMerge>
        </filter>
        <filter x="-112.7%" y="-144.9%" width="325.4%" height="389.9%" filterUnits="objectBoundingBox" id="filter-15">
            <feGaussianBlur stdDeviation="4.88483031" in="SourceGraphic"></feGaussianBlur>
        </filter>
        <circle id="path-16" cx="11.5561129" cy="9.63009404" r="1.44451411"></circle>
        <filter x="-34.6%" y="-34.6%" width="169.2%" height="169.2%" filterUnits="objectBoundingBox" id="filter-17">
            <feGaussianBlur stdDeviation="0.5" in="SourceAlpha" result="shadowBlurInner1"></feGaussianBlur>
            <feOffset dx="1" dy="1" in="shadowBlurInner1" result="shadowOffsetInner1"></feOffset>
            <feComposite in="shadowOffsetInner1" in2="SourceAlpha" operator="arithmetic" k2="-1" k3="1" result="shadowInnerInner1"></feComposite>
            <feColorMatrix values="0 0 0 0 0.757118665   0 0 0 0 0.954285553   0 0 0 0 0.877962886  0 0 0 1 0" type="matrix" in="shadowInnerInner1"></feColorMatrix>
        </filter>
        <circle id="path-18" cx="6.25956113" cy="9.63009404" r="1.44451411"></circle>
        <filter x="-34.6%" y="-34.6%" width="169.2%" height="169.2%" filterUnits="objectBoundingBox" id="filter-19">
            <feGaussianBlur stdDeviation="0.5" in="SourceAlpha" result="shadowBlurInner1"></feGaussianBlur>
            <feOffset dx="1" dy="1" in="shadowBlurInner1" result="shadowOffsetInner1"></feOffset>
            <feComposite in="shadowOffsetInner1" in2="SourceAlpha" operator="arithmetic" k2="-1" k3="1" result="shadowInnerInner1"></feComposite>
            <feColorMatrix values="0 0 0 0 0.757118665   0 0 0 0 0.954285553   0 0 0 0 0.877962886  0 0 0 1 0" type="matrix" in="shadowInnerInner1"></feColorMatrix>
        </filter>
        <circle id="path-20" cx="16.8526646" cy="9.63009404" r="1.44451411"></circle>
        <filter x="-34.6%" y="-34.6%" width="169.2%" height="169.2%" filterUnits="objectBoundingBox" id="filter-21">
            <feGaussianBlur stdDeviation="0.5" in="SourceAlpha" result="shadowBlurInner1"></feGaussianBlur>
            <feOffset dx="1" dy="1" in="shadowBlurInner1" result="shadowOffsetInner1"></feOffset>
            <feComposite in="shadowOffsetInner1" in2="SourceAlpha" operator="arithmetic" k2="-1" k3="1" result="shadowInnerInner1"></feComposite>
            <feColorMatrix values="0 0 0 0 0.757118665   0 0 0 0 0.954285553   0 0 0 0 0.877962886  0 0 0 1 0" type="matrix" in="shadowInnerInner1"></feColorMatrix>
        </filter>
        <path d="M8.37818182,0 C13.4779447,0 16.7563636,3.12586647 16.7563636,6.98181818 C16.7563636,8.91413046 15.9330678,10.6630995 14.4698423,11.9272272 L14.5995699,13.539169 C14.620488,13.7991178 14.4267154,14.0268053 14.1667667,14.0477234 C14.0914823,14.0537815 14.0158431,14.0416925 13.9461973,14.0124709 L12.201377,13.2811192 C11.0910706,13.7186037 9.80601263,13.9636364 8.37818182,13.9636364 C3.27841897,13.9636364 0,10.8377699 0,6.98181818 C0,3.12586647 3.27841897,0 8.37818182,0 Z" id="path-22"></path>
        <filter x="-47.7%" y="-49.8%" width="195.5%" height="213.2%" filterUnits="objectBoundingBox" id="filter-24">
            <feMorphology radius="0.5" operator="erode" in="SourceAlpha" result="shadowSpreadOuter1"></feMorphology>
            <feOffset dx="0" dy="1" in="shadowSpreadOuter1" result="shadowOffsetOuter1"></feOffset>
            <feGaussianBlur stdDeviation="3" in="shadowOffsetOuter1" result="shadowBlurOuter1"></feGaussianBlur>
            <feColorMatrix values="0 0 0 0 0   0 0 0 0 0.346666667   0 0 0 0 0.4  0 0 0 0.2 0" type="matrix" in="shadowBlurOuter1"></feColorMatrix>
        </filter>
        <path d="M8.37818182,0 C13.4779447,0 16.7563636,3.12586647 16.7563636,6.98181818 C16.7563636,8.91413046 15.9330678,10.6630995 14.4698423,11.9272272 L14.5995699,13.539169 C14.620488,13.7991178 14.4267154,14.0268053 14.1667667,14.0477234 C14.0914823,14.0537815 14.0158431,14.0416925 13.9461973,14.0124709 L12.201377,13.2811192 C11.0910706,13.7186037 9.80601263,13.9636364 8.37818182,13.9636364 C3.27841897,13.9636364 0,10.8377699 0,6.98181818 C0,3.12586647 3.27841897,0 8.37818182,0 Z" id="path-25"></path>
        <filter x="-17.9%" y="-21.3%" width="135.8%" height="142.7%" filterUnits="objectBoundingBox" id="filter-26">
            <feGaussianBlur stdDeviation="2.5" in="SourceAlpha" result="shadowBlurInner1"></feGaussianBlur>
            <feOffset dx="-1" dy="-1" in="shadowBlurInner1" result="shadowOffsetInner1"></feOffset>
            <feComposite in="shadowOffsetInner1" in2="SourceAlpha" operator="arithmetic" k2="-1" k3="1" result="shadowInnerInner1"></feComposite>
            <feColorMatrix values="0 0 0 0 0.27   0 0 0 0 0.753   0 0 0 0 0.9  0 0 0 0.8 0" type="matrix" in="shadowInnerInner1" result="shadowMatrixInner1"></feColorMatrix>
            <feGaussianBlur stdDeviation="0.5" in="SourceAlpha" result="shadowBlurInner2"></feGaussianBlur>
            <feOffset dx="-1" dy="-1" in="shadowBlurInner2" result="shadowOffsetInner2"></feOffset>
            <feComposite in="shadowOffsetInner2" in2="SourceAlpha" operator="arithmetic" k2="-1" k3="1" result="shadowInnerInner2"></feComposite>
            <feColorMatrix values="0 0 0 0 0.576470588   0 0 0 0 0.872156863   0 0 0 0 0.917647059  0 0 0 0.4 0" type="matrix" in="shadowInnerInner2" result="shadowMatrixInner2"></feColorMatrix>
            <feMerge>
                <feMergeNode in="shadowMatrixInner1"></feMergeNode>
                <feMergeNode in="shadowMatrixInner2"></feMergeNode>
            </feMerge>
        </filter>
        <filter x="-112.7%" y="-144.9%" width="325.4%" height="389.9%" filterUnits="objectBoundingBox" id="filter-27">
            <feGaussianBlur stdDeviation="3.54150198" in="SourceGraphic"></feGaussianBlur>
        </filter>
        <circle id="path-28" cx="8.37818182" cy="6.98181818" r="1.04727273"></circle>
        <filter x="-47.7%" y="-47.7%" width="195.5%" height="195.5%" filterUnits="objectBoundingBox" id="filter-29">
            <feGaussianBlur stdDeviation="0.5" in="SourceAlpha" result="shadowBlurInner1"></feGaussianBlur>
            <feOffset dx="1" dy="1" in="shadowBlurInner1" result="shadowOffsetInner1"></feOffset>
            <feComposite in="shadowOffsetInner1" in2="SourceAlpha" operator="arithmetic" k2="-1" k3="1" result="shadowInnerInner1"></feComposite>
            <feColorMatrix values="0 0 0 0 0.757118665   0 0 0 0 0.921424405   0 0 0 0 0.954285553  0 0 0 1 0" type="matrix" in="shadowInnerInner1"></feColorMatrix>
        </filter>
        <circle id="path-30" cx="4.53818182" cy="6.98181818" r="1.04727273"></circle>
        <filter x="-47.7%" y="-47.7%" width="195.5%" height="195.5%" filterUnits="objectBoundingBox" id="filter-31">
            <feGaussianBlur stdDeviation="0.5" in="SourceAlpha" result="shadowBlurInner1"></feGaussianBlur>
            <feOffset dx="1" dy="1" in="shadowBlurInner1" result="shadowOffsetInner1"></feOffset>
            <feComposite in="shadowOffsetInner1" in2="SourceAlpha" operator="arithmetic" k2="-1" k3="1" result="shadowInnerInner1"></feComposite>
            <feColorMatrix values="0 0 0 0 0.757118665   0 0 0 0 0.921424405   0 0 0 0 0.954285553  0 0 0 1 0" type="matrix" in="shadowInnerInner1"></feColorMatrix>
        </filter>
        <circle id="path-32" cx="12.2181818" cy="6.98181818" r="1.04727273"></circle>
        <filter x="-47.7%" y="-47.7%" width="195.5%" height="195.5%" filterUnits="objectBoundingBox" id="filter-33">
            <feGaussianBlur stdDeviation="0.5" in="SourceAlpha" result="shadowBlurInner1"></feGaussianBlur>
            <feOffset dx="1" dy="1" in="shadowBlurInner1" result="shadowOffsetInner1"></feOffset>
            <feComposite in="shadowOffsetInner1" in2="SourceAlpha" operator="arithmetic" k2="-1" k3="1" result="shadowInnerInner1"></feComposite>
            <feColorMatrix values="0 0 0 0 0.757118665   0 0 0 0 0.921424405   0 0 0 0 0.954285553  0 0 0 1 0" type="matrix" in="shadowInnerInner1"></feColorMatrix>
        </filter>
    </defs>
    <g id="一级页面" stroke="none" stroke-width="1" fill="none" fill-rule="evenodd">
        <g id="首页" transform="translate(-192.000000, -264.000000)">
            <g id="Group" transform="translate(192.000000, 264.000000)">
                <mask id="mask-2" fill="white">
                    <use xlink:href="#path-1"></use>
                </mask>
                <use id="Mask" fill="#FFFFFF" fill-rule="nonzero" xlink:href="#path-1"></use>
                <path d="M157.47619,27 C169.915747,27 180,37.2229545 180,49.8336079 C180,70.6868565 160.714272,98.0792918 137.000049,104 C113.688669,98.5929308 94,70.6868565 94,49.8336079 C94,37.2229545 104.084253,27 116.52381,27 C125.60947,27 133.438667,32.4535545 136.999951,40.3077957 C140.561333,32.4535545 148.39053,27 157.47619,27 Z" id="Path" fill="url(#linearGradient-3)" fill-rule="nonzero" opacity="0.600000024" filter="url(#filter-4)" mask="url(#mask-2)" transform="translate(137.000000, 65.500000) rotate(-30.000000) translate(-137.000000, -65.500000) "></path>
                <g mask="url(#mask-2)" id="插画/问诊">
                    <g transform="translate(118.000000, 35.000000)" filter="url(#filter-5)">
                        <g id="Group" transform="translate(5.818182, 0.727273)" fill-rule="nonzero">
                            <g id="Rectangle">
                                <use fill="url(#linearGradient-6)" xlink:href="#path-7"></use>
                                <use fill="black" fill-opacity="1" filter="url(#filter-8)" xlink:href="#path-7"></use>
                            </g>
                            <path d="M7.27272727,2.48135633 C7.27272727,3.0434078 7.34121521,3.29788632 7.46982123,3.53835868 C7.59842725,3.77883104 7.78715137,3.96755515 8.02762372,4.09616117 C8.26809608,4.2247672 8.5225746,4.29325513 9.08462608,4.29325513 L9.08462608,4.29325513 L17.8244648,4.29325513 C18.3865163,4.29325513 18.6409948,4.2247672 18.8814672,4.09616117 C19.1219395,3.96755515 19.3106637,3.77883104 19.4392697,3.53835868 C19.5678757,3.29788632 19.6363636,3.0434078 19.6363636,2.48135633 L19.6363636,2.48135633 L19.6363636,2.18181818 L19.9981037,2.18181818 C21.6425388,2.18181818 22.2388507,2.35303802 22.8400316,2.67455308 C23.4412125,2.99606814 23.9130228,3.46787842 24.2345378,4.06905931 C24.5560529,4.6702402 24.7272727,5.2665521 24.7272727,6.91098719 L24.7272727,39.6344674 C24.7272727,41.2789024 24.5560529,41.8752143 24.2345378,42.4763952 C23.9130228,43.0775761 23.4412125,43.5493864 22.8400316,43.8709015 C22.2388507,44.1924165 21.6425388,44.3636364 19.9981037,44.3636364 L6.91098719,44.3636364 C5.2665521,44.3636364 4.6702402,44.1924165 4.06905931,43.8709015 C3.46787842,43.5493864 2.99606814,43.0775761 2.67455308,42.4763952 C2.35303802,41.8752143 2.18181818,41.2789024 2.18181818,39.6344674 L2.18181818,6.91098719 C2.18181818,5.2665521 2.35303802,4.6702402 2.67455308,4.06905931 C2.99606814,3.46787842 3.46787842,2.99606814 4.06905931,2.67455308 C4.6702402,2.35303802 5.2665521,2.18181818 6.91098719,2.18181818 L7.27272727,2.18181818 Z" id="Combined-Shape" fill="url(#linearGradient-9)"></path>
                        </g>
                        <g id="气泡-copy" transform="translate(18.181818, 19.636364)">
                            <mask id="mask-11" fill="white">
                                <use xlink:href="#path-10"></use>
                            </mask>
                            <g id="Mask" fill-rule="nonzero" fill="black" fill-opacity="1">
                                <use filter="url(#filter-12)" xlink:href="#path-10"></use>
                            </g>
                            <g id="Combined-Shape-Copy-3" fill-rule="nonzero" mask="url(#mask-11)">
                                <use fill="#46EBA9" xlink:href="#path-13"></use>
                                <use fill="black" fill-opacity="1" filter="url(#filter-14)" xlink:href="#path-13"></use>
                            </g>
                            <ellipse id="Oval" fill="#FFFFFF" fill-rule="nonzero" filter="url(#filter-15)" mask="url(#mask-11)" transform="translate(6.500313, 2.166771) rotate(-30.000000) translate(-6.500313, -2.166771) " cx="6.50031348" cy="2.16677116" rx="6.50031348" ry="5.05579937"></ellipse>
                            <g id="Oval" fill-rule="nonzero" mask="url(#mask-11)">
                                <use fill="#F2FFFB" xlink:href="#path-16"></use>
                                <use fill="black" fill-opacity="1" filter="url(#filter-17)" xlink:href="#path-16"></use>
                            </g>
                            <g id="Oval-Copy-3" fill-rule="nonzero" mask="url(#mask-11)">
                                <use fill="#F2FFFB" xlink:href="#path-18"></use>
                                <use fill="black" fill-opacity="1" filter="url(#filter-19)" xlink:href="#path-18"></use>
                            </g>
                            <g id="Oval-Copy-4" fill-rule="nonzero" mask="url(#mask-11)">
                                <use fill="#F2FFFB" xlink:href="#path-20"></use>
                                <use fill="black" fill-opacity="1" filter="url(#filter-21)" xlink:href="#path-20"></use>
                            </g>
                        </g>
                        <g id="气泡-copy-2" transform="translate(7.621429, 16.847403) scale(-1, 1) translate(-7.621429, -16.847403) translate(-0.757143, 9.454545)">
                            <mask id="mask-23" fill="white">
                                <use xlink:href="#path-22"></use>
                            </mask>
                            <g id="Mask" fill-rule="nonzero" fill="black" fill-opacity="1">
                                <use filter="url(#filter-24)" xlink:href="#path-22"></use>
                            </g>
                            <g id="Combined-Shape-Copy-3" fill-rule="nonzero" mask="url(#mask-23)">
                                <use fill="#5AE5FA" xlink:href="#path-25"></use>
                                <use fill="black" fill-opacity="1" filter="url(#filter-26)" xlink:href="#path-25"></use>
                            </g>
                            <ellipse id="Oval" fill="#FFFFFF" fill-rule="nonzero" filter="url(#filter-27)" mask="url(#mask-23)" transform="translate(4.712727, 1.570909) rotate(-30.000000) translate(-4.712727, -1.570909) " cx="4.71272727" cy="1.57090909" rx="4.71272727" ry="3.66545455"></ellipse>
                            <g id="Oval" fill-rule="nonzero" mask="url(#mask-23)">
                                <use fill="#F2FFFB" xlink:href="#path-28"></use>
                                <use fill="black" fill-opacity="1" filter="url(#filter-29)" xlink:href="#path-28"></use>
                            </g>
                            <g id="Oval-Copy-3" fill-rule="nonzero" mask="url(#mask-23)">
                                <use fill="#F2FFFB" xlink:href="#path-30"></use>
                                <use fill="black" fill-opacity="1" filter="url(#filter-31)" xlink:href="#path-30"></use>
                            </g>
                            <g id="Oval-Copy-4" fill-rule="nonzero" mask="url(#mask-23)">
                                <use fill="#F2FFFB" xlink:href="#path-32"></use>
                                <use fill="black" fill-opacity="1" filter="url(#filter-33)" xlink:href="#path-32"></use>
                            </g>
                        </g>
                    </g>
                </g>
                <g id="bt" mask="url(#mask-2)">
                    <g transform="translate(14.000000, 17.000000)">
                        <text id="去问诊" fill="#3D3E40" fill-rule="nonzero" font-family="NotoSansCJKsc-Bold, Noto Sans CJK SC" font-size="19" font-weight="bold" line-spacing="19">
                            <tspan x="0" y="22">去问诊</tspan>
                        </text>
                        <text id="专家在线解答" fill="none" font-family="NotoSansCJKsc-Regular, Noto Sans CJK SC" font-size="11" font-weight="normal" line-spacing="11" letter-spacing="0.2">
                            <tspan x="0" y="38" fill="#9DA2A6">专家在线解答</tspan>
                        </text>
                        <path d="M66,6.25 C66.3796958,6.25 66.693491,6.53215388 66.7431534,6.89822944 L66.75,7 L66.75,12 C66.75,12.3796958 66.4678461,12.693491 66.1017706,12.7431534 L66,12.75 L61,12.75 C60.5857864,12.75 60.25,12.4142136 60.25,12 C60.25,11.6203042 60.5321539,11.306509 60.8982294,11.2568466 L61,11.25 L65.25,11.25 L65.25,7 C65.25,6.62030423 65.5321539,6.30650904 65.8982294,6.25684662 L66,6.25 Z" id="Path" fill="#3D3E40" fill-rule="nonzero" transform="translate(63.500000, 9.500000) rotate(-45.000000) translate(-63.500000, -9.500000) "></path>
                    </g>
                </g>
            </g>
        </g>
    </g>
</svg>