<?xml version="1.0" encoding="UTF-8"?>
<svg width="24px" height="24px" viewBox="0 0 24 24" version="1.1" xmlns="http://www.w3.org/2000/svg" xmlns:xlink="http://www.w3.org/1999/xlink">
    <title>home_icon_service</title>
    <g id="首页" stroke="none" stroke-width="1" fill="none" fill-rule="evenodd" stroke-linejoin="round">
        <g transform="translate(-15.000000, -40.000000)" fill-rule="nonzero" id="导航栏" stroke="#404040" stroke-width="1.5">
            <g transform="translate(0.000000, 20.000000)">
                <g id="客服" transform="translate(15.000000, 20.000000)">
                    <g transform="translate(1.000000, 1.000000)">
                        <path d="M20,10 C20,3.86350278 16.5,0 11,0 C5.5,0 2,3.86350278 2,10" id="Path" stroke-linecap="round"></path>
                        <path d="M2.25090074,10.0755103 C4.75030025,10.3915585 6,11.6997217 6,14 C6,16.3002743 4.7503046,17.608437 2.25091381,17.9244881 C1.15506686,18.0630687 0.154372141,17.2870426 0.0158007581,16.1911945 C0.00527734258,16.1079733 1.0272806e-17,16.0241726 0,15.9402888 L0,12.0597049 C5.15493827e-06,10.9551382 0.895433347,10.05971 2,10.05971 C2.08388217,10.05971 2.16768125,10.0649872 2.25090074,10.0755103 Z" id="Rectangle" transform="translate(3.000000, 14.000000) scale(-1, 1) translate(-3.000000, -14.000000) "></path>
                        <path d="M18.2509007,10.0755103 C20.7503002,10.3915585 22,11.6997217 22,14 C22,16.3002743 20.7503046,17.608437 18.2509138,17.9244881 C17.1550669,18.0630687 16.1543721,17.2870426 16.0158008,16.1911945 C16.0052773,16.1079733 16,16.0241726 16,15.9402888 L16,12.0597049 C16.0000052,10.9551382 16.8954333,10.05971 18,10.05971 C18.0838822,10.05971 18.1676813,10.0649872 18.2509007,10.0755103 Z" id="Rectangle-Copy-8"></path>
                        <path d="M19,18 C19,21.0443993 17,22 14,22" id="Path-3" stroke-linecap="round"></path>
                    </g>
                </g>
            </g>
        </g>
    </g>
</svg>