<?xml version="1.0" encoding="UTF-8"?>
<svg width="24px" height="24px" viewBox="0 0 24 24" version="1.1" xmlns="http://www.w3.org/2000/svg" xmlns:xlink="http://www.w3.org/1999/xlink">
    <!-- Generator: Sketch 64 (93537) - https://sketch.com -->
    <title>home_icon_message</title>
    <desc>Created with Sketch.</desc>
    <g id="首页" stroke="none" stroke-width="1" fill="none" fill-rule="evenodd">
        <g id="首页-单屏" transform="translate(-336.000000, -80.000000)" fill-rule="nonzero">
            <g id="Group-3" transform="translate(0.000000, 64.000000)">
                <g id="导航栏">
                    <g id="消息" transform="translate(336.000000, 16.000000)">
                        <rect id="Rectangle" fill="#000000" opacity="0" x="0" y="0" width="24" height="24"></rect>
                        <path d="M12,1.75 C9.16954066,1.75 6.60704066,2.89727033 4.75215549,4.75215549 C2.89727033,6.60704066 1.75,9.16954066 1.75,12 C1.75,13.3896426 2.02631246,14.7147587 2.52740958,15.9232052 C2.60354949,16.1068244 2.69249819,16.2840424 2.98070217,16.8782061 C3.13873526,17.2291703 3.04266636,18.0317205 2.78248903,19.0075726 C2.61678464,19.6290833 2.42114403,20.3285354 2.41049361,20.9154952 C2.4067087,21.1240869 2.3947113,21.3368078 2.52474089,21.464139 C3.01160414,21.940899 4.13491347,21.4249468 4.94364283,21.2098014 C5.96095731,20.9391663 6.79225102,20.8514199 7.15287002,21.0341584 C7.45603524,21.1877831 7.76056527,21.341462 8.07679476,21.4725904 C9.28524135,21.9736875 10.6103574,22.25 12,22.25 C14.8304593,22.25 17.3929593,21.1027297 19.2478445,19.2478445 C21.1027297,17.3929593 22.25,14.8304593 22.25,12 C22.25,9.16954066 21.1027297,6.60704066 19.2478445,4.75215549 C17.3929593,2.89727033 14.8304593,1.75 12,1.75 Z" id="Oval" stroke="#404040" stroke-width="1.5"></path>
                        <rect id="Rectangle" fill="#404040" x="7" y="9" width="10" height="1.5" rx="0.75"></rect>
                        <rect id="Rectangle-Copy-7" fill="#404040" x="7" y="13.5" width="10" height="1.5" rx="0.75"></rect>
                    </g>
                </g>
            </g>
        </g>
    </g>
</svg>