<?xml version="1.0" encoding="UTF-8"?>
<svg width="24px" height="24px" viewBox="0 0 24 24" version="1.1" xmlns="http://www.w3.org/2000/svg" xmlns:xlink="http://www.w3.org/1999/xlink">
    <title>icon_coll</title>
    <g id="一级页面" stroke="none" stroke-width="1" fill="none" fill-rule="evenodd">
        <g id="我的" transform="translate(-107.000000, -620.000000)" fill="#303233" fill-rule="nonzero">
            <g id="Group-10" transform="translate(0.000000, 567.000000)">
                <g id="Group" transform="translate(107.000000, 53.000000)">
                    <path d="M10.2737831,3.13356761 L8.28331147,7.16670356 C8.24325442,7.24786801 8.16582388,7.30412459 8.07625359,7.31713992 L3.62542382,7.96388334 C3.20647253,8.02476052 2.81927339,8.22204834 2.52376933,8.52520434 C1.78167949,9.28651023 1.79725718,10.5052533 2.55856307,11.2473431 L5.77921375,14.3867016 C5.84402742,14.4498793 5.87360325,14.5409044 5.85830282,14.6301128 L5.09801033,19.0629581 C5.02644491,19.4802165 5.09442566,19.9094301 5.29142836,20.2841515 C5.78615492,21.2251774 6.95006219,21.5869744 7.89108802,21.0922478 L11.8720312,18.9993422 C11.9521453,18.9572237 12.0478547,18.9572237 12.1279688,18.9993422 L16.108912,21.0922478 C16.4836334,21.2892506 16.912847,21.3572313 17.3301054,21.2856659 C18.377953,21.1059459 19.0817096,20.1108058 18.9019897,19.0629581 L18.1416972,14.6301128 C18.1263967,14.5409044 18.1559726,14.4498793 18.2207863,14.3867016 L21.4414369,11.2473431 C21.7445929,10.951839 21.9418807,10.5646399 22.0027579,10.1456886 C22.1556368,9.09358974 21.426675,8.11676225 20.3745762,7.96388334 L15.9237464,7.31713992 C15.8341761,7.30412459 15.7567456,7.24786801 15.7166885,7.16670356 L13.7262169,3.13356761 C13.5388562,2.75393335 13.2315733,2.44665037 12.851939,2.25928966 C11.8985757,1.78877675 10.744296,2.18020432 10.2737831,3.13356761 Z M12.1217056,3.73890419 C12.175939,3.76567 12.2198366,3.80956757 12.2466024,3.86380104 L14.237074,7.89693698 C14.5174734,8.46508817 15.0594871,8.85888421 15.6864792,8.94999149 L20.137309,9.59673491 C20.2876088,9.61857476 20.3917462,9.75812154 20.3699064,9.90842138 C20.3612096,9.96827156 20.3330256,10.0235857 20.2897176,10.0658006 L17.069067,13.2051591 C16.6153712,13.6474031 16.4083404,14.2845785 16.5154434,14.9090371 L17.2757359,19.3418825 C17.3014102,19.491575 17.2008736,19.6337379 17.051181,19.6594121 C16.9915727,19.6696358 16.9302565,19.6599242 16.8767248,19.631781 L12.8957817,17.5388753 C12.3349829,17.244046 11.6650171,17.244046 11.1042183,17.5388753 L7.12327516,19.631781 C6.9888429,19.7024562 6.82257043,19.6507709 6.75189521,19.5163387 C6.72375197,19.462807 6.71404043,19.4014908 6.72426406,19.3418825 L7.48455656,14.9090371 C7.59165959,14.2845785 7.38462875,13.6474031 6.93093304,13.2051591 L3.71028236,10.0658006 C3.60152438,9.95978776 3.59929899,9.78568161 3.70531183,9.67692363 C3.74752669,9.63361563 3.80284086,9.60543166 3.86269104,9.59673491 L8.31352081,8.94999149 C8.94051287,8.85888421 9.48252662,8.46508817 9.762926,7.89693698 L11.7533976,3.86380104 C11.8131453,3.74273903 11.950073,3.6851054 12.0754176,3.72100055 L12.1217056,3.73890419 Z" id="Star"></path>
                </g>
            </g>
        </g>
    </g>
</svg>