<?xml version="1.0" encoding="UTF-8"?>
<svg width="24px" height="24px" viewBox="0 0 24 24" version="1.1" xmlns="http://www.w3.org/2000/svg" xmlns:xlink="http://www.w3.org/1999/xlink">
    <!-- Generator: Sketch 63.1 (92452) - https://sketch.com -->
    <title>icon_pay_weixin</title>
    <desc>Created with Sketch.</desc>
    <g id="实体类业务流程" stroke="none" stroke-width="1" fill="none" fill-rule="evenodd">
        <g id="支付订单" transform="translate(-15.000000, -360.000000)" fill="#21D11D">
            <g id="支付方式" transform="translate(0.000000, 260.000000)">
                <g id="Group-2" transform="translate(0.000000, 84.000000)">
                    <g id="icon_pay_weixin" transform="translate(15.000000, 16.000000)">
                        <g id="支付页/图标/微信" transform="translate(0.000000, 1.000000)">
                            <g id="icon_pay_weixin">
                                <path d="M9.14970061,14.3993263 C7.71257487,15.222145 7.5209581,13.9422049 7.52095808,13.9422049 L5.7005988,9.5995509 C5.02994012,7.54250428 6.27544911,8.68530796 6.27544911,8.68530796 C6.27544911,8.68530796 7.37724551,9.55383877 8.23952096,10.0566724 C9.10179641,10.6052181 10.011976,10.1938088 10.011976,10.1938088 L21.748503,4.5712147 C19.5928144,1.82848589 16.0479042,0 11.9760479,0 C5.36526946,0 0,4.8454876 0,10.8337789 C0,14.2621899 1.77245508,17.3249038 4.55089821,19.3362382 L4.07185629,22.3075278 C4.07185629,22.3075278 3.83233533,23.1760586 4.69461078,22.7646493 C5.26946109,22.4903764 6.75449102,21.5304213 7.61676648,20.9361634 C9.05389221,21.438997 10.5389222,21.7132699 12.0239521,21.7132699 C18.6347305,21.7132699 24,16.8677823 24,10.879491 C24,9.14242943 23.5688623,7.49679213 22.754491,6.07971557 C18.9700599,8.31961078 10.251497,13.7593563 9.14970061,14.3993263 Z" id="Shape" fill-rule="nonzero"></path>
                            </g>
                        </g>
                    </g>
                </g>
            </g>
        </g>
    </g>
</svg>