<?xml version="1.0" encoding="UTF-8"?>
<svg width="16px" height="16px" viewBox="0 0 16 16" version="1.1" xmlns="http://www.w3.org/2000/svg" xmlns:xlink="http://www.w3.org/1999/xlink">
    <title>icon_help</title>
    <defs>
        <filter id="filter-1">
            <feColorMatrix in="SourceGraphic" type="matrix" values="0 0 0 0 1.000000 0 0 0 0 1.000000 0 0 0 0 1.000000 0 0 0 1.000000 0"></feColorMatrix>
        </filter>
    </defs>
    <g id="团检" stroke="none" stroke-width="1" fill="none" fill-rule="evenodd">
        <g id="个人中心/有家属额度" transform="translate(-273.000000, -261.000000)">
            <g id="Group-16" transform="translate(15.000000, 246.000000)">
                <g id="图标/帮助反馈" transform="translate(16.000000, 15.000000)" filter="url(#filter-1)">
                    <g transform="translate(242.000000, 0.000000)" id="Group-2" fill="#303233" fill-rule="nonzero">
                        <path d="M8,1.33333333 C11.6818983,1.33333333 14.6666667,4.31810167 14.6666667,8 C14.6666667,11.6818983 11.6818983,14.6666667 8,14.6666667 C4.31810167,14.6666667 1.33333333,11.6818983 1.33333333,8 C1.33333333,4.31810167 4.31810167,1.33333333 8,1.33333333 Z M8,2.33333333 C4.87038642,2.33333333 2.33333333,4.87038642 2.33333333,8 C2.33333333,11.1296136 4.87038642,13.6666667 8,13.6666667 C11.1296136,13.6666667 13.6666667,11.1296136 13.6666667,8 C13.6666667,4.87038642 11.1296136,2.33333333 8,2.33333333 Z M8,10.6666667 C8.36818983,10.6666667 8.66666667,10.9651435 8.66666667,11.3333333 C8.66666667,11.7015232 8.36818983,12 8,12 C7.63181017,12 7.33333333,11.7015232 7.33333333,11.3333333 C7.33333333,10.9651435 7.63181017,10.6666667 8,10.6666667 Z M8,3.8115829 C9.47127264,3.8115829 10.4986855,5.03146582 10.4986855,6.28084287 C10.4986855,7.09908686 10.1863015,7.59440203 9.3474455,8.34314084 L9.15955438,8.50767385 C8.69974965,8.9035312 8.51523203,9.25519288 8.5007986,9.55343088 L8.49994984,9.60264097 C8.50386106,9.87875564 8.28319656,10.1057615 8.00708189,10.1097239 C7.73096721,10.1135839 7.50396137,9.89291942 7.50005016,9.61680475 C7.49169376,9.02688042 7.77915277,8.40838821 8.42133313,7.82563817 L8.66492563,7.61205945 L8.80634305,7.48420034 L8.93211787,7.36504217 C9.36553492,6.94259455 9.49868545,6.67109682 9.49868545,6.28084287 C9.49868545,5.54936381 8.87730979,4.8115829 8,4.8115829 C7.12051089,4.8115829 6.49150962,5.55293819 6.49150962,6.28084287 C6.49150962,6.55698525 6.26765199,6.78084287 5.99150962,6.78084287 C5.71536724,6.78084287 5.49150962,6.55698525 5.49150962,6.28084287 C5.49150962,5.03374734 6.52845235,3.8115829 8,3.8115829 Z" id="Combined-Shape"></path>
                    </g>
                </g>
            </g>
        </g>
    </g>
</svg>