<?xml version="1.0" encoding="UTF-8"?>
<svg width="24px" height="24px" viewBox="0 0 24 24" version="1.1" xmlns="http://www.w3.org/2000/svg" xmlns:xlink="http://www.w3.org/1999/xlink">
    <title>icon_card</title>
    <g id="一级页面" stroke="none" stroke-width="1" fill="none" fill-rule="evenodd">
        <g id="我的" transform="translate(-245.000000, -620.000000)" fill="#303233" fill-rule="nonzero">
            <g id="Group-10" transform="translate(0.000000, 567.000000)">
                <g id="Group-2" transform="translate(245.000000, 53.000000)">
                    <path d="M9.00134039,2.99938114 C9.31547816,2.99904059 9.5,3.26088715 9.5,3.50899523 L9.5,3.68404856 L9.5,3.68404856 C9.5,4.27804679 9.59282561,4.65091978 9.7671327,4.9768457 C9.9414398,5.30277163 10.1972284,5.5585602 10.5231543,5.7328673 C10.8219197,5.8926488 11.1601337,5.98396322 11.6719579,5.9980727 L11.8159514,6 L12.1840486,6 C12.7780468,6 13.1509198,5.90717439 13.4768457,5.7328673 C13.8027716,5.5585602 14.0585602,5.30277163 14.2328673,4.9768457 C14.3926488,4.67808027 14.4839632,4.33986626 14.4980727,3.82804214 L14.5,3.68404856 L14.5,3.50537925 L14.5,3.50537925 C14.5,3.20569093 14.7325767,2.99909751 15.0033834,2.99938114 L15.6814967,3.00021858 C15.7957053,3.0003559 15.9194313,3.00050348 16.0526746,3.00066132 L16.3903642,3.00593515 L16.6989927,3.01644001 L16.9808069,3.03213125 C17.7882756,3.0869399 18.2640887,3.21116188 18.6812648,3.3993719 L18.8185263,3.46447105 L18.9536914,3.53426541 C19.6055433,3.88287959 20.1171204,4.39445674 20.4657346,5.04630859 L20.5355289,5.18147367 L20.6006281,5.31873516 C20.778382,5.71273486 20.8990602,6.15903723 20.9580922,6.88763901 L20.9763599,7.15688886 C20.9789754,7.20384231 20.9813757,7.25186619 20.98356,7.30100733 L20.9940649,7.60963576 L20.9993387,7.94732541 L20.9998346,8.03655197 L20.9998346,8.03655197 L21,15.8722296 L20.9973584,16.2252925 C20.9964792,16.2815585 20.995381,16.3365668 20.9940649,16.3903642 L20.98356,16.6989927 L20.9678687,16.9808069 C20.9130601,17.7882756 20.7888381,18.2640887 20.6006281,18.6812648 L20.5355289,18.8185263 L20.4657346,18.9536914 C20.1171204,19.6055433 19.6055433,20.1171204 18.9536914,20.4657346 L18.8185263,20.5355289 L18.6812648,20.6006281 C18.2872651,20.778382 17.8409628,20.8990602 17.112361,20.9580922 L16.8431111,20.9763599 C16.7961577,20.9789754 16.7481338,20.9813757 16.6989927,20.98356 L16.3903642,20.9940649 L16.0526746,20.9993387 L15.963448,20.9998346 L15.963448,20.9998346 L8.1277704,21 L7.77470749,20.9973584 C7.71844149,20.9964792 7.66343318,20.995381 7.60963576,20.9940649 L7.30100733,20.98356 L7.01919305,20.9678687 C6.21172437,20.9130601 5.73591131,20.7888381 5.31873516,20.6006281 L5.18147367,20.5355289 L5.04630859,20.4657346 C4.39445674,20.1171204 3.88287959,19.6055433 3.53426541,18.9536914 L3.46447105,18.8185263 L3.3993719,18.6812648 C3.221618,18.2872651 3.10093983,17.8409628 3.04190781,17.112361 L3.02364012,16.8431111 C3.02102461,16.7961577 3.01862426,16.7481338 3.01644001,16.6989927 L3.00593515,16.3903642 L3.00066132,16.0526746 L3.00066132,7.94732541 L3.00593515,7.60963576 L3.01644001,7.30100733 L3.03213125,7.01919305 C3.0869399,6.21172437 3.21116188,5.73591131 3.3993719,5.31873516 L3.46447105,5.18147367 L3.53426541,5.04630859 C3.88287959,4.39445674 4.39445674,3.88287959 5.04630859,3.53426541 L5.18147367,3.46447105 L5.31873516,3.3993719 C5.71273486,3.221618 6.15903723,3.10093983 6.88763901,3.04190781 L7.15688886,3.02364012 C7.20384231,3.02102461 7.25186619,3.01862426 7.30100733,3.01644001 L7.60963576,3.00593515 L7.94732541,3.00066132 C8.08116858,3.00050277 8.20545153,3.00035468 8.32017425,3.00021706 L9.00134039,2.99938114 L9.00134039,2.99938114 Z M8.01780236,4.50310603 L7.72261414,4.51247012 C6.93314193,4.54780399 6.52868682,4.65768741 6.16282196,4.83523631 L6.03473144,4.90069906 C5.54584256,5.16215969 5.16215969,5.54584256 4.90069906,6.03473144 L4.86991153,6.09343391 L4.81188263,6.21204009 L4.75862547,6.3344401 C4.63996645,6.62651225 4.56070358,6.97105034 4.52382517,7.51843582 L4.51062381,7.76588725 C4.50885898,7.80934517 4.50731258,7.85394764 4.5059857,7.89974945 L4.50066726,8.1893909 L4.50066726,15.8106091 L4.5059857,16.1002506 L4.51657248,16.3611077 C4.54958131,16.9794622 4.63149081,17.3526255 4.75862547,17.6655599 L4.81188263,17.7879599 L4.86991153,17.9065661 C4.87997776,17.9261638 4.89024063,17.945713 4.90069906,17.9652686 C5.16215969,18.4541574 5.54584256,18.8378403 6.03473144,19.0993009 L6.09343391,19.1300885 L6.21204009,19.1881174 L6.3344401,19.2413745 C6.62651225,19.3600335 6.97105034,19.4392964 7.51843582,19.4761748 L7.76588725,19.4893762 C7.80934517,19.491141 7.85394764,19.4926874 7.89974945,19.4940143 L8.1893909,19.4993327 L8.3458278,19.5 L15.6541722,19.5 L15.9591923,19.4973353 C16.0074476,19.4964486 16.0544487,19.4953412 16.1002506,19.4940143 L16.3611077,19.4834275 C16.9794622,19.4504187 17.3526255,19.3685092 17.6655599,19.2413745 L17.7879599,19.1881174 L17.9065661,19.1300885 C17.9261638,19.1200222 17.945713,19.1097594 17.9652686,19.0993009 C18.4541574,18.8378403 18.8378403,18.4541574 19.0993009,17.9652686 L19.1300885,17.9065661 L19.1881174,17.7879599 L19.2413745,17.6655599 C19.3600335,17.3734878 19.4392964,17.0289497 19.4761748,16.4815642 L19.4893762,16.2341127 C19.491141,16.1906548 19.4926874,16.1460524 19.4940143,16.1002506 L19.4993327,15.8106091 L19.5,15.6541722 L19.5,8.3458278 L19.4973353,8.04080772 C19.4964486,7.99255241 19.4953412,7.94555126 19.4940143,7.89974945 L19.4834275,7.63889232 C19.4504187,7.02053775 19.3685092,6.64737454 19.2413745,6.3344401 L19.1881174,6.21204009 L19.1300885,6.09343391 C19.1200222,6.07383622 19.1097594,6.054287 19.0993009,6.03473144 C18.8378403,5.54584256 18.4541574,5.16215969 17.9652686,4.90069906 L17.8371778,4.83523694 C17.4928322,4.66813717 17.1142852,4.56101694 16.4125777,4.5199401 L16.1337249,4.50764391 C16.0845366,4.50611446 16.0339449,4.50484594 15.9818792,4.50383986 C15.9364023,5.1600607 15.8060709,5.57864231 15.5993009,5.96526856 C15.3378403,6.45415744 14.9541574,6.83784031 14.4652686,7.09930094 C14.0035402,7.34623599 13.496236,7.48415184 12.593019,7.49871367 L12.4294466,7.5 L11.5705534,7.5 L11.406981,7.49871367 C10.503764,7.48415184 9.99645984,7.34623599 9.53473144,7.09930094 C9.04584256,6.83784031 8.66215969,6.45415744 8.40069906,5.96526856 C8.19392908,5.57864231 8.06359766,5.1600607 8.01780236,4.50310603 Z M8.25,11.5 C8.66421356,11.5 9,11.8357864 9,12.25 C9,12.6642136 8.66421356,13 8.25,13 L6.75,13 C6.33578644,13 6,12.6642136 6,12.25 C6,11.8357864 6.33578644,11.5 6.75,11.5 L8.25,11.5 Z M12.75,11.5 C13.1642136,11.5 13.5,11.8357864 13.5,12.25 C13.5,12.6642136 13.1642136,13 12.75,13 L11.25,13 C10.8357864,13 10.5,12.6642136 10.5,12.25 C10.5,11.8357864 10.8357864,11.5 11.25,11.5 L12.75,11.5 Z M17.25,11.5 C17.6642136,11.5 18,11.8357864 18,12.25 C18,12.6642136 17.6642136,13 17.25,13 L15.75,13 C15.3357864,13 15,12.6642136 15,12.25 C15,11.8357864 15.3357864,11.5 15.75,11.5 L17.25,11.5 Z" id="Combined-Shape"></path>
                </g>
            </g>
        </g>
    </g>
</svg>