<?xml version="1.0" encoding="UTF-8"?>
<svg width="26px" height="26px" viewBox="0 0 26 26" version="1.1" xmlns="http://www.w3.org/2000/svg" xmlns:xlink="http://www.w3.org/1999/xlink">
    <title>icon_service</title>
    <g id="一级页面" stroke="none" stroke-width="1" fill="none" fill-rule="evenodd">
        <g id="首页" transform="translate(-295.000000, -109.000000)" fill="#303233" fill-rule="nonzero">
            <g id="搜索" transform="translate(0.000000, 88.000000)">
                <g id="Group" transform="translate(295.000000, 21.000000)">
                    <path d="M3.70952141,15.6429378 C3.64952075,15.2560216 3.60404565,14.8543233 3.57278856,14.4386444 L3.54625941,14.018335 L3.52996543,13.6169525 C3.52386672,13.4142709 3.52083333,13.2086103 3.52083333,13 C3.52083333,7.4762891 7.75341915,2.97916667 13,2.97916667 C18.2465809,2.97916667 22.4791667,7.4762891 22.4791667,13 L22.4768876,13.3106995 L22.4768876,13.3106995 L22.4700346,13.6169525 L22.4537406,14.018335 C22.4246757,14.5845206 22.3705486,15.126358 22.2906204,15.6431655 C23.2339183,16.4378115 23.8333333,17.628072 23.8333333,18.9583333 C23.8333333,21.2107888 22.1147678,23.0618517 19.9173289,23.2718299 L19.7099539,23.2866696 L19.5,23.2916667 C17.7669685,23.2916667 16.3507541,21.9352119 16.2551448,20.2260906 L16.25,20.0416667 L16.25,17.875 C16.25,16.0800746 17.7050746,14.625 19.5,14.625 L19.7099539,14.629997 C20.1018626,14.6486932 20.4801304,14.7194515 20.8379934,14.8355079 L20.7637274,14.8121642 L20.7637274,14.8121642 L20.7761856,14.6966873 C20.7995076,14.4593902 20.8175027,14.2158366 20.8302989,13.9660344 L20.8456104,13.5866454 L20.85322,13.1978891 L20.8541667,13 C20.8541667,8.35246676 17.3263548,4.60416667 13,4.60416667 C8.75376287,4.60416667 5.27676688,8.21492626 5.14944544,12.7427469 L5.14583333,13 L5.14678002,13.1978891 L5.15438962,13.5866454 C5.16201927,13.8426945 5.17478347,14.0924986 5.19281057,14.3360503 L5.22381442,14.6966873 L5.23572862,14.8123298 L5.28349997,14.7980832 C5.60511721,14.7041958 5.94220894,14.6465907 6.29004609,14.629997 L6.29004609,14.629997 L6.5,14.625 C8.29492544,14.625 9.75,16.0800746 9.75,17.875 L9.75,17.875 L9.75,20.0416667 L9.74485521,20.2260906 C9.64924593,21.9352119 8.23303146,23.2916667 6.5,23.2916667 L6.5,23.2916667 L6.29004609,23.2866696 L6.08267108,23.2718299 C3.88523224,23.0618517 2.16666667,21.2107888 2.16666667,18.9583333 C2.16666667,17.6209379 2.77252816,16.425049 3.72475868,15.6301591 L3.70952141,15.6429378 L3.70952141,15.6429378 Z M19.5,16.25 C18.6497722,16.25 17.9520536,16.9029697 17.8809647,17.7347888 L17.875,17.875 L17.875,20.0416667 L17.8809647,20.1818779 C17.9478719,20.9647664 18.5698559,21.5892278 19.3516394,21.6599849 L19.5,21.6666667 L19.6649841,21.6617239 C21.0839273,21.5764588 22.2083333,20.3987056 22.2083333,18.9583333 C22.2083333,17.4625621 20.9957712,16.25 19.5,16.25 Z M6.5,16.25 C5.0042288,16.25 3.79166667,17.4625621 3.79166667,18.9583333 C3.79166667,20.3987056 4.91607271,21.5764588 6.33501589,21.6617239 L6.33501589,21.6617239 L6.5,21.6666667 L6.64836056,21.6599849 C7.43014411,21.5892278 8.05212812,20.9647664 8.11903528,20.1818779 L8.11903528,20.1818779 L8.125,20.0416667 L8.125,17.875 L8.11903528,17.7347888 C8.04794642,16.9029697 7.35022784,16.25 6.5,16.25 Z" id="Combined-Shape"></path>
                </g>
            </g>
        </g>
    </g>
</svg>