<svg width="16" height="16" xmlns="http://www.w3.org/2000/svg"><g><rect width="16" height="16" rx="2"/><path d="M13 6.366h-1.19v1.778H4.18V6.366H3V4.731c0-.27.089-.494.266-.676a.864.864 0 01.641-.273h.215l-.09-.332 1.666-.308.193.64h1.293V3h1.644v.782h1.349l.181-.592 1.667.308-.08.284h.148c.25 0 .463.091.64.273a.929.929 0 01.267.676v1.635zm-1.678-1.232H4.678v.438a.975.975 0 01.408-.106h5.816c.144 0 .284.039.42.118v-.45zm-1.1 1.422H5.766v.498h4.456v-.498zm2.574 5.903l-.476 1.494-4.331-1.541c-.152.079-.25.126-.295.142L3.703 14l-.476-1.446 2.04-.735H3.772V9.377c0-.26.089-.484.266-.67a.855.855 0 01.641-.278h6.644c.25 0 .463.093.64.278a.934.934 0 01.267.67v2.442h-1.463l2.03.64zM10.438 9.9H5.562V11.7h.012l1.213-.438a.586.586 0 00.385-.557v-.474h1.656v.64c0 .07-.008.177-.023.32l1.633.51V9.898z"/></g></svg>