<?xml version="1.0" encoding="UTF-8"?>
<svg width="40px" height="40px" viewBox="0 0 40 40" version="1.1" xmlns="http://www.w3.org/2000/svg" xmlns:xlink="http://www.w3.org/1999/xlink">
    <!-- Generator: Sketch 57.1 (83088) - https://sketch.com -->
    <title>icon/code copy 10</title>
    <desc>Created with Sketch.</desc>
    <g id="Page-1" stroke="none" stroke-width="1" fill="none" fill-rule="evenodd">
        <g id="登录/已输入" transform="translate(-71.000000, -761.000000)" fill-rule="nonzero">
            <g id="短信验证码" transform="translate(48.000000, 731.000000)">
                <g id="验证码" transform="translate(23.000000, 30.000000)">
                    <path d="M20,24 C20.5522847,24 21,24.4477153 21,25 L21,29 C21,29.5522847 20.5522847,30 20,30 C19.4477153,30 19,29.5522847 19,29 L19,25 C19,24.4477153 19.4477153,24 20,24 Z M20,33 C24.9705627,33 29,28.9705627 29,24 C29,19.0294373 24.9705627,15 20,15 C15.0294373,15 11,19.0294373 11,24 C11,28.9705627 15.0294373,33 20,33 Z M20,35 C13.9248678,35 9,30.0751322 9,24 C9,17.9248678 13.9248678,13 20,13 C26.0751322,13 31,17.9248678 31,24 C31,30.0751322 26.0751322,35 20,35 Z" id="Combined-Shape" fill="#F58D25" opacity="0.800000012"></path>
                    <path d="M13,16.5 L13,13 C13,9.13400675 16.1340068,6 20,6 C23.8659932,6 27,9.13400675 27,13 L27,16.5" id="Path" stroke="#F5A24F" stroke-width="2" stroke-linecap="round" stroke-linejoin="round"></path>
                </g>
            </g>
        </g>
    </g>
</svg>