<?xml version="1.0" encoding="UTF-8"?>
<svg width="24px" height="24px" viewBox="0 0 24 24" version="1.1" xmlns="http://www.w3.org/2000/svg" xmlns:xlink="http://www.w3.org/1999/xlink">
    <title>icon_his</title>
    <g id="一级页面" stroke="none" stroke-width="1" fill="none" fill-rule="evenodd">
        <g id="我的" transform="translate(-38.000000, -696.000000)" fill="#303233" fill-rule="nonzero">
            <g id="Group-10" transform="translate(0.000000, 567.000000)">
                <g id="Group-2" transform="translate(38.000000, 129.000000)">
                    <path d="M6.02995149,8.96403722 C6.80800829,6.31309094 9.40029385,4.90972715 13.955421,6.10250192 C17.9752968,7.1551194 19.9392781,10.618157 19.1876699,14.3101765 C18.1401197,19.4559105 15.2200068,22.5301413 10.6551898,21.9098365 C8.07741348,21.5595471 6.97143528,20.0185598 6.90815325,17.6757805 C6.90099968,17.4109464 6.90514987,17.1574379 6.92079576,16.8755087 L6.92079576,16.8755087 L6.94028065,16.5826338 C6.94416915,16.5317517 6.94837876,16.4797121 6.95291035,16.4263311 L6.95291035,16.4263311 L6.98397092,16.0884744 L7.04253088,15.5127012 L7.08008463,15.0960261 L7.09249639,14.8407509 C7.11908491,13.9634441 6.95028164,13.2918492 6.54687325,12.3219495 L6.54687325,12.3219495 L6.33941578,11.8271089 L6.22689607,11.5465924 L6.14653261,11.3292877 L6.1107369,11.2248808 C5.84810412,10.4368979 5.80245935,9.73913415 6.02995149,8.96403722 Z M13.5754519,7.55357858 C9.79354263,6.56327341 8.01530767,7.52594148 7.46923956,9.38647048 C7.33578787,9.84115868 7.36145788,10.2335718 7.53377711,10.7505849 C7.56103082,10.8323548 7.59194348,10.9176218 7.62863466,11.0125402 L7.62863466,11.0125402 L7.71034976,11.2170694 L8.01871447,11.9589353 C8.46552219,13.0786075 8.64921165,13.9452703 8.58208159,15.1057312 L8.58208159,15.1057312 L8.57058048,15.2746231 L8.5445459,15.5687612 L8.4624741,16.3855027 C8.45772612,16.4368805 8.45327816,16.4867454 8.4491278,16.5352597 L8.4491278,16.5352597 L8.42777723,16.811437 L8.4134519,17.0629913 C8.41164328,17.1032979 8.4101225,17.1429032 8.40888714,17.1819694 L8.40888714,17.1819694 L8.40488033,17.4111967 C8.40467336,17.4863154 8.40558853,17.5605763 8.40760633,17.635278 C8.45262272,19.3018408 9.0847872,20.1826515 10.8571658,20.4234968 C14.4879423,20.9168765 16.8094906,18.4728015 17.7178185,14.0109494 C18.3157171,11.0739761 16.797726,8.39734146 13.5754519,7.55357858 Z M17.8676838,4.21331838 C18.8894688,4.98328865 19.7523567,5.94688246 20.4028159,7.05017685 C20.6131818,7.40699482 20.4944589,7.86678819 20.137641,8.0771541 C19.780823,8.28752 19.3210296,8.16879715 19.1106637,7.81197918 C18.560526,6.8788478 17.8301695,6.06325281 16.9649612,5.41127165 C15.228246,4.10256286 13.048711,3.52154863 10.8518092,3.83030304 C10.4416268,3.88795042 10.0623757,3.60216428 10.0047283,3.19198181 C9.94708096,2.78179935 10.2328671,2.40254832 10.6430496,2.34490094 C13.2379538,1.98021093 15.8164012,2.66756609 17.8676838,4.21331838 Z M6,1.75 C7.24264069,1.75 8.25,2.75735931 8.25,4 C8.25,5.24264069 7.24264069,6.25 6,6.25 C4.75735931,6.25 3.75,5.24264069 3.75,4 C3.75,2.75735931 4.75735931,1.75 6,1.75 Z M6,3.25 C5.58578644,3.25 5.25,3.58578644 5.25,4 C5.25,4.41421356 5.58578644,4.75 6,4.75 C6.41421356,4.75 6.75,4.41421356 6.75,4 C6.75,3.58578644 6.41421356,3.25 6,3.25 Z" id="Combined-Shape"></path>
                </g>
            </g>
        </g>
    </g>
</svg>