<?xml version="1.0" encoding="UTF-8"?>
<svg width="26px" height="26px" viewBox="0 0 26 26" version="1.1" xmlns="http://www.w3.org/2000/svg" xmlns:xlink="http://www.w3.org/1999/xlink">
    <title>icon_news</title>
    <g id="一级页面" stroke="none" stroke-width="1" fill="none" fill-rule="evenodd">
        <g id="首页" transform="translate(-333.000000, -109.000000)" fill="#303233" fill-rule="nonzero">
            <g id="搜索" transform="translate(0.000000, 88.000000)">
                <g id="Group" transform="translate(333.000000, 21.000000)">
                    <path d="M16.8585643,2.43822402 C16.9928149,2.43919456 17.1218817,2.44115114 17.2461782,2.44415581 L17.2461782,2.44415581 L17.6051703,2.45637615 C18.8720338,2.51316808 19.6117277,2.70428663 20.3746731,3.1123143 C21.2224391,3.56570451 21.8926288,4.23589426 22.346019,5.08366024 C22.7540467,5.84660565 22.9451653,6.58629958 23.0019572,7.85316302 L23.0019572,7.85316302 L23.0141775,8.21215509 C23.0156799,8.27430334 23.0169202,8.33764416 23.0179062,8.40222926 L23.0179062,8.40222926 L23.0208333,8.8050846 L23.0208333,15.0282487 L23.0179062,15.4311041 C23.0169202,15.4956892 23.0156799,15.55903 23.0141775,15.6211782 L23.0141775,15.6211782 L23.0019572,15.9801703 C22.9451653,17.2470338 22.7540467,17.9867277 22.346019,18.7496731 C21.8926288,19.5974391 21.2224391,20.2676288 20.3746731,20.721019 C19.6117277,21.1290467 18.8720338,21.3201653 17.6051703,21.3769572 L17.6051703,21.3769572 L17.2461782,21.3891775 C17.18403,21.3906799 17.1206892,21.3919202 17.0561041,21.3929062 L17.0561041,21.3929062 L16.6532487,21.3958333 L15.5052083,21.3958333 L13.5741761,23.3248722 C13.2764467,23.6222411 12.8055413,23.6404672 12.4865806,23.3798088 L12.4865806,23.3798088 L12.4249108,23.3239587 L10.50075,21.3958333 L9.34675127,21.3958333 L8.94389592,21.3929062 C8.87931083,21.3919202 8.81597001,21.3906799 8.75382176,21.3891775 L8.75382176,21.3891775 L8.39482969,21.3769572 C7.18555095,21.3227467 6.45660641,21.1461436 5.72927249,20.7753224 L5.72927249,20.7753224 L5.6253269,20.721019 C4.77756093,20.2676288 4.10737117,19.5974391 3.65398097,18.7496731 C3.24595329,17.9867277 3.05483475,17.2470338 2.99804282,15.9801703 L2.99804282,15.9801703 L2.98582248,15.6211782 C2.98131547,15.4347335 2.97916667,15.2375556 2.97916667,15.0282487 L2.97989069,8.59976904 C2.98086123,8.46551839 2.98281781,8.33645158 2.98582248,8.21215509 L2.98582248,8.21215509 L2.99804282,7.85316302 C3.05483475,6.58629958 3.24595329,5.84660565 3.65398097,5.08366024 C4.10737117,4.23589426 4.77756093,3.56570451 5.6253269,3.1123143 C6.38827232,2.70428663 7.12796625,2.51316808 8.39482969,2.45637615 L8.39482969,2.45637615 L8.75382176,2.44415581 C8.9402665,2.4396488 9.13744443,2.4375 9.34675127,2.4375 Z M16.8379615,4.06306135 L9.16203846,4.06306135 L8.81760747,4.06766215 C8.76286439,4.06882763 8.709414,4.07019652 8.65719875,4.07177494 L8.65719875,4.07177494 L8.35826852,4.08380866 L8.08621944,4.10116437 C7.4373964,4.15145061 7.01468903,4.25438081 6.62388371,4.43058229 L6.62388371,4.43058229 L6.46880266,4.50501958 L6.39167505,4.54526075 C5.82709534,4.84720128 5.38886795,5.28542868 5.08692741,5.85000838 C5.07317174,5.87572925 5.05976006,5.90141927 5.04668624,5.92713599 L5.04668624,5.92713599 L4.97224896,6.08221704 C4.79604748,6.47302237 4.69311728,6.89572973 4.64283104,7.54455277 L4.64283104,7.54455277 L4.62547533,7.81660185 C4.62303436,7.86410673 4.62081514,7.91273166 4.61881155,7.96253419 L4.61881155,7.96253419 L4.60932881,8.2759408 L4.60472801,8.62037179 L4.60472801,15.2129615 L4.60932881,15.5573925 C4.61049429,15.6121356 4.61186319,15.665586 4.6134416,15.7178013 L4.6134416,15.7178013 L4.62547533,16.0167315 L4.64283104,16.2887806 C4.69311728,16.9376036 4.79604748,17.360311 4.97224896,17.7511163 L4.97224896,17.7511163 L5.04668624,17.9061973 L5.08692741,17.983325 C5.38886795,18.5479047 5.82709534,18.9861321 6.39167505,19.2880726 C6.41739592,19.3018283 6.44308594,19.3152399 6.46880266,19.3283138 L6.46880266,19.3283138 L6.62388371,19.402751 C7.01468903,19.5789525 7.4373964,19.6818827 8.08621944,19.732169 L8.08621944,19.732169 L8.35826852,19.7495247 C8.4057734,19.7519656 8.45439833,19.7541849 8.50420085,19.7561884 L8.50420085,19.7561884 L8.81760747,19.7656712 C8.87235054,19.7668367 8.9283863,19.7677987 8.98577228,19.7685635 L8.98577228,19.7685635 L9.34675127,19.7708333 L10.8375924,19.7708333 C11.0533578,19.7708333 11.2602626,19.8566554 11.4126816,20.0093746 L11.4126816,20.0093746 L13.0005417,21.6005833 L14.5951171,20.0084612 C14.7284189,19.8753208 14.9031934,19.7932423 15.0890504,19.7748029 L15.0890504,19.7748029 L15.1692933,19.7708333 L16.7466825,19.7706938 L16.7466825,19.7706938 L16.8379615,19.770272 L17.1823925,19.7656712 C17.2371356,19.7645057 17.290586,19.7631368 17.3428013,19.7615584 L17.3428013,19.7615584 L17.6417315,19.7495247 L17.9137806,19.732169 C18.5626036,19.6818827 18.985311,19.5789525 19.3761163,19.402751 L19.3761163,19.402751 L19.5311973,19.3283138 L19.608325,19.2880726 C20.1729047,18.9861321 20.6111321,18.5479047 20.9130726,17.983325 C20.9268283,17.9576041 20.9402399,17.9319141 20.9533138,17.9061973 L20.9533138,17.9061973 L21.027751,17.7511163 C21.2039525,17.360311 21.3068827,16.9376036 21.357169,16.2887806 L21.357169,16.2887806 L21.3745247,16.0167315 C21.3769656,15.9692266 21.3791849,15.9206017 21.3811884,15.8707991 L21.3811884,15.8707991 L21.3906712,15.5573925 C21.3918367,15.5026495 21.3927987,15.4466137 21.3935635,15.3892277 L21.3935635,15.3892277 L21.3958333,15.0282487 L21.395272,8.62037179 L21.3906712,8.2759408 C21.3895057,8.22119772 21.3881368,8.16774733 21.3865584,8.11553208 L21.3865584,8.11553208 L21.3745247,7.81660185 L21.357169,7.54455277 C21.3068827,6.89572973 21.2039525,6.47302237 21.027751,6.08221704 L21.027751,6.08221704 L20.9533138,5.92713599 L20.9130726,5.85000838 C20.6111321,5.28542868 20.1729047,4.84720128 19.608325,4.54526075 C19.5826041,4.53150508 19.5569141,4.51809339 19.5311973,4.50501958 L19.5311973,4.50501958 L19.3761163,4.43058229 C18.985311,4.25438081 18.5626036,4.15145061 17.9137806,4.10116437 L17.9137806,4.10116437 L17.6417315,4.08380866 C17.5942266,4.08136769 17.5456017,4.07914847 17.4957991,4.07714489 L17.4957991,4.07714489 L17.1823925,4.06766215 L16.8379615,4.06306135 Z M13,8.125 C13.4487314,8.125 13.8125,8.48876864 13.8125,8.9375 L13.8123333,11.104 L15.9791667,11.1041667 C16.427898,11.1041667 16.7916667,11.4679353 16.7916667,11.9166667 C16.7916667,12.365398 16.427898,12.7291667 15.9791667,12.7291667 L13.8123333,12.729 L13.8125,14.8958333 C13.8125,15.3445647 13.4487314,15.7083333 13,15.7083333 C12.5512686,15.7083333 12.1875,15.3445647 12.1875,14.8958333 L12.1873333,12.729 L10.0208333,12.7291667 C9.57210197,12.7291667 9.20833333,12.365398 9.20833333,11.9166667 C9.20833333,11.4679353 9.57210197,11.1041667 10.0208333,11.1041667 L12.1873333,11.104 L12.1875,8.9375 C12.1875,8.48876864 12.5512686,8.125 13,8.125 Z" id="Combined-Shape"></path>
                </g>
            </g>
        </g>
    </g>
</svg>