<?xml version="1.0" encoding="UTF-8"?>
<svg width="24px" height="24px" viewBox="0 0 24 24" version="1.1" xmlns="http://www.w3.org/2000/svg" xmlns:xlink="http://www.w3.org/1999/xlink">
    <title>icon_coo</title>
    <g id="一级页面" stroke="none" stroke-width="1" fill="none" fill-rule="evenodd">
        <g id="我的" transform="translate(-176.000000, -620.000000)" fill="#303233" fill-rule="nonzero">
            <g id="Group-10" transform="translate(0.000000, 567.000000)">
                <g id="Group-2" transform="translate(176.000000, 53.000000)">
                    <path d="M12,2.25 C16.5563492,2.25 20.25,5.94365081 20.25,10.5 C20.25,13.8822833 18.4445196,17.2297134 14.8924268,20.5392551 C14.0818577,21.2944754 13.177465,21.7969419 12.0038311,21.8029924 C10.8274158,21.8089465 9.95242041,21.3244724 9.13425991,20.5640884 C5.56448336,17.2464004 3.75,13.8907467 3.75,10.5 C3.75,5.94365081 7.44365081,2.25 12,2.25 Z M12,3.75 C8.27207794,3.75 5.25,6.77207794 5.25,10.5 C5.25,13.4201779 6.86540828,16.4076678 10.155415,19.4653426 C10.7198811,19.9899475 11.2916977,20.3065553 11.9961689,20.3029871 C12.7058274,20.2993316 13.3094442,19.9639714 13.8698984,19.4417873 C17.1429221,16.3922586 18.75,13.4126745 18.75,10.5 C18.75,6.77207794 15.7279221,3.75 12,3.75 Z M12,7.25 C13.7949254,7.25 15.25,8.70507456 15.25,10.5 C15.25,12.2949254 13.7949254,13.75 12,13.75 C10.2050746,13.75 8.75,12.2949254 8.75,10.5 C8.75,8.70507456 10.2050746,7.25 12,7.25 Z M12,8.75 C11.0335017,8.75 10.25,9.53350169 10.25,10.5 C10.25,11.4664983 11.0335017,12.25 12,12.25 C12.9664983,12.25 13.75,11.4664983 13.75,10.5 C13.75,9.53350169 12.9664983,8.75 12,8.75 Z" id="Combined-Shape"></path>
                </g>
            </g>
        </g>
    </g>
</svg>