<?xml version="1.0" encoding="UTF-8"?>
<svg width="16px" height="16px" viewBox="0 0 16 16" version="1.1" xmlns="http://www.w3.org/2000/svg" xmlns:xlink="http://www.w3.org/1999/xlink">
    <title>icon_ser</title>
    <defs>
        <filter id="filter-1">
            <feColorMatrix in="SourceGraphic" type="matrix" values="0 0 0 0 0.521569 0 0 0 0 0.537255 0 0 0 0 0.549020 0 0 0 1.000000 0"></feColorMatrix>
        </filter>
    </defs>
    <g id="一级页面" stroke="none" stroke-width="1" fill="none" fill-rule="evenodd">
        <g id="首页" transform="translate(-94.000000, -114.000000)">
            <g id="搜索" transform="translate(0.000000, 88.000000)">
                <g id="图标/搜索" transform="translate(74.000000, 16.000000)" filter="url(#filter-1)">
                    <g transform="translate(20.000000, 10.000000)" id="Group" fill="#85878C" fill-rule="nonzero">
                        <path d="M7.33333333,1.33333333 C10.6470418,1.33333333 13.3333333,4.01962483 13.3333333,7.33333333 C13.3333333,8.75018871 12.842227,10.05234 12.020954,11.0788475 L14.1282588,13.1854497 C14.3886083,13.4457993 14.3886083,13.8679092 14.1282588,14.1282588 C13.8679092,14.3886083 13.4457993,14.3886083 13.1854497,14.1282588 L11.0788475,12.020954 C10.05234,12.842227 8.75018871,13.3333333 7.33333333,13.3333333 C4.01962483,13.3333333 1.33333333,10.6470418 1.33333333,7.33333333 C1.33333333,4.01962483 4.01962483,1.33333333 7.33333333,1.33333333 Z M7.33333333,2.66666667 C4.7560045,2.66666667 2.66666667,4.7560045 2.66666667,7.33333333 C2.66666667,9.91066217 4.7560045,12 7.33333333,12 C9.91066217,12 12,9.91066217 12,7.33333333 C12,4.7560045 9.91066217,2.66666667 7.33333333,2.66666667 Z" id="Combined-Shape"></path>
                    </g>
                </g>
            </g>
        </g>
    </g>
</svg>