<?xml version="1.0" encoding="UTF-8"?>
<svg width="14px" height="14px" viewBox="0 0 14 14" version="1.1" xmlns="http://www.w3.org/2000/svg" xmlns:xlink="http://www.w3.org/1999/xlink">
    <title>icon_star_sel</title>
    <g id="一级页面" stroke="none" stroke-width="1" fill="none" fill-rule="evenodd">
        <g id="首页" transform="translate(-132.000000, -901.000000)" fill="#FFB01A" fill-rule="nonzero">
            <g id="推荐机构" transform="translate(16.000000, 802.000000)">
                <g id="推荐机构/b-copy-3" transform="translate(0.000000, 32.000000)">
                    <g id="评星/五星" transform="translate(86.000000, 67.000000)">
                        <g id="Group" transform="translate(30.000000, 0.000000)">
                            <path d="M7,10.65 L3.91141474,12.5364961 C3.67575445,12.6804365 3.36802729,12.6060829 3.22408688,12.3704226 C3.15522769,12.2576858 3.13378148,12.1222797 3.16443288,11.993782 L4.00417197,8.47340353 L4.00417197,8.47340353 L1.25558221,6.11894375 C1.04586372,5.93929754 1.02148532,5.62365507 1.20113154,5.41393657 C1.28707192,5.31361001 1.40922351,5.25137067 1.54090389,5.24081391 L5.14847646,4.95159647 L5.14847646,4.95159647 L6.53833982,1.60996418 C6.64438695,1.35499631 6.93704744,1.23427219 7.19201531,1.34031932 C7.31398858,1.39105086 7.41092863,1.48799091 7.46166018,1.60996418 L8.85152354,4.95159647 L8.85152354,4.95159647 L12.4590961,5.24081391 C12.7343553,5.26288132 12.9396079,5.50391218 12.9175404,5.7791714 C12.9069837,5.91085179 12.8447443,6.03300337 12.7444178,6.11894375 L9.99582803,8.47340353 L9.99582803,8.47340353 L10.8355671,11.993782 C10.8996395,12.2623883 10.7338321,12.5320777 10.4652258,12.5961501 C10.3367281,12.6268015 10.201322,12.6053553 10.0885853,12.5364961 L7,10.65 L7,10.65 Z" id="Star"></path>
                        </g>
                    </g>
                </g>
            </g>
        </g>
    </g>
</svg>