<?xml version="1.0" encoding="UTF-8"?>
<svg width="40px" height="40px" viewBox="0 0 40 40" version="1.1" xmlns="http://www.w3.org/2000/svg" xmlns:xlink="http://www.w3.org/1999/xlink">
    <!-- Generator: Sketch 57.1 (83088) - https://sketch.com -->
    <title>icon/phone nember</title>
    <desc>Created with Sketch.</desc>
    <g id="Page-1" stroke="none" stroke-width="1" fill="none" fill-rule="evenodd" opacity="0.800000012">
        <g id="登录/已输入" transform="translate(-71.000000, -529.000000)" fill="#F58D25" fill-rule="nonzero">
            <g id="手机号" transform="translate(48.000000, 499.000000)">
                <g transform="translate(23.000000, 30.000000)" id="Combined-Shape">
                    <path d="M29,5 C29.5522847,5 30,5.44771525 30,6 L30,34 C30,34.5522847 29.5522847,35 29,35 L11,35 C10.4477153,35 10,34.5522847 10,34 L10,6 C10,5.44771525 10.4477153,5 11,5 L29,5 Z M28,7 L12,7 L12,33 L28,33 L28,7 Z M20,28 C20.8284271,28 21.5,28.6715729 21.5,29.5 C21.5,30.3284271 20.8284271,31 20,31 C19.1715729,31 18.5,30.3284271 18.5,29.5 C18.5,28.6715729 19.1715729,28 20,28 Z"></path>
                </g>
            </g>
        </g>
    </g>
</svg>