<?xml version="1.0" encoding="UTF-8"?>
<svg width="24px" height="24px" viewBox="0 0 24 24" version="1.1" xmlns="http://www.w3.org/2000/svg" xmlns:xlink="http://www.w3.org/1999/xlink">
    <title>icon_cart</title>
    <g id="一级页面" stroke="none" stroke-width="1" fill="none" fill-rule="evenodd">
        <g id="我的" transform="translate(-38.000000, -620.000000)" fill="#303233" fill-rule="nonzero">
            <g id="Group-10" transform="translate(0.000000, 567.000000)">
                <g id="Group" transform="translate(38.000000, 53.000000)">
                    <rect id="Rectangle" x="9" y="10.75" width="6" height="1.5" rx="0.75"></rect>
                    <path d="M2.87534791,1.84057852 L2.94356628,1.86456215 L2.97281464,1.87669646 C4.00021153,2.32452195 4.54287442,3.3883085 4.66730479,4.94819938 L5.07505612,10.2877315 L5.40559515,14.7393109 C5.43164204,15.0920846 5.51352773,15.4323132 5.64602586,15.7501614 L5.6985,15.8685 L5.70379899,15.8672142 L5.73448987,15.8579526 C5.78785229,15.8425185 5.84188245,15.8286572 5.89652687,15.8164223 L5.70379899,15.8672142 C5.78432503,15.8428911 5.86609419,15.8222487 5.94888654,15.8053855 C6.00542263,15.793725 6.06307999,15.7838802 6.12131925,15.7758591 C6.12914872,15.7748748 6.13683978,15.7738464 6.14453796,15.7728503 C6.26083237,15.7577488 6.37951127,15.75 6.5,15.75 L6.36287017,15.7533782 C6.36320646,15.7533616 6.36354276,15.753345 6.36387906,15.7533285 L6.5,15.75 L6.66752233,15.7550188 C6.66987324,15.7551601 6.67222336,15.7553043 6.67457267,15.7554515 L6.5,15.75 C6.58312955,15.75 6.66540049,15.7536896 6.74665767,15.7609139 C6.7819283,15.7640358 6.81784763,15.7679336 6.85355267,15.7725162 C6.88554442,15.7766362 6.91653972,15.7811668 6.94736306,15.7862098 C6.96701683,15.7894151 6.98729682,15.7929633 7.0074991,15.7967323 C7.04420449,15.8035922 7.08018853,15.8110693 7.11590794,15.8192418 C7.13695552,15.8240548 7.15766732,15.8290522 7.17828623,15.8342827 C7.2135442,15.8432238 7.2489563,15.852968 7.28407525,15.8633946 C7.30281154,15.8689596 7.32113774,15.8746153 7.33938106,15.8804562 C7.37011325,15.8902906 7.4007509,15.9007027 7.43114075,15.9116345 C7.45926607,15.9217595 7.48732663,15.9323811 7.51516375,15.9434443 C7.54043248,15.9534674 7.56565466,15.9639285 7.59068438,15.9747506 C7.61429419,15.9849895 7.63740015,15.9953709 7.66033418,16.0060594 C7.68784591,16.018839 7.71540275,16.0322422 7.74269774,16.0460871 C7.76318517,16.0565333 7.78336843,16.0670955 7.80340236,16.077899 C7.90320726,16.1316294 7.99941695,16.1914804 8.09143274,16.2568451 C8.11574477,16.2742884 8.13926785,16.2915858 8.16250148,16.3092444 C8.17795618,16.3207861 8.19413651,16.3333519 8.21017133,16.3460929 C8.23971769,16.3698106 8.26820965,16.3934283 8.29620891,16.4176012 C8.30210546,16.4224246 8.30806612,16.4276111 8.31400412,16.4328227 C8.35006358,16.4647809 8.38494657,16.4970615 8.41897364,16.5302162 C8.43748432,16.5478924 8.45529765,16.5657228 8.47286463,16.5837935 C8.48720385,16.5989548 8.50150901,16.6140169 8.51564382,16.6292394 C8.54182345,16.6569649 8.56746703,16.6857362 8.5925052,16.7150393 C8.60121972,16.725776 8.60960845,16.7357482 8.61792725,16.7457806 C8.64448994,16.7772201 8.67049518,16.8100306 8.69575478,16.8434349 C8.70306747,16.8537733 8.71069403,16.8640124 8.71825065,16.8743059 C8.86329681,17.0710585 8.98233956,17.2879361 9.07084084,17.5198451 C9.0721494,17.5249801 9.07392654,17.5296787 9.07569116,17.5343835 L9.07084084,17.5198451 C9.08285023,17.5513145 9.09429724,17.5830607 9.10516957,17.6150714 C9.11647969,17.6502896 9.12772989,17.685771 9.13827183,17.721556 C9.14171278,17.7310461 9.14444918,17.7405274 9.14713568,17.7500296 L14.853,17.75 L14.8836166,17.6508116 L14.897855,17.6081148 C14.9102993,17.5717991 14.9234824,17.5358264 14.9373863,17.5002147 L14.8836166,17.6508116 C14.9081391,17.5752037 14.9358477,17.5010311 14.9665842,17.4284523 C14.9787607,17.3996952 14.9914745,17.3710549 15.0046582,17.3426772 C15.0153774,17.3196172 15.0261394,17.2972669 15.0371923,17.275087 C15.0499039,17.2495569 15.0634295,17.223456 15.0773568,17.1976036 C15.0917119,17.1709714 15.1061833,17.1451356 15.1210553,17.1195616 C15.2366603,16.9207001 15.3767653,16.7373706 15.5371118,16.5739745 C15.5478971,16.5629828 15.5588822,16.5519748 15.5699594,16.54106 C15.5971175,16.5143 15.624833,16.4880972 15.6530837,16.4624738 C15.6695801,16.4475103 15.6863537,16.4326625 15.7033081,16.4180183 C15.8321827,16.3067332 15.9711803,16.2073968 16.1189172,16.1214301 C16.1374081,16.1106677 16.1563042,16.0999669 16.1753379,16.0894849 C16.2108313,16.0699423 16.246604,16.0512589 16.2828279,16.03335 C16.2937449,16.0279528 16.3046864,16.0226338 16.3156682,16.0173855 C16.3583043,15.9970089 16.4015702,15.9776888 16.4454091,15.9594703 C16.4594885,15.9536181 16.4737971,15.9478122 16.4881651,15.9421238 C16.5228376,15.9283974 16.5578125,15.9153708 16.5931156,15.9030436 C16.6190163,15.8939992 16.645123,15.8853221 16.6714002,15.877029 C16.7062164,15.8660429 16.7411946,15.8557682 16.7764546,15.8461775 C16.7937344,15.8414786 16.810893,15.8369915 16.8281161,15.8326668 C16.9448612,15.8033361 17.0649323,15.7814267 17.1874428,15.7675668 C17.2010445,15.7660282 17.2146392,15.7645925 17.228263,15.7632562 C17.3176354,15.7544889 17.4082935,15.75 17.5,15.75 L17.3621985,15.7533926 C17.371253,15.7529457 17.3803191,15.7525427 17.3893964,15.7521836 L17.5,15.75 L17.6675223,15.7550188 C17.6772618,15.755604 17.6869876,15.75624 17.6966995,15.7569264 L17.5,15.75 C17.5777981,15.75 17.6551367,15.7532536 17.7318541,15.7596844 C17.778424,15.7635225 17.8247156,15.7685767 17.8706475,15.7747648 C17.8993177,15.77874 17.9277034,15.7830315 17.9559792,15.78776 C17.9954028,15.794202 18.0348985,15.8016897 18.0740857,15.810012 C18.0877661,15.8130911 18.1013869,15.816097 18.1149777,15.8192052 C18.2077572,15.8402251 18.2985787,15.8660601 18.387358,15.8963082 L18.4155,15.9065 L18.4586143,15.8149877 C18.5766981,15.5479757 18.6587992,15.2642593 18.701616,14.9697665 L18.7197355,14.8216496 L19.3164798,8.82164956 C19.3271105,8.71476259 19.3324356,8.60741432 19.3324356,8.5 C19.3324356,6.74409468 17.9399375,5.31342472 16.1990027,5.2520515 L16.0824356,5.25 L7.9196796,5.25 C7.50546604,5.25 7.1696796,4.91421356 7.1696796,4.5 C7.1696796,4.11015194 7.46712364,3.78977566 7.8474496,3.75343329 L7.9196796,3.75 L16.0824356,3.75 C18.7057882,3.75 20.8324356,5.87664744 20.8324356,8.5 C20.8324356,8.6046601 20.8289765,8.70927731 20.8220669,8.81368045 L20.8091155,8.9701032 L20.2123712,14.9701032 C20.1482101,15.6152155 19.9553725,16.2306198 19.6502007,16.7860208 C20.025218,17.2546066 20.25,17.8510529 20.25,18.5 C20.25,20.0187831 19.0187831,21.25 17.5,21.25 C16.2414242,21.25 15.1803202,20.4045229 14.853673,19.2505538 L9.14632705,19.2505538 C8.81967982,20.4045229 7.75857578,21.25 6.5,21.25 C4.98121694,21.25 3.75,20.0187831 3.75,18.5 C3.75,17.8055883 4.00738137,17.1712913 4.43195064,16.6873024 C4.13662495,16.1238024 3.95770626,15.5003937 3.90966716,14.8497621 L3.17205441,5.06747347 C3.09078943,4.04871491 2.8234187,3.48721829 2.44355694,3.28457752 L2.37943372,3.25443785 C1.99563014,3.09865694 1.81078125,2.66123729 1.96656215,2.27743372 C2.11317947,1.91620682 2.5092761,1.7312166 2.87534791,1.84057852 Z M6.5,17.25 C6.45068013,17.25 6.40185632,17.2528313 6.35369364,17.2584122 C6.31816749,17.262606 6.28286136,17.2682785 6.2480814,17.2753956 L6.12807489,17.306043 C6.08851461,17.3183373 6.04965019,17.3326008 6.01158926,17.3487802 L5.90417577,17.4008682 C5.51451926,17.6125424 5.25,18.0253803 5.25,18.5 C5.25,19.1903559 5.80964406,19.75 6.5,19.75 C7.19035594,19.75 7.75,19.1903559 7.75,18.5 C7.75,17.8096441 7.19035594,17.25 6.5,17.25 L6.5,17.25 Z M17.5,17.25 L17.3721948,17.2564536 C17.3137151,17.2623925 17.2564271,17.2723626 17.200613,17.2860815 C17.1332762,17.3026359 17.0681372,17.3246242 17.0056347,17.3515656 C16.9988669,17.3544851 16.9924606,17.3573133 16.9860827,17.3601934 L17.0056347,17.3515656 C16.9675366,17.3679876 16.930418,17.3862499 16.894391,17.4062405 L16.9860827,17.3601934 C16.9417311,17.3802221 16.8987575,17.4027634 16.8573436,17.4276357 L16.894391,17.4062405 C16.8611184,17.4247027 16.8287769,17.4446391 16.7974545,17.4659615 L16.8573436,17.4276357 C16.8170731,17.4518213 16.7782772,17.4782111 16.7411229,17.5066382 L16.7974545,17.4659615 C16.7613346,17.4905497 16.7265701,17.5169809 16.6932962,17.5451199 L16.7411229,17.5066382 C16.7195695,17.5231288 16.6985684,17.5403051 16.6781524,17.5581344 L16.6932962,17.5451199 C16.6621101,17.5714933 16.6322334,17.5993669 16.6037774,17.6286292 L16.6781524,17.5581344 C16.6378634,17.5933187 16.5998524,17.6310461 16.5643698,17.6710662 L16.6037774,17.6286292 C16.5786157,17.6545041 16.5545647,17.6814648 16.5317017,17.7094345 L16.5643698,17.6710662 C16.5351798,17.703989 16.507701,17.7384634 16.4820726,17.77435 L16.5317017,17.7094345 C16.5049051,17.7422162 16.4797403,17.7763838 16.4563312,17.8118134 L16.4820726,17.77435 C16.462416,17.8018746 16.4438479,17.83023 16.4264313,17.8593532 L16.4563312,17.8118134 C16.4330331,17.847075 16.411474,17.8835867 16.3917763,17.9212262 L16.4264313,17.8593532 C16.4057887,17.8938708 16.3867637,17.9294671 16.3694608,17.9660375 L16.3917763,17.9212262 C16.3732097,17.9567043 16.3562968,17.9931844 16.3411399,18.0305641 L16.3694608,17.9660375 C16.3526559,18.0015553 16.3374755,18.0379919 16.3240154,18.0752513 L16.3411399,18.0305641 C16.3247381,18.0710142 16.3103926,18.1125178 16.2982332,18.1549452 L16.3240154,18.0752513 C16.3100702,18.1138539 16.2979716,18.1533398 16.2878263,18.1936023 L16.2982332,18.1549452 C16.2877049,18.1916813 16.2788154,18.22911 16.2716491,18.2671471 L16.2878263,18.1936023 C16.2763769,18.2390407 16.2674152,18.2854682 16.2610946,18.3327315 L16.2716491,18.2671471 C16.2638477,18.308555 16.2580883,18.3506838 16.2544795,18.3934251 L16.25,18.5 C16.25,19.1903559 16.8096441,19.75 17.5,19.75 C18.1903559,19.75 18.75,19.1903559 18.75,18.5 C18.75,18.0329206 18.4938188,17.6256755 18.1143004,17.4111086 C18.0957957,17.4005739 18.0767454,17.3904128 18.0574539,17.380762 L18.1143004,17.4111086 C18.0772963,17.3901878 18.0391196,17.3710986 17.9998936,17.3539644 L18.0574539,17.380762 C18.0177427,17.3608961 17.9770091,17.3431929 17.9353903,17.3277222 L17.9998936,17.3539644 C17.9618522,17.3373477 17.9228239,17.3225695 17.8829209,17.3097423 L17.9353903,17.3277222 C17.8941364,17.3123871 17.8520129,17.2992454 17.8091531,17.2883651 L17.8829209,17.3097423 C17.8421588,17.2966389 17.8004839,17.2855713 17.7580161,17.2766592 L17.8091531,17.2883651 C17.7781761,17.2805013 17.7468146,17.2738188 17.715119,17.2683432 L17.7580161,17.2766592 C17.6747579,17.2591871 17.5884519,17.25 17.5,17.25 L17.5,17.25 Z" id="Combined-Shape"></path>
                </g>
            </g>
        </g>
    </g>
</svg>