<?xml version="1.0" encoding="UTF-8"?>
<svg width="24px" height="24px" viewBox="0 0 24 24" version="1.1" xmlns="http://www.w3.org/2000/svg" xmlns:xlink="http://www.w3.org/1999/xlink">
    <title>icon_help</title>
    <g id="一级页面" stroke="none" stroke-width="1" fill="none" fill-rule="evenodd">
        <g id="我的" transform="translate(-314.000000, -620.000000)" fill="#303233" fill-rule="nonzero">
            <g id="Group-10" transform="translate(0.000000, 567.000000)">
                <g id="Group-2" transform="translate(314.000000, 53.000000)">
                    <path d="M12,2 C17.5228475,2 22,6.4771525 22,12 C22,17.5228475 17.5228475,22 12,22 C6.4771525,22 2,17.5228475 2,12 C2,6.4771525 6.4771525,2 12,2 Z M12,3.5 C7.30557963,3.5 3.5,7.30557963 3.5,12 C3.5,16.6944204 7.30557963,20.5 12,20.5 C16.6944204,20.5 20.5,16.6944204 20.5,12 C20.5,7.30557963 16.6944204,3.5 12,3.5 Z M12,16 C12.5522847,16 13,16.4477153 13,17 C13,17.5522847 12.5522847,18 12,18 C11.4477153,18 11,17.5522847 11,17 C11,16.4477153 11.4477153,16 12,16 Z M12,5.71737434 C14.206909,5.71737434 15.7480282,7.54719873 15.7480282,9.42126431 C15.7480282,10.6486303 15.2794522,11.391603 14.0211682,12.5147113 L13.7393316,12.7615108 C13.0496245,13.3552968 12.772848,13.8827893 12.7511979,14.3301463 L12.7499248,14.4039615 C12.7557916,14.8181335 12.4247948,15.1586422 12.0106228,15.1645859 C11.5964508,15.1703759 11.2559421,14.8393791 11.2500752,14.4252071 C11.2375406,13.5403206 11.6687291,12.6125823 12.6319997,11.7384573 L12.9973884,11.4180892 L13.2095146,11.2263005 L13.3981768,11.0475632 C14.0483024,10.4138918 14.2480282,10.0066452 14.2480282,9.42126431 C14.2480282,8.32404571 13.3159647,7.21737434 12,7.21737434 C10.6807663,7.21737434 9.73726443,8.32940729 9.73726443,9.42126431 C9.73726443,9.83547787 9.40147799,10.1712643 8.98726443,10.1712643 C8.57305086,10.1712643 8.23726443,9.83547787 8.23726443,9.42126431 C8.23726443,7.55062101 9.79267852,5.71737434 12,5.71737434 Z" id="Combined-Shape"></path>
                </g>
            </g>
        </g>
    </g>
</svg>