<?xml version="1.0" encoding="UTF-8"?>
<svg width="343px" height="80px" viewBox="0 0 343 80" version="1.1" xmlns="http://www.w3.org/2000/svg" xmlns:xlink="http://www.w3.org/1999/xlink">
    <title>img_ent</title>
    <defs>
        <linearGradient x1="0%" y1="47.2800449%" x2="100%" y2="52.7199551%" id="linearGradient-1">
            <stop stop-color="#FAEBD2" offset="0%"></stop>
            <stop stop-color="#E0B275" offset="100%"></stop>
        </linearGradient>
        <path d="M15.3833112,-6.21504185e-16 L327.616689,6.21504185e-16 C332.965801,-3.61111829e-16 334.905519,0.556953667 336.861074,1.60279622 C338.81663,2.64863878 340.351361,4.18337022 341.397204,6.13892578 C342.443046,8.09448133 343,10.0341988 343,15.3833112 L343,64.6166888 C343,69.9658012 342.443046,71.9055187 341.397204,73.8610742 C340.351361,75.8166298 338.81663,77.3513612 336.861074,78.3972038 C334.905519,79.4430463 332.965801,80 327.616689,80 L15.3833112,80 C10.0341988,80 8.09448133,79.4430463 6.13892578,78.3972038 C4.18337022,77.3513612 2.64863878,75.8166298 1.60279622,73.8610742 C0.556953667,71.9055187 2.4074122e-16,69.9658012 -4.14336123e-16,64.6166888 L4.14336123e-16,15.3833112 C-2.4074122e-16,10.0341988 0.556953667,8.09448133 1.60279622,6.13892578 C2.64863878,4.18337022 4.18337022,2.64863878 6.13892578,1.60279622 C8.09448133,0.556953667 10.0341988,3.61111829e-16 15.3833112,-6.21504185e-16 Z" id="path-2"></path>
        <linearGradient x1="100%" y1="50%" x2="0%" y2="50%" id="linearGradient-4">
            <stop stop-color="#E8C28F" stop-opacity="0" offset="0%"></stop>
            <stop stop-color="#FFEDCE" offset="100%"></stop>
        </linearGradient>
        <linearGradient x1="23.1816924%" y1="26.8841755%" x2="83.07989%" y2="86.8172671%" id="linearGradient-5">
            <stop stop-color="#F7E5C8" stop-opacity="0" offset="0%"></stop>
            <stop stop-color="#E0B275" offset="100%"></stop>
        </linearGradient>
        <linearGradient x1="100%" y1="50%" x2="0%" y2="50%" id="linearGradient-6">
            <stop stop-color="#F1D9B4" stop-opacity="0" offset="0%"></stop>
            <stop stop-color="#FFF8EF" offset="100%"></stop>
        </linearGradient>
        <linearGradient x1="2.59880423%" y1="39.0942204%" x2="89.3945907%" y2="94.2506424%" id="linearGradient-7">
            <stop stop-color="#CCA67A" offset="0%"></stop>
            <stop stop-color="#FAEEDC" offset="100%"></stop>
        </linearGradient>
        <linearGradient x1="2.59880423%" y1="45.7399298%" x2="89.3945907%" y2="67.2854072%" id="linearGradient-8">
            <stop stop-color="#CCA67A" offset="0%"></stop>
            <stop stop-color="#FAEEDC" offset="100%"></stop>
        </linearGradient>
        <linearGradient x1="0%" y1="0%" x2="89.3945907%" y2="94.2506424%" id="linearGradient-9">
            <stop stop-color="#E0B787" offset="0%"></stop>
            <stop stop-color="#FAEEDC" offset="100%"></stop>
        </linearGradient>
        <linearGradient x1="0%" y1="39.0136719%" x2="100%" y2="60.9863281%" id="linearGradient-10">
            <stop stop-color="#FFFAF1" offset="0%"></stop>
            <stop stop-color="#FFE7C2" offset="100%"></stop>
        </linearGradient>
        <filter id="filter-11">
            <feColorMatrix in="SourceGraphic" type="matrix" values="0 0 0 0 0.600000 0 0 0 0 0.392157 0 0 0 0 0.117647 0 0 0 1.000000 0"></feColorMatrix>
        </filter>
        <linearGradient x1="0%" y1="49.0926809%" x2="100%" y2="50.9073191%" id="linearGradient-12">
            <stop stop-color="#4D330F" offset="0%"></stop>
            <stop stop-color="#99652B" offset="100%"></stop>
        </linearGradient>
        <path d="M38.055,29.536 C39.32,29.536 40.148,29.053 40.723,27.581 C40.884,27.236 41.045,26.569 41.16,26.132 L39.113,24.798 C39.021,25.419 38.883,25.879 38.768,26.316 C38.607,26.799 38.331,27.075 37.94,27.098 C37.503,27.121 36.974,26.914 36.445,26.523 C35.916,26.086 35.41,25.603 34.95,24.982 L40.953,24.338 L40.723,21.946 L38.101,22.222 L38.791,21.325 L35.755,19.278 L34.421,20.911 C35.042,21.348 35.801,21.854 36.514,22.406 L33.639,22.705 C33.202,21.762 32.834,20.658 32.512,19.37 L30.097,19.623 C30.442,20.842 30.764,21.946 31.132,22.981 L27.659,23.349 L27.866,25.764 L32.19,25.281 C32.926,26.661 33.8,27.719 34.812,28.432 C35.916,29.191 36.859,29.536 38.055,29.536 Z M27.176,29.283 L27.176,23.188 C27.889,22.291 28.464,21.348 29.085,20.359 L26.785,19.347 C25.612,21.256 23.312,23.74 21.403,25.212 L22.622,27.581 C23.289,27.121 23.91,26.638 24.485,26.109 L24.485,29.283 L27.176,29.283 Z M26.601,40.829 L27.659,40.484 C28.1729615,40.3168077 28.7552766,40.1296095 29.3449016,39.9430525 L29.8506608,39.783785 C31.2806494,39.3357012 32.6508846,38.9261923 33.087,38.851 L32.834,36.183 C31.799,36.551 30.12,37.057 29.108,37.425 L29.108,34.665 C29.706,34.274 30.258,33.883 30.741,33.446 C32.834,36.873 35.525,38.805 40.516,40.231 L41.643,37.724 C39.711,37.264 38.055,36.643 36.606,35.746 C37.503,35.194 38.492,34.55 39.32,33.975 L38.101,32.25 L40.631,32.25 L40.631,29.812 L32.489,29.812 L32.052,27.627 L29.315,27.742 L29.821,29.812 L22.07,29.812 L22.07,32.25 L28.119,32.25 C26.164,33.63 23.864,34.665 20.828,35.746 L21.817,38.345 C23.542,37.678 24.991,37.011 26.348,36.298 L26.348,37.08 C26.348,37.885 26.302,38.207 25.589,38.598 L26.601,40.829 Z M34.582,34.182 C34.007,33.63 33.455,32.986 32.972,32.25 L37.434,32.25 C36.606,32.917 35.594,33.607 34.582,34.182 Z M62.4225789,29.122 L62.4225789,20.497 L54.6255789,20.497 L54.6255789,22.843 L59.6625789,22.843 L59.6625789,23.694 L54.8095789,23.694 L54.8095789,25.902 L59.6625789,25.902 L59.6625789,26.822 L48.6225789,26.822 L48.6225789,25.902 L53.3605789,25.902 L53.3605789,23.694 L48.6225789,23.694 L48.6225789,22.981 C50.3935789,22.682 51.9345789,22.36 53.7975789,21.9 L53.1765789,19.278 C51.1755789,19.853 48.4845789,20.359 45.7935789,20.658 L45.7935789,29.122 L62.4225789,29.122 Z M46.3455789,40.415 C46.7135789,40.254 47.1505789,40.139 47.5415789,40.024 C49.1055789,39.587 51.4745789,38.943 52.0035789,38.828 L51.8655789,36.298 L51.5895789,36.367 L52.3255789,34.389 L49.5655789,32.756 L48.6455789,34.55 L48.6455789,31.468 C49.5655789,31.905 50.7385789,32.618 51.5435789,33.147 L52.3485789,31.238 C51.6355789,30.686 50.3015789,29.927 49.5195789,29.559 L48.6455789,31.307 L48.6455789,29.766 L45.8625789,29.628 L45.8625789,37.08 C45.8625789,37.333 45.8625789,37.678 45.3795789,38.023 L46.3455789,40.415 Z M52.9925789,40.369 L54.4185789,39.886 C55.9825789,39.449 58.2365789,38.851 58.9725789,38.667 L58.8805789,36.114 C58.6275789,36.183 58.3745789,36.275 58.0985789,36.344 L58.8805789,34.389 C58.1905789,33.952 56.9255789,33.147 56.1205789,32.779 L55.2695789,34.412 L55.2695789,31.583 C56.1895789,32.066 57.2935789,32.687 58.1215789,33.239 L58.9035789,31.169 C58.1675789,30.663 56.9255789,29.927 56.1205789,29.559 L55.2695789,31.353 L55.2695789,29.766 L52.5325789,29.628 L52.5325789,37.034 C52.5325789,37.31 52.5325789,37.632 52.0035789,37.977 L52.9925789,40.369 Z M62.2615789,40.622 C62.9745789,40.622 63.9175789,40.116 64.5385789,38.644 C64.9755789,37.609 65.1595789,36.781 65.2515789,35.976 L62.9975789,34.941 C62.9055789,35.746 62.7675789,36.551 62.6525789,36.919 C62.5375789,37.264 62.4455789,37.333 62.2845789,37.333 C62.1235789,37.333 62.1235789,37.172 61.9625789,36.781 C61.7555789,35.976 61.5945789,34.757 61.5715789,33.032 C61.5715789,32.112 61.5255789,30.341 61.5255789,29.789 L58.9725789,29.651 C58.9725789,29.9432353 58.9661326,30.6931626 58.9703038,31.477597 L58.9748448,32.0010214 C58.9813333,32.5202699 58.994226,33.0130588 59.0185789,33.354 C59.1335789,35.654 59.4555789,37.563 60.0995789,38.874 C60.6515789,40.07 61.5255789,40.622 62.2615789,40.622 Z M48.6455789,37.195 L48.6455789,34.734 C49.4735789,35.194 50.5315789,35.884 51.4285789,36.413 C50.5775789,36.666 49.4045789,36.988 48.6455789,37.195 Z M55.2695789,37.149 L55.2695789,34.734 C56.0745789,35.194 57.2245789,35.838 57.9605789,36.39 C57.0635789,36.666 55.9825789,36.965 55.2695789,37.149 Z M83.1101579,36.965 L83.1101579,35.47 L87.2041579,35.47 L87.2041579,33.331 L83.1101579,33.331 L83.1101579,32.503 L86.6521579,32.503 L86.6521579,30.41 L83.1101579,30.41 L83.1101579,29.536 L86.7211579,29.536 L86.7211579,26.523 L87.6181579,26.523 L87.6181579,24.361 L86.7211579,24.361 L86.7211579,21.371 L83.1101579,21.371 L83.1101579,19.922 L80.7181579,19.83 L80.7181579,21.371 L78.2571579,21.371 L78.2571579,23.487 L80.7181579,23.487 L80.7181579,24.361 L77.7511579,24.361 L77.7511579,26.523 L80.7181579,26.523 L80.7181579,27.443 L78.2341579,27.443 L78.2341579,29.536 L80.7181579,29.536 L80.7181579,30.41 L78.2571579,30.41 L78.2571579,32.503 L80.7181579,32.503 L80.7181579,33.331 L77.4521579,33.331 L77.4521579,35.47 L80.7181579,35.47 L80.7181579,36.965 L83.1101579,36.965 Z M73.3121579,40.392 C74.0251579,39.403 74.6001579,38.598 75.0831579,37.793 C76.5551579,39.242 78.3951579,39.656 80.6721579,39.725 C82.9721579,39.794 84.9961579,39.794 87.3881579,39.702 L88.0781579,37.402 C85.6631579,37.517 83.2481579,37.54 80.8791579,37.471 C78.6941579,37.402 77.2681579,36.666 76.2331579,35.539 C76.9461579,33.883 77.2451579,32.158 77.5901579,29.651 L77.5901579,27.213 L75.1521579,27.213 L77.5671579,23.418 L77.5671579,21.026 L73.0361579,21.026 L73.0361579,23.395 L74.9681579,23.395 L72.5301579,27.213 L72.5301579,29.559 L75.3361579,29.559 C75.2441579,30.824 75.1061579,31.882 74.7611579,32.917 C74.4621579,32.112 74.2321579,31.33 74.0251579,30.433 L71.9321579,31.146 C72.3691579,33.009 72.8981579,34.504 73.5191579,35.677 C73.0591579,36.482 72.4611579,37.31 71.7251579,38.207 L71.7251579,24.614 C72.2081579,23.234 72.5991579,21.808 72.9441579,20.313 L70.4601579,19.853 C69.7931579,23.119 68.1141579,27.006 66.8261579,29.26 L68.4591579,31.376 C68.8041579,30.824 69.1031579,30.272 69.4021579,29.72 L69.4021579,40.231 L71.7251579,40.231 L71.7251579,39.035 L73.3121579,40.392 Z M84.3751579,24.361 L83.1101579,24.361 L83.1101579,23.487 L84.3751579,23.487 L84.3751579,24.361 Z M84.3751579,27.443 L83.1101579,27.443 L83.1101579,26.523 L84.3751579,26.523 L84.3751579,27.443 Z M99.7497368,40.369 L101.359737,40.208 C103.199737,40.024 103.751737,39.426 103.751737,37.54 L103.751737,35.378 C105.338737,37.287 107.477737,38.759 110.398737,40.024 L111.525737,37.655 C109.892737,37.011 108.581737,36.298 107.477737,35.539 C108.397737,34.872 109.363737,34.159 110.030737,33.63 L108.995737,32.296 L109.363737,32.296 L109.363737,29.444 L110.881737,29.444 L110.881737,27.42 L109.363737,27.42 L109.363737,24.591 L103.751737,24.591 L103.751737,23.625 L110.444737,23.625 L110.444737,21.164 L103.475737,21.164 L103.130737,19.531 L100.071737,19.669 L100.416737,21.164 L92.6657368,21.164 L92.6657368,28.202 C92.6657368,33.791 92.0217368,35.447 90.2507368,38.713 L92.8727368,39.978 C93.3097368,39.242 93.6547368,38.552 93.9537368,37.885 L94.9887368,39.587 C97.4037368,38.391 99.2667368,37.379 101.290737,36.183 L101.290737,36.643 C101.290737,37.356 101.106737,37.701 100.370737,37.793 L98.9447368,37.977 L99.7497368,40.369 Z M101.290737,27.42 L95.3567368,27.42 L95.3567368,23.625 L101.290737,23.625 L101.290737,24.591 L96.3227368,24.591 L96.3227368,26.661 L101.290737,26.661 L101.290737,27.42 Z M106.856737,27.42 L103.751737,27.42 L103.751737,26.661 L106.856737,26.661 L106.856737,27.42 Z M94.1607368,37.379 C95.0117368,35.286 95.3567368,33.101 95.3567368,29.444 L101.290737,29.444 L101.290737,30.203 L96.0927368,30.203 L96.0927368,32.296 L96.2767368,32.296 L95.3797368,33.285 C96.0927368,33.768 97.2657368,34.78 97.9327368,35.493 C96.6217368,36.206 95.3797368,36.827 94.1607368,37.379 Z M106.856737,30.203 L103.751737,30.203 L103.751737,29.444 L106.856737,29.444 L106.856737,30.203 Z M98.6227368,35.125 L99.6347368,33.952 C99.1747368,33.469 98.4387368,32.825 97.7947368,32.296 L101.290737,32.296 L101.290737,33.906 L101.129737,33.653 C100.324737,34.182 99.4737368,34.642 98.6227368,35.125 Z M105.522737,33.883 C105.039737,33.354 104.648737,32.848 104.303737,32.296 L107.776737,32.296 C107.063737,32.825 106.281737,33.354 105.522737,33.883 Z M115.975316,40.737 C120.184316,38.046 122.645316,35.447 123.933316,31.997 L123.933316,36.735 C123.933316,39.104 124.945316,39.794 127.153316,39.909 C128.326316,39.978 129.361316,39.978 130.534316,39.909 C133.041316,39.794 133.777316,39.219 134.145316,37.103 C134.260316,36.436 134.398316,35.24 134.398316,34.596 L131.592316,33.814 C131.592316,34.297 131.477316,35.424 131.408316,35.884 C131.224316,36.873 131.063316,37.057 129.867316,37.172 C129.223316,37.241 128.740316,37.241 128.073316,37.172 C127.222316,37.08 126.877316,36.827 126.877316,35.93 L126.877316,30.663 L124.393316,30.571 C124.485316,30.272 124.554316,29.996 124.623316,29.651 L133.685316,29.651 L133.685316,26.868 L125.060316,26.868 L125.152316,25.534 C125.175316,25.235 125.175316,24.292 125.198316,23.395 L132.213316,23.395 L132.213316,20.658 L116.458316,20.658 L116.458316,23.395 L122.162316,23.395 C122.139316,24.2 122.116316,25.074 122.093316,25.327 C122.070316,25.856 122.047316,26.385 121.978316,26.868 L115.170316,26.868 L115.170316,29.651 L121.426316,29.651 C120.437316,33.147 118.183316,35.585 113.859316,38.046 L115.975316,40.737 Z M145.402895,40.553 C148.622895,36.712 149.910895,33.285 150.347895,27.949 L150.347895,36.965 C150.347895,39.265 151.083895,39.978 152.923895,39.978 L154.625895,39.978 C156.764895,39.978 157.431895,39.334 157.684895,37.126 C157.753895,36.344 157.891895,35.125 157.891895,34.32 L155.361895,33.63 C155.338895,34.481 155.292895,35.516 155.131895,36.413 C155.016895,37.149 154.671895,37.241 154.234895,37.241 L153.751895,37.241 C153.222895,37.241 152.946895,37.126 152.946895,36.321 L152.946895,27.834 L150.370895,27.719 C150.370895,27.512 150.393895,27.328 150.393895,27.121 L157.178895,27.121 L157.178895,24.315 L154.855895,24.315 L155.959895,22.751 C155.154895,21.831 153.682895,20.52 152.877895,19.83 L151.152895,21.739 C151.865895,22.291 152.946895,23.372 153.797895,24.315 L150.508895,24.315 L150.577895,19.899 L147.840895,19.784 L147.840895,24.315 L145.793895,24.315 L145.793895,26.109 C145.218895,25.097 144.436895,23.924 143.815895,23.188 L142.987895,23.809 L142.987895,19.876 L140.296895,19.761 L140.296895,23.51 L138.019895,23.303 C137.835895,25.672 137.283895,29.099 136.662895,31.422 L138.985895,31.813 C139.491895,29.697 139.997895,26.408 140.296895,23.947 L140.296895,40.277 L142.987895,40.277 L142.987895,26.086 C143.447895,26.845 143.907895,27.696 144.252895,28.34 L145.793895,26.868 L145.793895,27.121 L147.771895,27.121 C147.472895,32.411 146.184895,35.401 143.125895,38.713 L145.402895,40.553 Z M171.748474,40.093 L171.748474,33.63 C173.749474,34.734 176.463474,36.413 178.142474,37.586 L179.476474,34.918 C178.096474,33.975 174.646474,32.158 172.438474,31.169 L171.748474,32.618 L171.748474,30.341 L180.810474,30.341 L180.810474,27.558 L171.702474,27.558 L171.702474,24.913 L178.717474,24.913 L178.717474,22.13 L171.702474,22.13 L171.702474,19.876 L168.804474,19.761 L168.804474,27.558 L160.915474,27.558 L160.915474,30.341 L168.804474,30.341 L168.804474,40.093 L171.748474,40.093 Z" id="path-13"></path>
        <linearGradient x1="0%" y1="50%" x2="100%" y2="50%" id="linearGradient-14">
            <stop stop-color="#513311" offset="0%"></stop>
            <stop stop-color="#7A5931" offset="49.7372161%"></stop>
            <stop stop-color="#533512" offset="100%"></stop>
        </linearGradient>
    </defs>
    <g id="健康卡首页" stroke="none" stroke-width="1" fill="none" fill-rule="evenodd">
        <g id="健康平台首页入口/已登录" transform="translate(-16.000000, -510.000000)">
            <g id="img_ent" transform="translate(16.000000, 510.000000)">
                <g id="bg">
                    <mask id="mask-3" fill="white">
                        <use xlink:href="#path-2"></use>
                    </mask>
                    <use id="Mask" fill="url(#linearGradient-1)" fill-rule="nonzero" xlink:href="#path-2"></use>
                    <path d="M190.5,81 C191.328427,81 192,81.6715729 192,82.5 C192,83.3284271 191.328427,84 190.5,84 C189.671573,84 189,83.3284271 189,82.5 C189,81.6715729 189.671573,81 190.5,81 Z M197.5,81 C198.328427,81 199,81.6715729 199,82.5 C199,83.3284271 198.328427,84 197.5,84 C196.671573,84 196,83.3284271 196,82.5 C196,81.6715729 196.671573,81 197.5,81 Z M204.5,81 C205.328427,81 206,81.6715729 206,82.5 C206,83.3284271 205.328427,84 204.5,84 C203.671573,84 203,83.3284271 203,82.5 C203,81.6715729 203.671573,81 204.5,81 Z M211.5,81 C212.328427,81 213,81.6715729 213,82.5 C213,83.3284271 212.328427,84 211.5,84 C210.671573,84 210,83.3284271 210,82.5 C210,81.6715729 210.671573,81 211.5,81 Z M218.5,81 C219.328427,81 220,81.6715729 220,82.5 C220,83.3284271 219.328427,84 218.5,84 C217.671573,84 217,83.3284271 217,82.5 C217,81.6715729 217.671573,81 218.5,81 Z M225.5,81 C226.328427,81 227,81.6715729 227,82.5 C227,83.3284271 226.328427,84 225.5,84 C224.671573,84 224,83.3284271 224,82.5 C224,81.6715729 224.671573,81 225.5,81 Z M232.5,81 C233.328427,81 234,81.6715729 234,82.5 C234,83.3284271 233.328427,84 232.5,84 C231.671573,84 231,83.3284271 231,82.5 C231,81.6715729 231.671573,81 232.5,81 Z M239.5,81 C240.328427,81 241,81.6715729 241,82.5 C241,83.3284271 240.328427,84 239.5,84 C238.671573,84 238,83.3284271 238,82.5 C238,81.6715729 238.671573,81 239.5,81 Z M197.5,74 C198.328427,74 199,74.6715729 199,75.5 C199,76.3284271 198.328427,77 197.5,77 C196.671573,77 196,76.3284271 196,75.5 C196,74.6715729 196.671573,74 197.5,74 Z M204.5,74 C205.328427,74 206,74.6715729 206,75.5 C206,76.3284271 205.328427,77 204.5,77 C203.671573,77 203,76.3284271 203,75.5 C203,74.6715729 203.671573,74 204.5,74 Z M211.5,74 C212.328427,74 213,74.6715729 213,75.5 C213,76.3284271 212.328427,77 211.5,77 C210.671573,77 210,76.3284271 210,75.5 C210,74.6715729 210.671573,74 211.5,74 Z M218.5,74 C219.328427,74 220,74.6715729 220,75.5 C220,76.3284271 219.328427,77 218.5,77 C217.671573,77 217,76.3284271 217,75.5 C217,74.6715729 217.671573,74 218.5,74 Z M225.5,74 C226.328427,74 227,74.6715729 227,75.5 C227,76.3284271 226.328427,77 225.5,77 C224.671573,77 224,76.3284271 224,75.5 C224,74.6715729 224.671573,74 225.5,74 Z M232.5,74 C233.328427,74 234,74.6715729 234,75.5 C234,76.3284271 233.328427,77 232.5,77 C231.671573,77 231,76.3284271 231,75.5 C231,74.6715729 231.671573,74 232.5,74 Z M239.5,74 C240.328427,74 241,74.6715729 241,75.5 C241,76.3284271 240.328427,77 239.5,77 C238.671573,77 238,76.3284271 238,75.5 C238,74.6715729 238.671573,74 239.5,74 Z M190.5,74 C191.328427,74 192,74.6715729 192,75.5 C192,76.3284271 191.328427,77 190.5,77 C189.671573,77 189,76.3284271 189,75.5 C189,74.6715729 189.671573,74 190.5,74 Z M190.5,67 C191.328427,67 192,67.6715729 192,68.5 C192,69.3284271 191.328427,70 190.5,70 C189.671573,70 189,69.3284271 189,68.5 C189,67.6715729 189.671573,67 190.5,67 Z M211.5,67 C212.328427,67 213,67.6715729 213,68.5 C213,69.3284271 212.328427,70 211.5,70 C210.671573,70 210,69.3284271 210,68.5 C210,67.6715729 210.671573,67 211.5,67 Z M218.5,67 C219.328427,67 220,67.6715729 220,68.5 C220,69.3284271 219.328427,70 218.5,70 C217.671573,70 217,69.3284271 217,68.5 C217,67.6715729 217.671573,67 218.5,67 Z M225.5,67 C226.328427,67 227,67.6715729 227,68.5 C227,69.3284271 226.328427,70 225.5,70 C224.671573,70 224,69.3284271 224,68.5 C224,67.6715729 224.671573,67 225.5,67 Z M232.5,67 C233.328427,67 234,67.6715729 234,68.5 C234,69.3284271 233.328427,70 232.5,70 C231.671573,70 231,69.3284271 231,68.5 C231,67.6715729 231.671573,67 232.5,67 Z M239.5,67 C240.328427,67 241,67.6715729 241,68.5 C241,69.3284271 240.328427,70 239.5,70 C238.671573,70 238,69.3284271 238,68.5 C238,67.6715729 238.671573,67 239.5,67 Z M197.5,67 C198.328427,67 199,67.6715729 199,68.5 C199,69.3284271 198.328427,70 197.5,70 C196.671573,70 196,69.3284271 196,68.5 C196,67.6715729 196.671573,67 197.5,67 Z M204.5,67 C205.328427,67 206,67.6715729 206,68.5 C206,69.3284271 205.328427,70 204.5,70 C203.671573,70 203,69.3284271 203,68.5 C203,67.6715729 203.671573,67 204.5,67 Z M190.5,60 C191.328427,60 192,60.6715729 192,61.5 C192,62.3284271 191.328427,63 190.5,63 C189.671573,63 189,62.3284271 189,61.5 C189,60.6715729 189.671573,60 190.5,60 Z M197.5,60 C198.328427,60 199,60.6715729 199,61.5 C199,62.3284271 198.328427,63 197.5,63 C196.671573,63 196,62.3284271 196,61.5 C196,60.6715729 196.671573,60 197.5,60 Z M204.5,60 C205.328427,60 206,60.6715729 206,61.5 C206,62.3284271 205.328427,63 204.5,63 C203.671573,63 203,62.3284271 203,61.5 C203,60.6715729 203.671573,60 204.5,60 Z M211.5,60 C212.328427,60 213,60.6715729 213,61.5 C213,62.3284271 212.328427,63 211.5,63 C210.671573,63 210,62.3284271 210,61.5 C210,60.6715729 210.671573,60 211.5,60 Z M218.5,60 C219.328427,60 220,60.6715729 220,61.5 C220,62.3284271 219.328427,63 218.5,63 C217.671573,63 217,62.3284271 217,61.5 C217,60.6715729 217.671573,60 218.5,60 Z M225.5,60 C226.328427,60 227,60.6715729 227,61.5 C227,62.3284271 226.328427,63 225.5,63 C224.671573,63 224,62.3284271 224,61.5 C224,60.6715729 224.671573,60 225.5,60 Z M232.5,60 C233.328427,60 234,60.6715729 234,61.5 C234,62.3284271 233.328427,63 232.5,63 C231.671573,63 231,62.3284271 231,61.5 C231,60.6715729 231.671573,60 232.5,60 Z M239.5,60 C240.328427,60 241,60.6715729 241,61.5 C241,62.3284271 240.328427,63 239.5,63 C238.671573,63 238,62.3284271 238,61.5 C238,60.6715729 238.671573,60 239.5,60 Z" id="Combined-Shape" fill="url(#linearGradient-4)" fill-rule="nonzero" opacity="0.600000024" mask="url(#mask-3)"></path>
                    <circle id="Oval" fill="url(#linearGradient-5)" fill-rule="nonzero" opacity="0.300000012" mask="url(#mask-3)" cx="48" cy="0" r="120"></circle>
                    <path d="M14.5,17 C15.3284271,17 16,17.6715729 16,18.5 C16,19.3284271 15.3284271,20 14.5,20 C13.6715729,20 13,19.3284271 13,18.5 C13,17.6715729 13.6715729,17 14.5,17 Z M21.5,17 C22.3284271,17 23,17.6715729 23,18.5 C23,19.3284271 22.3284271,20 21.5,20 C20.6715729,20 20,19.3284271 20,18.5 C20,17.6715729 20.6715729,17 21.5,17 Z M28.5,17 C29.3284271,17 30,17.6715729 30,18.5 C30,19.3284271 29.3284271,20 28.5,20 C27.6715729,20 27,19.3284271 27,18.5 C27,17.6715729 27.6715729,17 28.5,17 Z M35.5,17 C36.3284271,17 37,17.6715729 37,18.5 C37,19.3284271 36.3284271,20 35.5,20 C34.6715729,20 34,19.3284271 34,18.5 C34,17.6715729 34.6715729,17 35.5,17 Z M42.5,17 C43.3284271,17 44,17.6715729 44,18.5 C44,19.3284271 43.3284271,20 42.5,20 C41.6715729,20 41,19.3284271 41,18.5 C41,17.6715729 41.6715729,17 42.5,17 Z M49.5,17 C50.3284271,17 51,17.6715729 51,18.5 C51,19.3284271 50.3284271,20 49.5,20 C48.6715729,20 48,19.3284271 48,18.5 C48,17.6715729 48.6715729,17 49.5,17 Z M56.5,17 C57.3284271,17 58,17.6715729 58,18.5 C58,19.3284271 57.3284271,20 56.5,20 C55.6715729,20 55,19.3284271 55,18.5 C55,17.6715729 55.6715729,17 56.5,17 Z M63.5,17 C64.3284271,17 65,17.6715729 65,18.5 C65,19.3284271 64.3284271,20 63.5,20 C62.6715729,20 62,19.3284271 62,18.5 C62,17.6715729 62.6715729,17 63.5,17 Z M21.5,10 C22.3284271,10 23,10.6715729 23,11.5 C23,12.3284271 22.3284271,13 21.5,13 C20.6715729,13 20,12.3284271 20,11.5 C20,10.6715729 20.6715729,10 21.5,10 Z M28.5,10 C29.3284271,10 30,10.6715729 30,11.5 C30,12.3284271 29.3284271,13 28.5,13 C27.6715729,13 27,12.3284271 27,11.5 C27,10.6715729 27.6715729,10 28.5,10 Z M35.5,10 C36.3284271,10 37,10.6715729 37,11.5 C37,12.3284271 36.3284271,13 35.5,13 C34.6715729,13 34,12.3284271 34,11.5 C34,10.6715729 34.6715729,10 35.5,10 Z M42.5,10 C43.3284271,10 44,10.6715729 44,11.5 C44,12.3284271 43.3284271,13 42.5,13 C41.6715729,13 41,12.3284271 41,11.5 C41,10.6715729 41.6715729,10 42.5,10 Z M49.5,10 C50.3284271,10 51,10.6715729 51,11.5 C51,12.3284271 50.3284271,13 49.5,13 C48.6715729,13 48,12.3284271 48,11.5 C48,10.6715729 48.6715729,10 49.5,10 Z M56.5,10 C57.3284271,10 58,10.6715729 58,11.5 C58,12.3284271 57.3284271,13 56.5,13 C55.6715729,13 55,12.3284271 55,11.5 C55,10.6715729 55.6715729,10 56.5,10 Z M63.5,10 C64.3284271,10 65,10.6715729 65,11.5 C65,12.3284271 64.3284271,13 63.5,13 C62.6715729,13 62,12.3284271 62,11.5 C62,10.6715729 62.6715729,10 63.5,10 Z M14.5,10 C15.3284271,10 16,10.6715729 16,11.5 C16,12.3284271 15.3284271,13 14.5,13 C13.6715729,13 13,12.3284271 13,11.5 C13,10.6715729 13.6715729,10 14.5,10 Z M14.5,3 C15.3284271,3 16,3.67157288 16,4.5 C16,5.32842712 15.3284271,6 14.5,6 C13.6715729,6 13,5.32842712 13,4.5 C13,3.67157288 13.6715729,3 14.5,3 Z M35.5,3 C36.3284271,3 37,3.67157288 37,4.5 C37,5.32842712 36.3284271,6 35.5,6 C34.6715729,6 34,5.32842712 34,4.5 C34,3.67157288 34.6715729,3 35.5,3 Z M42.5,3 C43.3284271,3 44,3.67157288 44,4.5 C44,5.32842712 43.3284271,6 42.5,6 C41.6715729,6 41,5.32842712 41,4.5 C41,3.67157288 41.6715729,3 42.5,3 Z M49.5,3 C50.3284271,3 51,3.67157288 51,4.5 C51,5.32842712 50.3284271,6 49.5,6 C48.6715729,6 48,5.32842712 48,4.5 C48,3.67157288 48.6715729,3 49.5,3 Z M56.5,3 C57.3284271,3 58,3.67157288 58,4.5 C58,5.32842712 57.3284271,6 56.5,6 C55.6715729,6 55,5.32842712 55,4.5 C55,3.67157288 55.6715729,3 56.5,3 Z M63.5,3 C64.3284271,3 65,3.67157288 65,4.5 C65,5.32842712 64.3284271,6 63.5,6 C62.6715729,6 62,5.32842712 62,4.5 C62,3.67157288 62.6715729,3 63.5,3 Z M21.5,3 C22.3284271,3 23,3.67157288 23,4.5 C23,5.32842712 22.3284271,6 21.5,6 C20.6715729,6 20,5.32842712 20,4.5 C20,3.67157288 20.6715729,3 21.5,3 Z M28.5,3 C29.3284271,3 30,3.67157288 30,4.5 C30,5.32842712 29.3284271,6 28.5,6 C27.6715729,6 27,5.32842712 27,4.5 C27,3.67157288 27.6715729,3 28.5,3 Z M14.5,-4 C15.3284271,-4 16,-3.32842712 16,-2.5 C16,-1.67157288 15.3284271,-1 14.5,-1 C13.6715729,-1 13,-1.67157288 13,-2.5 C13,-3.32842712 13.6715729,-4 14.5,-4 Z M21.5,-4 C22.3284271,-4 23,-3.32842712 23,-2.5 C23,-1.67157288 22.3284271,-1 21.5,-1 C20.6715729,-1 20,-1.67157288 20,-2.5 C20,-3.32842712 20.6715729,-4 21.5,-4 Z M28.5,-4 C29.3284271,-4 30,-3.32842712 30,-2.5 C30,-1.67157288 29.3284271,-1 28.5,-1 C27.6715729,-1 27,-1.67157288 27,-2.5 C27,-3.32842712 27.6715729,-4 28.5,-4 Z M35.5,-4 C36.3284271,-4 37,-3.32842712 37,-2.5 C37,-1.67157288 36.3284271,-1 35.5,-1 C34.6715729,-1 34,-1.67157288 34,-2.5 C34,-3.32842712 34.6715729,-4 35.5,-4 Z M42.5,-4 C43.3284271,-4 44,-3.32842712 44,-2.5 C44,-1.67157288 43.3284271,-1 42.5,-1 C41.6715729,-1 41,-1.67157288 41,-2.5 C41,-3.32842712 41.6715729,-4 42.5,-4 Z M49.5,-4 C50.3284271,-4 51,-3.32842712 51,-2.5 C51,-1.67157288 50.3284271,-1 49.5,-1 C48.6715729,-1 48,-1.67157288 48,-2.5 C48,-3.32842712 48.6715729,-4 49.5,-4 Z M56.5,-4 C57.3284271,-4 58,-3.32842712 58,-2.5 C58,-1.67157288 57.3284271,-1 56.5,-1 C55.6715729,-1 55,-1.67157288 55,-2.5 C55,-3.32842712 55.6715729,-4 56.5,-4 Z M63.5,-4 C64.3284271,-4 65,-3.32842712 65,-2.5 C65,-1.67157288 64.3284271,-1 63.5,-1 C62.6715729,-1 62,-1.67157288 62,-2.5 C62,-3.32842712 62.6715729,-4 63.5,-4 Z" id="Combined-Shape" fill="url(#linearGradient-6)" fill-rule="nonzero" mask="url(#mask-3)"></path>
                    <g id="王冠" opacity="0.400000006" style="mix-blend-mode: hard-light;" mask="url(#mask-3)" fill-rule="nonzero">
                        <g transform="translate(251.000000, 35.000000)">
                            <polygon id="Rectangle-Copy-3" fill="url(#linearGradient-7)" points="80 10 80 50 40 50"></polygon>
                            <polygon id="Rectangle" fill="url(#linearGradient-8)" points="40 0 80 50 0 50"></polygon>
                            <polygon id="Rectangle" fill="url(#linearGradient-9)" points="0 10 40 50 0 50"></polygon>
                        </g>
                    </g>
                    <g id="Group-17" mask="url(#mask-3)">
                        <g transform="translate(263.000000, 25.000000)">
                            <rect id="Rectangle" fill="url(#linearGradient-10)" fill-rule="nonzero" x="0" y="0" width="64" height="30" rx="4"></rect>
                            <path d="M19.192,21.103 L20.245,20.375 C19.543,19.127 18.529,17.658 17.203,15.968 L16.215,16.605 C16.839,17.437 17.411,18.23 17.931,19.01 C16.735,19.127 14.746,19.296 11.951,19.504 C12.809,18.607 13.654,17.294 14.486,15.552 L20.635,15.552 L20.635,14.343 L15.448,14.343 L15.448,12.198 L19.803,12.198 L19.803,11.002 L15.448,11.002 L15.448,9.039 L14.2,9.039 L14.2,11.002 L9.819,11.002 L9.819,12.198 L14.2,12.198 L14.2,14.343 L9,14.343 L9,15.552 L13.121,15.552 C12.003,17.71 10.898,19.088 9.832,19.66 L10.053,20.661 C12.731,20.518 15.578,20.31 18.581,20.037 C18.789,20.401 18.997,20.752 19.192,21.103 Z M25.562,21.025 L25.562,20.531 L31.191,20.531 L31.191,21.025 L32.361,21.025 L32.361,14.746 L26.056,14.746 C26.225,14.538 26.394,14.317 26.576,14.096 L33.596,14.096 L33.596,13.004 L27.304,13.004 C27.434,12.796 27.551,12.575 27.681,12.354 L32.842,12.354 L32.842,11.301 L28.175,11.301 C28.266,11.067 28.357,10.82 28.448,10.56 C30.086,10.43 31.529,10.235 32.764,9.975 L32.192,9 C29.696,9.481 26.602,9.728 22.936,9.728 L23.287,10.742 C24.691,10.742 26.017,10.703 27.239,10.638 C27.148,10.859 27.057,11.08 26.953,11.301 L22.858,11.301 L22.858,12.354 L26.381,12.354 C26.251,12.562 26.095,12.783 25.939,13.004 L22.156,13.004 L22.156,14.096 L25.055,14.096 C24.171,15.058 23.092,15.981 21.818,16.839 L22.481,17.892 C23.157,17.424 23.794,16.943 24.392,16.423 L24.392,21.025 L25.562,21.025 Z M31.191,16.384 L25.562,16.384 L25.562,15.747 L31.191,15.747 L31.191,16.384 Z M31.191,17.931 L25.562,17.931 L25.562,17.32 L31.191,17.32 L31.191,17.931 Z M31.191,19.53 L25.562,19.53 L25.562,18.867 L31.191,18.867 L31.191,19.53 Z M38.562,21.025 L38.562,20.531 L44.191,20.531 L44.191,21.025 L45.361,21.025 L45.361,14.746 L39.056,14.746 C39.225,14.538 39.394,14.317 39.576,14.096 L46.596,14.096 L46.596,13.004 L40.304,13.004 C40.434,12.796 40.551,12.575 40.681,12.354 L45.842,12.354 L45.842,11.301 L41.175,11.301 C41.266,11.067 41.357,10.82 41.448,10.56 C43.086,10.43 44.529,10.235 45.764,9.975 L45.192,9 C42.696,9.481 39.602,9.728 35.936,9.728 L36.287,10.742 C37.691,10.742 39.017,10.703 40.239,10.638 C40.148,10.859 40.057,11.08 39.953,11.301 L35.858,11.301 L35.858,12.354 L39.381,12.354 C39.251,12.562 39.095,12.783 38.939,13.004 L35.156,13.004 L35.156,14.096 L38.055,14.096 C37.171,15.058 36.092,15.981 34.818,16.839 L35.481,17.892 C36.157,17.424 36.794,16.943 37.392,16.423 L37.392,21.025 L38.562,21.025 Z M44.191,16.384 L38.562,16.384 L38.562,15.747 L44.191,15.747 L44.191,16.384 Z M44.191,17.931 L38.562,17.931 L38.562,17.32 L44.191,17.32 L44.191,17.931 Z M44.191,19.53 L38.562,19.53 L38.562,18.867 L44.191,18.867 L44.191,19.53 Z" id="去看看" fill="#99641E" fill-rule="nonzero"></path>
                            <g filter="url(#filter-11)" fill="none" fill-rule="evenodd" id="图标/箭头/右" stroke-width="1">
                                <g transform="translate(50.000000, 10.000000)">
                                    <path d="M-0.768670944,2.52367094 L3.11977567,6.41222433 L7.00950365,2.52367094 C7.20476579,2.3284088 7.52134828,2.3284088 7.71661043,2.52367094 C7.91187258,2.71893309 7.91187258,3.03551558 7.71661043,3.23077773 L3.47396974,7.47341841 L3.47396974,7.47341841 C3.40888236,7.53850579 3.33031494,7.58189738 3.24725417,7.60359318 L3.16302847,7.61805704 L3.16302847,7.61805704 L3.07780424,7.61805704 C2.96439383,7.60841446 2.85364614,7.56020159 2.76686296,7.47341841 L-1.47577773,3.23077773 C-1.67103987,3.03551558 -1.67103987,2.71893309 -1.47577773,2.52367094 C-1.28051558,2.3284088 -0.96393309,2.3284088 -0.768670944,2.52367094 Z" id="Combined-Shape" fill="#99641E" fill-rule="nonzero" transform="translate(3.120416, 4.997641) rotate(-90.000000) translate(-3.120416, -4.997641) "></path>
                                </g>
                            </g>
                        </g>
                    </g>
                </g>
                <g id="袋鼠健康无忧卡" fill-rule="nonzero">
                    <use fill="#EBD0A9" xlink:href="#path-13"></use>
                    <use fill="url(#linearGradient-12)" xlink:href="#path-13"></use>
                </g>
                <g id="Group-14" transform="translate(189.000000, 20.000000)" fill-rule="nonzero">
                    <path d="M2.5638852,-1.03584031e-16 L37.4361148,1.03584031e-16 C38.3276335,-6.01853049e-17 38.6509198,0.0928256111 38.9768457,0.267132704 C39.3027716,0.441439796 39.5585602,0.697228371 39.7328673,1.0231543 C39.9071744,1.34908022 40,1.67236646 40,2.5638852 L40,17.4361148 C40,18.3276335 39.9071744,18.6509198 39.7328673,18.9768457 C39.5585602,19.3027716 39.3027716,19.5585602 38.9768457,19.7328673 C38.6509198,19.9071744 38.3276335,20 37.4361148,20 L2.5638852,20 C1.67236646,20 1.34908022,19.9071744 1.0231543,19.7328673 C0.697228371,19.5585602 0.441439796,19.3027716 0.267132704,18.9768457 C0.0928256111,18.6509198 4.01235366e-17,18.3276335 -6.90560205e-17,17.4361148 L6.90560205e-17,2.5638852 C-4.01235366e-17,1.67236646 0.0928256111,1.34908022 0.267132704,1.0231543 C0.441439796,0.697228371 0.697228371,0.441439796 1.0231543,0.267132704 C1.34908022,0.0928256111 1.67236646,6.01853049e-17 2.5638852,-1.03584031e-16 Z" id="Rectangle" fill-opacity="0.8" fill="url(#linearGradient-14)"></path>
                    <path d="M11.8,14.781 C12.251,14.759 12.603,14.627 12.867,14.385 C13.098,14.132 13.285,13.307 13.417,11.921 L12.394,11.591 C12.328,12.746 12.218,13.406 12.042,13.571 C11.888,13.703 11.701,13.769 11.503,13.769 L6.014,13.769 C5.596,13.769 5.387,13.56 5.387,13.142 L5.387,10.117 L12.207,10.117 L12.207,5.497 L3.88,5.497 L3.88,6.498 L11.14,6.498 L11.14,9.116 L5.387,9.116 L5.387,7.609 L4.331,7.609 L4.331,13.329 C4.331,14.297 4.793,14.781 5.728,14.781 L11.8,14.781 Z M15.5807895,15.111 C16.5597895,14.616 17.2637895,13.901 17.6817895,12.977 C18.0117895,12.24 18.2207895,11.327 18.3307895,10.227 L21.2787895,10.227 L21.2787895,14.99 L22.3237895,14.99 L22.3237895,10.227 L24.6447895,10.227 L24.6447895,9.215 L22.3237895,9.215 L22.3237895,6.575 L24.0837895,6.575 L24.0837895,5.563 L15.4157895,5.563 L15.4157895,6.575 L17.3517895,6.575 L17.3517895,8.973 C17.3517895,9.039 17.3407895,9.127 17.3407895,9.215 L14.8437895,9.215 L14.8437895,10.227 L17.2637895,10.227 C17.1757895,11.008 17.0327895,11.69 16.8237895,12.262 C16.5047895,13.054 15.8997895,13.714 15.0197895,14.231 L15.5807895,15.111 Z M21.2787895,9.215 L18.3967895,9.215 C18.3967895,9.138 18.4077895,9.061 18.4077895,8.973 L18.4077895,6.575 L21.2787895,6.575 L21.2787895,9.215 Z M28.1835789,7.554 L28.9205789,6.828 C28.4145789,6.256 27.7875789,5.673 27.0395789,5.09 L26.3245789,5.772 C27.1275789,6.41 27.7435789,7.004 28.1835789,7.554 Z M30.5265789,13.45 L30.5265789,11.624 L32.0775789,11.624 L32.0775789,13.428 L33.0345789,13.428 L33.0345789,11.624 L34.6185789,11.624 L34.6185789,12.185 C34.6185789,12.427 34.4865789,12.548 34.2445789,12.548 L33.4635789,12.504 L33.6835789,13.373 L34.5305789,13.373 C35.2455789,13.373 35.6085789,13.043 35.6085789,12.394 L35.6085789,7.51 L33.3975789,7.51 L33.3315789,7.455 L33.3315789,7.455 C34.0575789,7.059 34.7395789,6.597 35.3775789,6.047 L35.3775789,5.31 L29.3385789,5.31 L29.3385789,6.179 L31.4615789,6.179 L30.8455789,6.773 C31.2965789,7.015 31.7035789,7.268 32.0665789,7.51 L29.5365789,7.51 L29.5365789,13.45 L30.5265789,13.45 Z M32.6935789,6.96 C32.3305789,6.696 31.9345789,6.443 31.5165789,6.179 L33.9805789,6.179 C33.5845789,6.465 33.1555789,6.729 32.6935789,6.96 Z M34.6185789,9.149 L33.0345789,9.149 L33.0345789,8.379 L34.6185789,8.379 L34.6185789,9.149 Z M32.0775789,9.149 L30.5265789,9.149 L30.5265789,8.379 L32.0775789,8.379 L32.0775789,9.149 Z M26.8745789,15.177 C27.4355789,14.187 27.8315789,13.692 28.0625789,13.692 C28.1945789,13.692 28.3265789,13.78 28.4805789,13.967 C28.8105789,14.341 29.1955789,14.605 29.6355789,14.737 C30.0975789,14.847 30.6805789,14.913 31.3955789,14.924 C32.0995789,14.935 32.7595789,14.946 33.3645789,14.946 L35.8725789,14.946 L36.1255789,13.912 C35.8285789,13.934 35.3995789,13.956 34.8495789,13.967 C34.2995789,13.978 33.7495789,13.989 33.2105789,13.989 C32.3525789,13.989 31.6155789,13.978 30.9885789,13.967 C30.3395789,13.945 29.8555789,13.846 29.5255789,13.692 C29.2505789,13.549 28.9865789,13.329 28.7335789,13.032 C28.6785789,12.966 28.6235789,12.911 28.5685789,12.867 L28.5685789,8.709 L26.1155789,8.709 L26.1155789,9.677 L27.5895789,9.677 L27.5895789,12.79 C27.1495789,13.01 26.6545789,13.571 26.1045789,14.462 L26.8745789,15.177 Z M32.0775789,10.777 L30.5265789,10.777 L30.5265789,10.007 L32.0775789,10.007 L32.0775789,10.777 Z M34.6185789,10.777 L33.0345789,10.777 L33.0345789,10.007 L34.6185789,10.007 L34.6185789,10.777 Z" id="已开通" fill="#FAE6C8"></path>
                </g>
            </g>
        </g>
    </g>
</svg>