<?xml version="1.0" encoding="UTF-8"?>
<svg width="24px" height="24px" viewBox="0 0 24 24" version="1.1" xmlns="http://www.w3.org/2000/svg" xmlns:xlink="http://www.w3.org/1999/xlink">
    <!-- Generator: Sketch 64 (93537) - https://sketch.com -->
    <title>mine_order_1</title>
    <desc>Created with Sketch.</desc>
    <defs>
        <linearGradient x1="21.5850411%" y1="20.4561293%" x2="78.2653814%" y2="77.9683205%" id="linearGradient-1">
            <stop stop-color="#FFB414" offset="0%"></stop>
            <stop stop-color="#FA9716" offset="100%"></stop>
        </linearGradient>
    </defs>
    <g id="个人中心" stroke="none" stroke-width="1" fill="none" fill-rule="evenodd">
        <g id="我的" transform="translate(-38.000000, -316.000000)" fill-rule="nonzero">
            <g id="我的订单" transform="translate(0.000000, 262.000000)">
                <g id="Group-3" transform="translate(32.000000, 54.000000)">
                    <g id="1" transform="translate(6.000000, 0.000000)">
                        <path d="M24,9 L24,20 C24,21.1045695 23.1045695,22 22,22 L2,22 C0.8954305,22 1.3527075e-16,21.1045695 0,20 L0,9 L24,9 Z M0,4 C-1.3527075e-16,2.8954305 0.8954305,2 2,2 L22,2 C23.1045695,2 24,2.8954305 24,4 L24,7 L0,7 L0,4 Z" id="Combined-Shape" fill="url(#linearGradient-1)"></path>
                        <rect id="Rectangle" fill="#FFFFFF" x="17" y="17" width="2" height="2" rx="1"></rect>
                        <rect id="Rectangle-Copy-5" fill="#FFFFFF" x="14" y="17" width="2" height="2" rx="1"></rect>
                        <rect id="Rectangle-Copy-4" fill="#FFFFFF" x="20" y="17" width="2" height="2" rx="1"></rect>
                    </g>
                </g>
            </g>
        </g>
    </g>
</svg>