<?xml version="1.0" encoding="UTF-8"?>
<svg width="24px" height="24px" viewBox="0 0 24 24" version="1.1" xmlns="http://www.w3.org/2000/svg" xmlns:xlink="http://www.w3.org/1999/xlink">
    <!-- Generator: Sketch 64 (93537) - https://sketch.com -->
    <title>mine_icon_foot</title>
    <desc>Created with Sketch.</desc>
    <g id="个人中心" stroke="none" stroke-width="1" fill="none" fill-rule="evenodd">
        <g id="我的" transform="translate(-107.000000, -594.000000)" fill-rule="nonzero">
            <g id="常用工具" transform="translate(0.000000, 544.000000)">
                <g id="Group-8" transform="translate(32.000000, 50.000000)">
                    <g id="足迹" transform="translate(75.000000, 0.000000)">
                        <path d="M5.69951463,8.61030462 C6.19021986,6.93840457 7.64210064,4.88065389 13.968002,5.7454551 C19.2064814,6.46159705 20.5239646,10.6060661 20.2033748,13.5964527 C19.6638213,18.629282 15.9783341,23.7434335 10.5074133,23 C5.70937496,22.3480032 6.8738981,17.8547941 7,15.6749014 C7.19949286,12.2263171 5,10.993647 5.69951463,8.61030462 Z" id="Path-6" stroke="#262626" stroke-width="1.4" stroke-linecap="round" stroke-linejoin="round"></path>
                        <circle id="Oval" stroke="#262626" stroke-width="1.4" stroke-linecap="round" stroke-linejoin="round" cx="5" cy="3" r="2"></circle>
                        <path d="M10.3971621,1.30638094 C15.361073,0.631515039 20.1170387,2.83674432 22.1068709,6.57511977 C22.2885179,6.91638711 22.15912,7.34029296 21.8178527,7.52193997 C21.4765854,7.70358699 21.0526795,7.57418914 20.8710325,7.2329218 C19.1673833,4.03220945 14.9893132,2.09493674 10.5857634,2.69361906 C10.2026881,2.74569985 9.84992448,2.47737584 9.79784369,2.09430062 C9.7457629,1.71122539 10.0140869,1.35846174 10.3971621,1.30638094 Z" id="Path-7" fill="#F5181B"></path>
                    </g>
                </g>
            </g>
        </g>
    </g>
</svg>