<?xml version="1.0" encoding="UTF-8"?>
<svg width="24px" height="24px" viewBox="0 0 24 24" version="1.1" xmlns="http://www.w3.org/2000/svg" xmlns:xlink="http://www.w3.org/1999/xlink">
    <!-- Generator: Sketch 64 (93537) - https://sketch.com -->
    <title>mine_order_5</title>
    <desc>Created with Sketch.</desc>
    <defs>
        <linearGradient x1="32.1913192%" y1="7.45682621%" x2="67.7149352%" y2="90.2743816%" id="linearGradient-1">
            <stop stop-color="#FFB414" offset="0%"></stop>
            <stop stop-color="#FA9716" offset="100%"></stop>
        </linearGradient>
    </defs>
    <g id="个人中心" stroke="none" stroke-width="1" fill="none" fill-rule="evenodd">
        <g id="我的" transform="translate(-314.000000, -316.000000)" fill="url(#linearGradient-1)" fill-rule="nonzero">
            <g id="我的订单" transform="translate(0.000000, 262.000000)">
                <g id="Group-3" transform="translate(32.000000, 54.000000)">
                    <g id="5" transform="translate(282.000000, 0.000000)">
                        <path d="M16.6902944,2.18091575 L19.5,2.18181818 C20.6045695,2.18181818 21.5,3.07724868 21.5,4.18181818 L21.5,22 C21.5,23.1045695 20.6045695,24 19.5,24 L4.5,24 C3.3954305,24 2.5,23.1045695 2.5,22 L2.5,4.18181818 C2.5,3.07724868 3.3954305,2.18181818 4.5,2.18181818 L7.30970563,2.18091575 C8.09877744,3.46569211 9.90187463,4.36363636 12,4.36363636 C14.0981254,4.36363636 15.9012226,3.46569211 16.6902944,2.18091575 Z M14.25,14 L7.75,14 C7.33578644,14 7,14.3357864 7,14.75 C7,15.1642136 7.33578644,15.5 7.75,15.5 L7.75,15.5 L14.25,15.5 C14.6642136,15.5 15,15.1642136 15,14.75 C15,14.3357864 14.6642136,14 14.25,14 L14.25,14 Z M16.25,10 L7.75,10 C7.33578644,10 7,10.3357864 7,10.75 C7,11.1642136 7.33578644,11.5 7.75,11.5 L7.75,11.5 L16.25,11.5 C16.6642136,11.5 17,11.1642136 17,10.75 C17,10.3357864 16.6642136,10 16.25,10 L16.25,10 Z M12.0084353,0 C14.0263988,0 15.6538462,0.343192131 15.6538462,1.1465154 C15.6538462,1.94983868 14.0263988,2.90909091 12.0084353,2.90909091 C9.99047182,2.90909091 8.34615385,1.94983868 8.34615385,1.1465154 C8.34615385,0.343192131 9.99047182,0 12.0084353,0 Z" id="Combined-Shape"></path>
                    </g>
                </g>
            </g>
        </g>
    </g>
</svg>