<?xml version="1.0" encoding="UTF-8"?>
<svg width="24px" height="24px" viewBox="0 0 24 24" version="1.1" xmlns="http://www.w3.org/2000/svg" xmlns:xlink="http://www.w3.org/1999/xlink">
    <!-- Generator: Sketch 64 (93537) - https://sketch.com -->
    <title>mine_order_2</title>
    <desc>Created with Sketch.</desc>
    <defs>
        <linearGradient x1="24.0021926%" y1="7.45682621%" x2="75.8609539%" y2="90.2743816%" id="linearGradient-1">
            <stop stop-color="#FFB414" offset="0%"></stop>
            <stop stop-color="#FA9716" offset="100%"></stop>
        </linearGradient>
    </defs>
    <g id="个人中心" stroke="none" stroke-width="1" fill="none" fill-rule="evenodd">
        <g id="我的" transform="translate(-107.000000, -316.000000)" fill-rule="nonzero">
            <g id="我的订单" transform="translate(0.000000, 262.000000)">
                <g id="Group-3" transform="translate(32.000000, 54.000000)">
                    <g id="2" transform="translate(75.000000, 0.000000)">
                        <path d="M19,14 C21.7614237,14 24,16.2385763 24,19 C24,21.7614237 21.7614237,24 19,24 C16.2385763,24 14,21.7614237 14,19 C14,16.2385763 16.2385763,14 19,14 Z M20,1 C21.1045695,1 22,1.8954305 22,3 L22.000963,13.8032504 C21.1182253,13.2923955 20.093259,13 19,13 C15.6862915,13 13,15.6862915 13,19 C13,20.5371282 13.5780225,21.939252 14.5285648,23.0008689 L4,23 C2.8954305,23 2,22.1045695 2,21 L2,3 C2,1.8954305 2.8954305,1 4,1 L20,1 Z M12.25,10 L5.75,10 C5.33578644,10 5,10.3357864 5,10.75 C5,11.1296958 5.28215388,11.443491 5.64822944,11.4931534 L5.75,11.5 L12.25,11.5 C12.6642136,11.5 13,11.1642136 13,10.75 C13,10.3357864 12.6642136,10 12.25,10 Z M16.25,6 L5.75,6 C5.33578644,6 5,6.33578644 5,6.75 C5,7.12969577 5.28215388,7.44349096 5.64822944,7.49315338 L5.75,7.5 L16.25,7.5 C16.6642136,7.5 17,7.16421356 17,6.75 C17,6.33578644 16.6642136,6 16.25,6 Z" id="Combined-Shape" fill="url(#linearGradient-1)"></path>
                        <polyline id="Path-2" stroke="#FFFFFF" stroke-linecap="round" stroke-linejoin="round" points="19 16.4523953 19 19 20.9852306 20.5583498"></polyline>
                    </g>
                </g>
            </g>
        </g>
    </g>
</svg>