<?xml version="1.0" encoding="UTF-8"?>
<svg width="24px" height="24px" viewBox="0 0 24 24" version="1.1" xmlns="http://www.w3.org/2000/svg" xmlns:xlink="http://www.w3.org/1999/xlink">
    <!-- Generator: Sketch 64 (93537) - https://sketch.com -->
    <title>mine_order_4</title>
    <desc>Created with Sketch.</desc>
    <defs>
        <linearGradient x1="21.5850411%" y1="7.45682621%" x2="78.2653814%" y2="90.2743816%" id="linearGradient-1">
            <stop stop-color="#FFB414" offset="0%"></stop>
            <stop stop-color="#FA9716" offset="100%"></stop>
        </linearGradient>
    </defs>
    <g id="个人中心" stroke="none" stroke-width="1" fill="none" fill-rule="evenodd">
        <g id="我的" transform="translate(-245.000000, -316.000000)" fill-rule="nonzero">
            <g id="我的订单" transform="translate(0.000000, 262.000000)">
                <g id="Group-3" transform="translate(32.000000, 54.000000)">
                    <g id="4" transform="translate(213.000000, 0.000000)">
                        <path d="M13,1 C19.0751322,1 24,5.92486775 24,12 C24,18.0751322 19.0751322,23 13,23 C6.92486775,23 2,18.0751322 2,12 C2,5.92486775 6.92486775,1 13,1 Z M16.3300951,6.26316828 C16.0364836,6.04531382 15.61982,6.06951988 15.3535534,6.33578644 L15.3535534,6.33578644 L13,8.68911652 L10.6464466,6.33578644 C10.3535534,6.04289322 9.87867966,6.04289322 9.58578644,6.33578644 C9.29289322,6.62867966 9.29289322,7.10355339 9.58578644,7.39644661 L9.58578644,7.39644661 L12.0606602,9.87132034 C12.1130452,9.9237054 12.1712516,9.96672118 12.2331969,10.0003677 L12.2331969,10.0003677 L9.75,10 C9.33578644,10 9,10.3357864 9,10.75 C9,11.1642136 9.33578644,11.5 9.75,11.5 L9.75,11.5 L12.25,11.4991165 L12.25,12.9991165 L9.75,13 C9.33578644,13 9,13.3357864 9,13.75 C9,14.1642136 9.33578644,14.5 9.75,14.5 L9.75,14.5 L12.25,14.4991165 L12.25,17.25 C12.25,17.6642136 12.5857864,18 13,18 C13.4142136,18 13.75,17.6642136 13.75,17.25 L13.75,17.25 L13.75,14.4991165 L16.25,14.5 C16.6642136,14.5 17,14.1642136 17,13.75 C17,13.3357864 16.6642136,13 16.25,13 L16.25,13 L13.75,12.9991165 L13.75,11.4991165 L16.25,11.5 C16.6642136,11.5 17,11.1642136 17,10.75 C17,10.3357864 16.6642136,10 16.25,10 L16.25,10 L13.7668031,10.0003677 C13.8287484,9.96672118 13.8869548,9.9237054 13.9393398,9.87132034 L13.9393398,9.87132034 L16.4142136,7.39644661 L16.4868317,7.31232818 C16.7046862,7.01871668 16.6804801,6.602053 16.4142136,6.33578644 L16.4142136,6.33578644 Z" id="Combined-Shape" fill="url(#linearGradient-1)"></path>
                        <path d="M6.26859525,1.1894774 C5.55966351,1.66407104 4.90001633,2.20654918 4.29895367,2.80761184 C3.10150587,4.00505964 2.13657607,5.43502543 1.47769894,7.02397452 L1,4.10672596" id="Path" stroke="#FFB314" stroke-width="1.5" stroke-linecap="round" stroke-linejoin="round" transform="translate(3.634298, 4.106726) rotate(1.000000) translate(-3.634298, -4.106726) "></path>
                    </g>
                </g>
            </g>
        </g>
    </g>
</svg>