<?xml version="1.0" encoding="UTF-8"?>
<svg width="32px" height="32px" viewBox="0 0 32 32" version="1.1" xmlns="http://www.w3.org/2000/svg" xmlns:xlink="http://www.w3.org/1999/xlink">
    <!-- Generator: Sketch 64 (93537) - https://sketch.com -->
    <title>mine_icon_drug</title>
    <desc>Created with Sketch.</desc>
    <defs>
        <linearGradient x1="50%" y1="0%" x2="50%" y2="89.3773333%" id="linearGradient-1">
            <stop stop-color="#FFB414" offset="0%"></stop>
            <stop stop-color="#FA9805" offset="100%"></stop>
        </linearGradient>
        <circle id="path-2" cx="16" cy="16" r="16"></circle>
        <filter x="-36.4%" y="-34.8%" width="172.7%" height="169.6%" filterUnits="objectBoundingBox" id="filter-4">
            <feOffset dx="0" dy="1" in="SourceAlpha" result="shadowOffsetOuter1"></feOffset>
            <feGaussianBlur stdDeviation="1.5" in="shadowOffsetOuter1" result="shadowBlurOuter1"></feGaussianBlur>
            <feColorMatrix values="0 0 0 0 0.8   0 0 0 0 0.466666667   0 0 0 0 0  0 0 0 0.3 0" type="matrix" in="shadowBlurOuter1" result="shadowMatrixOuter1"></feColorMatrix>
            <feMerge>
                <feMergeNode in="shadowMatrixOuter1"></feMergeNode>
                <feMergeNode in="SourceGraphic"></feMergeNode>
            </feMerge>
        </filter>
        <rect id="path-5" x="0" y="0" width="22" height="18" rx="2.75"></rect>
    </defs>
    <g id="个人中心" stroke="none" stroke-width="1" fill="none" fill-rule="evenodd">
        <g id="我的" transform="translate(-241.000000, -451.000000)">
            <g id="健康服务" transform="translate(0.000000, 401.000000)">
                <g id="Group-7" transform="translate(25.000000, 50.000000)">
                    <g id="4" transform="translate(216.000000, 0.000000)">
                        <mask id="mask-3" fill="white">
                            <use xlink:href="#path-2"></use>
                        </mask>
                        <use id="Oval" fill="url(#linearGradient-1)" fill-rule="nonzero" xlink:href="#path-2"></use>
                        <g id="Group" filter="url(#filter-4)" mask="url(#mask-3)">
                            <g transform="translate(5.000000, 10.000000)">
                                <path d="M13.75,0 C15.4098129,0 16.7643362,1.3071001 16.8403826,2.94811295 L16.84375,3.09375 L16.84375,4.46875 C16.84375,5.03829365 16.3820436,5.5 15.8125,5.5 C15.2764589,5.5 14.8359415,5.09101444 14.7859708,4.56806626 L14.78125,4.46875 L14.78125,3.09375 C14.78125,2.55770892 14.3722644,2.11719153 13.8493163,2.06722077 L13.75,2.0625 L8.25,2.0625 C7.71395892,2.0625 7.27344153,2.47148556 7.22347077,2.99443374 L7.21875,3.09375 L7.21875,4.46875 C7.21875,5.03829365 6.75704365,5.5 6.1875,5.5 C5.65145892,5.5 5.21094153,5.09101444 5.16097077,4.56806626 L5.15625,4.46875 L5.15625,3.09375 C5.15625,1.43393708 6.4633501,0.0794137516 8.10436295,0.00336736778 L8.25,0 L13.75,0 Z" id="Path" fill="#FFFFFF" fill-rule="nonzero" opacity="0.699999988"></path>
                                <g id="Group-4" stroke-width="1" fill="none" fill-rule="evenodd" transform="translate(0.000000, 4.468750)">
                                    <mask id="mask-6" fill="white">
                                        <use xlink:href="#path-5"></use>
                                    </mask>
                                    <use id="Rectangle" fill="#FFF7E6" fill-rule="nonzero" xlink:href="#path-5"></use>
                                    <rect id="Rectangle" fill="#FEE5B2" fill-rule="nonzero" mask="url(#mask-6)" x="11" y="-7" width="15" height="26"></rect>
                                    <path d="M11.6875,4.125 C12.0671958,4.125 12.375,4.43280423 12.375,4.8125 L12.375,6.875 L14.4375,6.875 C14.8171958,6.875 15.125,7.18280423 15.125,7.5625 L15.125,8.9375 C15.125,9.31719577 14.8171958,9.625 14.4375,9.625 L12.374,9.625 L12.375,11.6875 C12.375,12.0671958 12.0671958,12.375 11.6875,12.375 L10.3125,12.375 C9.93280423,12.375 9.625,12.0671958 9.625,11.6875 L9.624,9.625 L7.5625,9.625 C7.18280423,9.625 6.875,9.31719577 6.875,8.9375 L6.875,7.5625 C6.875,7.18280423 7.18280423,6.875 7.5625,6.875 L9.625,6.875 L9.625,4.8125 C9.625,4.43280423 9.93280423,4.125 10.3125,4.125 L11.6875,4.125 Z" id="Combined-Shape" fill="#FBA30B" fill-rule="nonzero" mask="url(#mask-6)"></path>
                                </g>
                            </g>
                        </g>
                    </g>
                </g>
            </g>
        </g>
    </g>
</svg>