<?xml version="1.0" encoding="UTF-8"?>
<svg width="24px" height="24px" viewBox="0 0 24 24" version="1.1" xmlns="http://www.w3.org/2000/svg" xmlns:xlink="http://www.w3.org/1999/xlink">
    <!-- Generator: Sketch 64 (93537) - https://sketch.com -->
    <title>mine_order_3</title>
    <desc>Created with Sketch.</desc>
    <defs>
        <linearGradient x1="22.6255512%" y1="7.45682621%" x2="77.2303486%" y2="90.2743816%" id="linearGradient-1">
            <stop stop-color="#FFB414" offset="0%"></stop>
            <stop stop-color="#FA9716" offset="100%"></stop>
        </linearGradient>
    </defs>
    <g id="个人中心" stroke="none" stroke-width="1" fill="none" fill-rule="evenodd">
        <g id="我的" transform="translate(-176.000000, -316.000000)" fill="url(#linearGradient-1)" fill-rule="nonzero">
            <g id="我的订单" transform="translate(0.000000, 262.000000)">
                <g id="Group-3" transform="translate(32.000000, 54.000000)">
                    <g id="3" transform="translate(144.000000, 0.000000)">
                        <path d="M21,1 C22.1045695,1 23,1.8954305 23,3 L23,19 C23,20.1045695 22.1045695,21 21,21 L14.8284271,21 L12.7071068,23.1213203 C12.3165825,23.5118446 11.6834175,23.5118446 11.2928932,23.1213203 L9.17157288,21 L3,21 C1.8954305,21 1,20.1045695 1,19 L1,3 C1,1.8954305 1.8954305,1 3,1 L21,1 Z M12,9.5 C11.1715729,9.5 10.5,10.1715729 10.5,11 C10.5,11.8284271 11.1715729,12.5 12,12.5 C12.8284271,12.5 13.5,11.8284271 13.5,11 C13.5,10.1715729 12.8284271,9.5 12,9.5 Z M6.5,9.5 C5.67157288,9.5 5,10.1715729 5,11 C5,11.8284271 5.67157288,12.5 6.5,12.5 C7.32842712,12.5 8,11.8284271 8,11 C8,10.1715729 7.32842712,9.5 6.5,9.5 Z M17.5,9.5 C16.6715729,9.5 16,10.1715729 16,11 C16,11.8284271 16.6715729,12.5 17.5,12.5 C18.3284271,12.5 19,11.8284271 19,11 C19,10.1715729 18.3284271,9.5 17.5,9.5 Z" id="Combined-Shape"></path>
                    </g>
                </g>
            </g>
        </g>
    </g>
</svg>