<?xml version="1.0" encoding="UTF-8"?>
<svg width="32px" height="32px" viewBox="0 0 32 32" version="1.1" xmlns="http://www.w3.org/2000/svg" xmlns:xlink="http://www.w3.org/1999/xlink">
    <title>mine_icon_report</title>
    <defs>
        <linearGradient x1="50%" y1="0%" x2="50%" y2="89.3773333%" id="linearGradient-1">
            <stop stop-color="#FFAB11" offset="0%"></stop>
            <stop stop-color="#FA9805" offset="100%"></stop>
        </linearGradient>
        <circle id="path-2" cx="16" cy="16" r="16"></circle>
        <linearGradient x1="50%" y1="0%" x2="50%" y2="100%" id="linearGradient-4">
            <stop stop-color="#FFFAF0" offset="0%"></stop>
            <stop stop-color="#FFE6BB" offset="100%"></stop>
        </linearGradient>
        <path d="M22.2307692,11 C23.7601732,11 25,12.2398268 25,13.7692308 L25,29.2307692 C25,30.7601732 23.7601732,32 22.2307692,32 L9.76923077,32 C8.23982685,32 7,30.7601732 7,29.2307692 L7,13.7692308 C7,12.2398268 8.23982685,11 9.76923077,11 L11.303,10.9998483 L11.4234479,11.397378 C11.6200094,12.0460309 11.7483451,12.3051181 11.9165528,12.5262213 L11.9683194,12.5917643 C12.1633089,12.8304888 12.4019729,13.0075477 12.6869865,13.1249255 C12.972,13.2423033 13.242501,13.3 13.9880601,13.3 L13.9880601,13.3 L18.0119399,13.3 C18.757499,13.3 19.028,13.2423033 19.3130135,13.1249255 C19.5980271,13.0075477 19.8366911,12.8304888 20.0316806,12.5917643 C20.22667,12.3530398 20.3603345,12.1108962 20.5765521,11.397378 L20.5765521,11.397378 L20.697,10.9998483 L22.2307692,11 Z" id="path-5"></path>
        <filter x="-38.9%" y="-23.8%" width="177.8%" height="166.7%" filterUnits="objectBoundingBox" id="filter-6">
            <feOffset dx="0" dy="2" in="SourceAlpha" result="shadowOffsetOuter1"></feOffset>
            <feGaussianBlur stdDeviation="2" in="shadowOffsetOuter1" result="shadowBlurOuter1"></feGaussianBlur>
            <feColorMatrix values="0 0 0 0 0.8   0 0 0 0 0.466666667   0 0 0 0 0  0 0 0 0.3 0" type="matrix" in="shadowBlurOuter1"></feColorMatrix>
        </filter>
    </defs>
    <g id="一级页面" stroke="none" stroke-width="1" fill="none" fill-rule="evenodd">
        <g id="我的" transform="translate(-102.000000, -476.000000)">
            <g id="1-copy" transform="translate(102.000000, 476.000000)">
                <mask id="mask-3" fill="white">
                    <use xlink:href="#path-2"></use>
                </mask>
                <use id="Oval" fill="url(#linearGradient-1)" fill-rule="nonzero" xlink:href="#path-2"></use>
                <g id="Combined-Shape" fill-rule="nonzero" mask="url(#mask-3)">
                    <use fill="black" fill-opacity="1" filter="url(#filter-6)" xlink:href="#path-5"></use>
                    <use fill="url(#linearGradient-4)" xlink:href="#path-5"></use>
                </g>
                <path d="M19.1668443,18.9469615 C19.472279,18.4868223 20.0928993,18.3614096 20.5530385,18.6668443 C20.9803106,18.9504623 21.1189665,19.5058474 20.8920464,19.9521543 L20.8331557,20.0530385 L18.6419686,23.3540745 C18.3890561,23.7350886 17.9141848,23.8918015 17.4903415,23.7490407 L17.3762182,23.7026245 L14.004,22.084 L12.8597015,24.0107967 C12.5977467,24.4516825 12.0499682,24.6178656 11.5928992,24.4134874 L11.4892033,24.3597015 C11.0483175,24.0977467 10.8821344,23.5499682 11.0865126,23.0928992 L11.1402985,22.9892033 L12.7520952,20.2764525 C12.9963057,19.8654316 13.4929047,19.6893232 13.9351422,19.840889 L14.0443915,19.8856607 L17.456,21.522 L19.1668443,18.9469615 Z" id="Path-4" fill="#FA9C0F" fill-rule="nonzero" mask="url(#mask-3)"></path>
                <path d="M13.2064184,10 L18.7935816,10 C19.1249525,10 19.3935816,10.2686292 19.3935816,10.6 C19.3935816,10.6583947 19.385057,10.7164767 19.3682774,10.7724087 L19.2644634,11.1184553 C19.1833937,11.3886877 19.1123133,11.5247253 19.0148533,11.6444934 C18.9173933,11.7642615 18.7979403,11.8531382 18.6552184,11.9120728 C18.5124964,11.9710074 18.3617712,12 18.0796403,12 L13.9203597,12 C13.6382288,12 13.4875036,11.9710074 13.3447816,11.9120728 C13.2020597,11.8531382 13.0826067,11.7642615 12.9851467,11.6444934 C12.8876867,11.5247253 12.8166063,11.3886877 12.7355366,11.1184553 L12.6317226,10.7724087 C12.5365039,10.455013 12.7166139,10.1205229 13.0340097,10.0253042 C13.0899417,10.0085246 13.1480237,10 13.2064184,10 Z" id="Rectangle" fill="#FFF9EC" fill-rule="nonzero" mask="url(#mask-3)"></path>
            </g>
        </g>
    </g>
</svg>