<?xml version="1.0" encoding="UTF-8"?>
<svg width="345px" height="46px" viewBox="0 0 345 46" version="1.1" xmlns="http://www.w3.org/2000/svg" xmlns:xlink="http://www.w3.org/1999/xlink">
    <!-- Generator: Sketch 64 (93537) - https://sketch.com -->
    <title>mine_img_doctor</title>
    <desc>Created with Sketch.</desc>
    <defs>
        <linearGradient x1="0%" y1="49.1111111%" x2="100%" y2="50.8888889%" id="linearGradient-1">
            <stop stop-color="#E6C685" offset="0%"></stop>
            <stop stop-color="#DBB76E" offset="100%"></stop>
        </linearGradient>
        <path d="M15.3833112,-6.21504185e-16 L329.616689,6.21504185e-16 C334.965801,-3.61111829e-16 336.905519,0.556953667 338.861074,1.60279622 C340.81663,2.64863878 342.351361,4.18337022 343.397204,6.13892578 C344.443046,8.09448133 345,10.0341988 345,15.3833112 L345,46 L345,46 L0,46 L4.14336123e-16,15.3833112 C-2.4074122e-16,10.0341988 0.556953667,8.09448133 1.60279622,6.13892578 C2.64863878,4.18337022 4.18337022,2.64863878 6.13892578,1.60279622 C8.09448133,0.556953667 10.0341988,3.61111829e-16 15.3833112,-6.21504185e-16 Z" id="path-2"></path>
        <filter x="-5.4%" y="-42.4%" width="110.7%" height="180.4%" filterUnits="objectBoundingBox" id="filter-4">
            <feMorphology radius="2" operator="dilate" in="SourceAlpha" result="shadowSpreadOuter1"></feMorphology>
            <feOffset dx="0" dy="-1" in="shadowSpreadOuter1" result="shadowOffsetOuter1"></feOffset>
            <feGaussianBlur stdDeviation="4" in="shadowOffsetOuter1" result="shadowBlurOuter1"></feGaussianBlur>
            <feColorMatrix values="0 0 0 0 0   0 0 0 0 0   0 0 0 0 0  0 0 0 0.04 0" type="matrix" in="shadowBlurOuter1"></feColorMatrix>
        </filter>
        <linearGradient x1="50%" y1="0%" x2="50%" y2="100%" id="linearGradient-5">
            <stop stop-color="#FFFFFF" offset="0%"></stop>
            <stop stop-color="#FFFFFC" offset="100%"></stop>
        </linearGradient>
    </defs>
    <g id="个人中心" stroke="none" stroke-width="1" fill="none" fill-rule="evenodd">
        <g id="我的" transform="translate(-15.000000, -224.000000)">
            <g id="header" transform="translate(0.000000, 64.000000)">
                <g id="好医生" transform="translate(15.000000, 160.000000)">
                    <mask id="mask-3" fill="white">
                        <use xlink:href="#path-2"></use>
                    </mask>
                    <g id="bg" fill-rule="nonzero">
                        <use fill="black" fill-opacity="1" filter="url(#filter-4)" xlink:href="#path-2"></use>
                        <use fill="url(#linearGradient-1)" xlink:href="#path-2"></use>
                    </g>
                    <g id="Group-4" opacity="0.149999991" mask="url(#mask-3)" fill="#FFFFFF" fill-rule="nonzero">
                        <g transform="translate(-1.000000, 3.000000)" id="Combined-Shape">
                            <path d="M33.75,0.0767045455 C37.8240863,0.0767045455 41.1488253,3.28504117 41.3354846,7.3129818 L41.34375,7.67045455 L41.34375,11.0454545 L47.25,11.0454545 C50.9779221,11.0454545 54,14.0675325 54,17.7954545 L54,46.0227273 C54,49.7506493 50.9779221,52.7727273 47.25,52.7727273 L6.75,52.7727273 C3.02207794,52.7727273 4.56538782e-16,49.7506493 0,46.0227273 L0,17.7954545 C-4.56538782e-16,14.0675325 3.02207794,11.0454545 6.75,11.0454545 L12.65625,11.0454545 L12.65625,7.67045455 C12.65625,3.59636829 15.8645866,0.271629209 19.8925272,0.0849699027 L20.25,0.0767045455 L33.75,0.0767045455 Z M28.6875,21.1704545 L25.3125,21.1704545 C24.4295711,21.1704545 23.7050172,21.8485385 23.6311941,22.7123506 L23.625,22.8579545 L23.625,27.9204545 L18.5625,27.9204545 C17.6795711,27.9204545 16.9550172,28.5985385 16.8811941,29.4623506 L16.875,29.6079545 L16.875,32.9829545 C16.875,33.8658835 17.553084,34.5904374 18.416896,34.6642604 L18.5625,34.6704545 L23.624,34.6704545 L23.625,39.7329545 C23.625,40.6158835 24.303084,41.3404374 25.166896,41.4142604 L25.3125,41.4204545 L28.6875,41.4204545 C29.5704289,41.4204545 30.2949828,40.7423706 30.3688059,39.8785585 L30.375,39.7329545 L30.374,34.6704545 L35.4375,34.6704545 C36.3204289,34.6704545 37.0449828,33.9923706 37.1188059,33.1285585 L37.125,32.9829545 L37.125,29.6079545 C37.125,28.7250256 36.446916,28.0004717 35.583104,27.9266487 L35.4375,27.9204545 L30.375,27.9204545 L30.375,22.8579545 C30.375,21.925974 29.6194805,21.1704545 28.6875,21.1704545 Z M33.75,5.13920455 L20.25,5.13920455 C18.9342628,5.13920455 17.8529929,6.14307819 17.7303374,7.42667828 L17.71875,7.67045455 L17.71875,11.0454545 L36.28125,11.0454545 L36.28125,7.67045455 C36.28125,6.35471735 35.2773764,5.2734474 33.9937763,5.1507919 L33.75,5.13920455 Z"></path>
                        </g>
                    </g>
                    <g id="Group-6" mask="url(#mask-3)">
                        <g transform="translate(20.152000, 12.000000)">
                            <path d="M1.764,7.082 L1.817,6.793 L1.827,6.737 L1.831,6.716 L1.832,6.709 L1.835,6.692 L1.836,6.686 L0.54,6.686 C0.864,6.722 1.146,6.773 1.386,6.839 C1.626,6.905 1.752,6.986 1.764,7.082 L1.764,7.082 Z M8.586,17.18 L9.63,11.15 L9.216,10.43 L14.31,10.43 L14.526,9.008 L2.358,9.008 L2.088,10.43 L4.482,10.43 L1.044,11.168 L0.72,12.842 L6.75,11.402 L6.696,11.762 L0.666,13.22 L0.378,14.876 L6.39,13.418 L6.354,13.796 L0.324,15.29 L-3.55271368e-14,16.946 L4.176,15.938 L4.014,16.82 C3.846,16.976 3.414,17.096 2.718,17.18 L2.718,17.18 L8.586,17.18 Z M13.806,17.18 L13.194,13.292 L14.994,12.68 L15.336,10.844 L12.942,11.636 L12.816,10.79 L9.954,10.79 L10.908,17.18 L13.806,17.18 Z M5.958,15.848 L4.5,15.848 L6.03,15.488 L5.958,15.848 Z M1.764,7.082 C1.752,7.166 1.752,7.19 1.764,7.154 L1.764,7.154 L1.476,8.792 L4.248,8.792 L4.338,8.216 L12.87,8.216 L12.744,8.792 L15.534,8.792 L15.732,7.604 C15.744,7.52 15.732,7.409 15.696,7.271 C15.66,7.133 15.618,7.028 15.57,6.956 C15.51,6.896 15.417,6.836 15.291,6.776 C15.165,6.716 15.06,6.686 14.976,6.686 L14.976,6.686 L10.242,6.686 L10.242,6.488 C10.218,6.392 10.149,6.29 10.035,6.182 C9.921,6.074 9.822,6.02 9.738,6.02 L9.738,6.02 L6.156,6.02 C6.816,6.092 7.206,6.206 7.326,6.362 L7.326,6.362 L7.344,6.686 L1.836,6.686 L1.835,6.692 L1.832,6.709 L1.831,6.716 L1.827,6.737 L1.817,6.793 L1.764,7.1 L1.764,7.082 Z M18.912,17.18 L20.46,8.252 L32.016,8.252 L32.196,7.28 C32.196,7.208 32.181,7.124 32.151,7.028 C32.121,6.932 32.082,6.86 32.034,6.812 C31.998,6.752 31.932,6.698 31.836,6.65 C31.74,6.602 31.656,6.578 31.584,6.578 L31.584,6.578 L27.228,6.578 L27.246,6.434 C27.258,6.398 27.255,6.35 27.237,6.29 C27.219,6.23 27.198,6.182 27.174,6.146 C27.03,6.062 26.928,6.02 26.868,6.02 L26.868,6.02 L23.214,6.02 C23.874,6.092 24.27,6.206 24.402,6.362 L24.402,6.362 L24.384,6.578 L16.878,6.578 C17.358,6.626 17.7,6.71 17.904,6.83 L17.904,6.83 L16.122,16.658 L16.104,16.712 C16.092,16.82 15.957,16.916 15.699,17 C15.441,17.084 15.132,17.144 14.772,17.18 L14.772,17.18 L18.912,17.18 Z M30.846,15.254 L31.134,13.616 L29.19,13.616 L29.334,12.896 L30.972,12.896 L31.26,11.222 L29.622,11.222 L29.766,10.358 L31.566,10.286 L31.872,8.612 L25.032,8.972 L24.744,10.628 L26.904,10.502 L26.76,11.222 L25.248,11.222 L24.96,12.896 L26.49,12.896 L26.346,13.616 L24.582,13.616 L24.294,15.254 L30.846,15.254 Z M21.972,17.18 L22.152,16.766 L22.89,17.18 L30.378,17.18 L30.648,15.56 L24.024,15.56 L22.908,15.02 L24.384,11.672 L23.52,11.672 L24.096,10.592 L24.438,8.828 L20.73,8.828 L20.46,10.502 L21.414,10.502 L20.298,12.734 L21.27,12.734 L20.73,13.976 L19.866,13.526 L19.524,15.344 L19.992,15.596 L19.326,17.18 L21.972,17.18 Z M31.95,16.554 L31.947,16.541 C31.941,16.535 31.938,16.556 31.938,16.604 L31.938,16.604 L31.938,16.622 L31.938,16.622 L31.942,16.604 L31.878,16.969 L31.871,17.006 L31.866,17.036 L45.798,17.036 L46.086,15.362 L34.998,15.362 L36.366,7.838 L47.418,7.838 L47.544,7.208 C47.568,7.112 47.559,6.986 47.517,6.83 C47.475,6.674 47.418,6.56 47.346,6.488 C47.286,6.416 47.181,6.344 47.031,6.272 C46.881,6.2 46.758,6.164 46.662,6.164 L46.662,6.164 L32.532,6.164 C33.24,6.248 33.636,6.368 33.72,6.524 L33.72,6.524 L31.949,16.565 L31.95,16.554 L31.95,16.554 Z M39.048,14.948 L41.334,12.986 L46.032,12.986 L46.284,11.384 L42.774,11.384 L42.972,10.34 L45.996,10.34 L46.266,8.738 L40.218,8.738 L40.596,8.108 L37.626,8.108 L35.97,11.06 L38.922,11.06 L39.318,10.34 L40.128,10.34 L39.93,11.384 L36.204,11.384 L35.916,12.986 L37.824,12.986 L35.52,14.948 L39.048,14.948 Z M45.978,14.948 L44.682,13.328 L41.154,13.328 L42.45,14.948 L45.978,14.948 Z M31.866,17.036 L31.871,17.006 L31.878,16.969 L31.938,16.622 C31.908,16.702 31.7988333,16.7736667 31.6105,16.837 L31.488,16.874 C31.224,16.946 30.918,17 30.57,17.036 L30.57,17.036 L31.866,17.036 Z M62.244,17.18 L62.55,15.506 L56.79,15.506 L57.186,13.274 L61.722,13.274 L62.046,11.6 L57.492,11.6 L57.888,9.386 L62.802,9.386 L63.09,7.712 L58.194,7.712 L58.338,6.938 C58.338,6.842 58.32,6.731 58.284,6.605 C58.248,6.479 58.2,6.38 58.14,6.308 C58.092,6.236 58.002,6.17 57.87,6.11 C57.738,6.05 57.63,6.02 57.546,6.02 L57.546,6.02 L54.396,6.02 C55.032,6.092 55.428,6.2 55.584,6.344 L55.584,6.344 L55.332,7.712 L53.334,7.712 L53.964,6.47 L49.842,6.47 C50.406,6.53 50.784,6.62 50.976,6.74 L50.976,6.74 L48.906,10.772 L51.75,10.772 L52.47,9.386 L55.044,9.386 L54.648,11.6 L49.86,11.6 L49.554,13.274 L54.342,13.274 L53.946,15.506 L47.862,15.506 L47.628,16.748 C47.592,16.856 47.445,16.946 47.187,17.018 C46.929,17.09 46.632,17.144 46.296,17.18 L46.296,17.18 L62.244,17.18 Z M64.848,6.704 C64.812,6.908 64.842,6.764 64.938,6.272 L64.93,6.314 L64.938,6.272 L63.642,6.272 C63.99,6.296 64.281,6.347 64.515,6.425 C64.749,6.503 64.86,6.596 64.848,6.704 Z M74.676,15.308 L66.144,15.308 L67.458,7.892 L75.99,7.892 L74.676,15.308 Z M73.524,14.804 L74.298,10.538 L75.09,10.538 L75.378,8.882 L74.604,8.882 L74.73,8.162 L72.156,8.162 L72.03,8.882 L67.764,8.882 L67.476,10.538 L71.724,10.538 L71.238,13.22 L69.906,13.22 L69.6,14.804 L73.524,14.804 Z M68.952,14.804 L70.59,10.808 L68.052,10.808 L66.432,14.804 L68.952,14.804 Z M63.089,16.542 L63.084,16.568 C63.024,16.664 62.865,16.742 62.607,16.802 C62.349,16.862 62.058,16.904 61.734,16.928 L61.734,16.928 L77.25,16.928 L78.816,8.108 C78.84,7.952 78.813,7.736 78.735,7.46 C78.657,7.184 78.558,6.974 78.438,6.83 C78.33,6.698 78.147,6.572 77.889,6.452 C77.631,6.332 77.412,6.272 77.232,6.272 L77.232,6.272 L64.938,6.272 L64.93,6.314 L63.101,16.475 L63.095,16.498 C63.0916667,16.5126667 63.088,16.53 63.084,16.55 L63.089,16.542 Z M88.296,17.18 L90.762,11.06 L91.212,17.18 L94.146,17.18 L93.66,11.096 C93.648,10.952 93.555,10.802 93.381,10.646 C93.207,10.49 93.048,10.412 92.904,10.412 L92.904,10.412 L90.996,10.412 L92.364,6.938 C92.376,6.914 92.382,6.86 92.382,6.776 C92.382,6.596 92.352,6.446 92.292,6.326 C92.232,6.254 92.142,6.185 92.022,6.119 C91.902,6.053 91.8,6.02 91.716,6.02 L91.716,6.02 L88.638,6.02 C89.166,6.08 89.532,6.17 89.736,6.29 L89.736,6.29 L85.398,17.18 L88.296,17.18 Z M82.212,17.162 L83.85,7.892 L84.732,7.892 L83.67,11.78 L84.066,11.78 L82.86,16.262 L85.38,16.262 L86.892,10.52 L86.478,10.52 L87.18,7.91 L87.378,6.902 C87.378,6.842 87.363,6.761 87.333,6.659 C87.303,6.557 87.27,6.482 87.234,6.434 C87.186,6.386 87.117,6.344 87.027,6.308 C86.937,6.272 86.868,6.254 86.82,6.254 L86.82,6.254 L80.07,6.254 C80.394,6.278 80.67,6.326 80.898,6.398 C81.126,6.47 81.246,6.554 81.258,6.65 L81.258,6.65 L79.44,16.748 C79.392,16.844 79.239,16.928 78.981,17 C78.723,17.072 78.426,17.126 78.09,17.162 L78.09,17.162 L82.212,17.162 Z" id="家庭医生团队" fill="url(#linearGradient-5)" fill-rule="nonzero"></path>
                            <text id="365天随时陪伴" fill="none" font-family="PingFangSC-Regular, PingFang SC" font-size="12" font-weight="normal" letter-spacing="0.4">
                                <tspan x="114.848" y="16" fill="#FFFFFF">365天随时陪伴</tspan>
                            </text>
                            <rect id="Rectangle" fill="#FFFFFF" fill-rule="nonzero" x="104.848" y="7" width="1" height="10" rx="0.5"></rect>
                            <g id="btn" stroke-width="1" fill="none" fill-rule="evenodd" transform="translate(240.848000, 0.000000)">
                                <rect id="Rectangle" fill="#FFF8E6" fill-rule="nonzero" x="0" y="0" width="64" height="22" rx="11"></rect>
                                <text id="立即前往" font-family="PingFangSC-Medium, PingFang SC" font-size="11" font-weight="400" line-spacing="10" fill="#BF8105">
                                    <tspan x="8" y="18">立即前往</tspan>
                                </text>
                                <polygon id="Rectangle" fill="#D48F06" fill-rule="nonzero" points="55 8.5 57.8284271 11.3284271 55 14.1568542"></polygon>
                            </g>
                        </g>
                    </g>
                </g>
            </g>
        </g>
    </g>
</svg>