<?xml version="1.0" encoding="UTF-8"?>
<svg width="24px" height="24px" viewBox="0 0 24 24" version="1.1" xmlns="http://www.w3.org/2000/svg" xmlns:xlink="http://www.w3.org/1999/xlink">
    <!-- Generator: Sketch 64 (93537) - https://sketch.com -->
    <title>mine_icon_help</title>
    <desc>Created with Sketch.</desc>
    <g id="个人中心" stroke="none" stroke-width="1" fill="none" fill-rule="evenodd">
        <g id="我的" transform="translate(-314.000000, -594.000000)" fill-rule="nonzero">
            <g id="常用工具" transform="translate(0.000000, 544.000000)">
                <g id="Group-8" transform="translate(32.000000, 50.000000)">
                    <g id="帮助" transform="translate(282.000000, 0.000000)">
                        <path d="M12,1.75 C9.16954066,1.75 6.60704066,2.89727033 4.75215549,4.75215549 C2.89727033,6.60704066 1.75,9.16954066 1.75,12 C1.75,13.3896426 2.02631246,14.7147587 2.52740958,15.9232052 C2.60354949,16.1068244 2.69249819,16.2840424 2.98070217,16.8782061 C3.13873526,17.2291703 3.04266636,18.0317205 2.78248903,19.0075726 C2.61678464,19.6290833 2.42114403,20.3285354 2.41049361,20.9154952 C2.4067087,21.1240869 2.3947113,21.3368078 2.52474089,21.464139 C3.01160414,21.940899 4.13491347,21.4249468 4.94364283,21.2098014 C5.96095731,20.9391663 6.79225102,20.8514199 7.15287002,21.0341584 C7.45603524,21.1877831 7.76056527,21.341462 8.07679476,21.4725904 C9.28524135,21.9736875 10.6103574,22.25 12,22.25 C14.8304593,22.25 17.3929593,21.1027297 19.2478445,19.2478445 C21.1027297,17.3929593 22.25,14.8304593 22.25,12 C22.25,9.16954066 21.1027297,6.60704066 19.2478445,4.75215549 C17.3929593,2.89727033 14.8304593,1.75 12,1.75 Z" id="Oval" stroke="#262626" stroke-width="1.5"></path>
                        <path d="M11.904,18 C12.176,18 12.4,17.904 12.592,17.728 C12.784,17.552 12.88,17.328 12.88,17.04 C12.88,16.768 12.784,16.544 12.608,16.368 C12.416,16.176 12.176,16.096 11.904,16.096 C11.632,16.096 11.408,16.176 11.216,16.368 C11.024,16.544 10.944,16.768 10.944,17.04 C10.944,17.312 11.024,17.536 11.216,17.728 C11.408,17.904 11.632,18 11.904,18 Z" id="Path" fill="#F5181B"></path>
                        <path d="M9,9.56784661 C9,8.7776264 9.61228139,7.00135413 12,7.00135413 C14.3877186,7.00135413 15,8.79146647 15,9.56784661 C15,12.5213401 12,12 12.008,14.2679528" id="Path-5" stroke="#262626" stroke-width="1.4" stroke-linecap="round" stroke-linejoin="round"></path>
                    </g>
                </g>
            </g>
        </g>
    </g>
</svg>