<?xml version="1.0" encoding="UTF-8"?>
<svg width="24px" height="24px" viewBox="0 0 24 24" version="1.1" xmlns="http://www.w3.org/2000/svg" xmlns:xlink="http://www.w3.org/1999/xlink">
    <!-- Generator: Sketch 64 (93537) - https://sketch.com -->
    <title>mine_icon_like</title>
    <desc>Created with Sketch.</desc>
    <g id="个人中心" stroke="none" stroke-width="1" fill="none" fill-rule="evenodd">
        <g id="我的" transform="translate(-176.000000, -594.000000)" fill-rule="nonzero">
            <g id="常用工具" transform="translate(0.000000, 544.000000)">
                <g id="Group-8" transform="translate(32.000000, 50.000000)">
                    <g id="收藏" transform="translate(144.000000, 0.000000)">
                        <path d="M12,19 L6.90309205,21.6796031 C6.36980705,21.9599676 5.71021379,21.754935 5.42984927,21.22165 C5.31820665,21.0092932 5.27968155,20.7660552 5.3202381,20.5295924 L6.2936609,14.854102 L6.2936609,14.854102 L2.17017575,10.8346973 C1.73873912,10.4141506 1.72991115,9.72348155 2.15045793,9.29204492 C2.31792186,9.12024459 2.53734994,9.00844039 2.77477216,8.97394093 L8.47328849,8.14589803 L8.47328849,8.14589803 L11.0217425,2.98216627 C11.288385,2.44188955 11.9425222,2.22006519 12.482799,2.48670769 C12.69794,2.59288614 12.8720791,2.76702525 12.9782575,2.98216627 L15.5267115,8.14589803 L15.5267115,8.14589803 L21.2252278,8.97394093 C21.8214586,9.06057833 22.2345656,9.61415235 22.1479282,10.2103831 C22.1134288,10.4478053 22.0016246,10.6672334 21.8298242,10.8346973 L17.7063391,14.854102 L17.7063391,14.854102 L18.6797619,20.5295924 C18.7816103,21.123414 18.3827872,21.6873659 17.7889656,21.7892143 C17.5525027,21.8297708 17.3092648,21.7912457 17.096908,21.6796031 L12,19 L12,19 Z" id="Star" stroke="#262626" stroke-width="1.4" stroke-linecap="round" stroke-linejoin="round"></path>
                        <path d="M10.9119823,7.5484465 C11.0826462,7.20155621 11.5022068,7.0586965 11.8490971,7.2293604 C12.1644519,7.38450941 12.3111864,7.74535813 12.2070368,8.07030857 L12.1681832,8.16647516 L10.6388777,11.2749309 C10.4682138,11.6218212 10.0486533,11.7646809 9.70176298,11.594017 C9.38640817,11.438868 9.23967368,11.0780193 9.34382323,10.7530689 L9.38267688,10.6569023 L10.9119823,7.5484465 Z" id="Path-4" fill="#F5181B"></path>
                    </g>
                </g>
            </g>
        </g>
    </g>
</svg>