<?xml version="1.0" encoding="UTF-8"?>
<svg width="32px" height="32px" viewBox="0 0 32 32" version="1.1" xmlns="http://www.w3.org/2000/svg" xmlns:xlink="http://www.w3.org/1999/xlink">
    <!-- Generator: Sketch 64 (93537) - https://sketch.com -->
    <title>mine_icon_inquiry</title>
    <desc>Created with Sketch.</desc>
    <defs>
        <linearGradient x1="50%" y1="0%" x2="50%" y2="100%" id="linearGradient-1">
            <stop stop-color="#2EE693" offset="0%"></stop>
            <stop stop-color="#14C785" offset="100%"></stop>
        </linearGradient>
        <circle id="path-2" cx="16" cy="16" r="16"></circle>
        <filter x="-40.0%" y="-38.1%" width="180.0%" height="176.2%" filterUnits="objectBoundingBox" id="filter-4">
            <feOffset dx="0" dy="1" in="SourceAlpha" result="shadowOffsetOuter1"></feOffset>
            <feGaussianBlur stdDeviation="1.5" in="shadowOffsetOuter1" result="shadowBlurOuter1"></feGaussianBlur>
            <feColorMatrix values="0 0 0 0 0.21   0 0 0 0 0.7   0 0 0 0 0.536666667  0 0 0 0.5 0" type="matrix" in="shadowBlurOuter1" result="shadowMatrixOuter1"></feColorMatrix>
            <feMerge>
                <feMergeNode in="shadowMatrixOuter1"></feMergeNode>
                <feMergeNode in="SourceGraphic"></feMergeNode>
            </feMerge>
        </filter>
        <path d="M2.66666667,17.3333333 C1.19390733,17.3333333 1.80361e-16,16.139426 0,14.6666667 L0,2.66666667 C-1.80361e-16,1.19390733 1.19390733,2.705415e-16 2.66666667,0 L17.3333333,0 C18.8060927,-2.705415e-16 20,1.19390733 20,2.66666667 L20,14.6666667 C20,16.139426 18.8060927,17.3333333 17.3333333,17.3333333 L12.6666667,17.3333333 L10.5547002,20.501283 C10.3504652,20.8076355 9.93655233,20.8904181 9.63019987,20.6861831 C9.55696501,20.6373599 9.49412304,20.5745179 9.4452998,20.501283 L7.33333333,17.3333333 L2.66666667,17.3333333 Z" id="path-5"></path>
    </defs>
    <g id="个人中心" stroke="none" stroke-width="1" fill="none" fill-rule="evenodd">
        <g id="我的" transform="translate(-103.000000, -451.000000)">
            <g id="健康服务" transform="translate(0.000000, 401.000000)">
                <g id="Group-7" transform="translate(25.000000, 50.000000)">
                    <g id="2" transform="translate(78.000000, 0.000000)">
                        <mask id="mask-3" fill="white">
                            <use xlink:href="#path-2"></use>
                        </mask>
                        <use id="Oval" fill="url(#linearGradient-1)" fill-rule="nonzero" xlink:href="#path-2"></use>
                        <g id="Group" filter="url(#filter-4)" mask="url(#mask-3)">
                            <g transform="translate(6.000000, 11.000000)">
                                <mask id="mask-6" fill="white">
                                    <use xlink:href="#path-5"></use>
                                </mask>
                                <use id="Combined-Shape" stroke="none" fill="#EDFFF7" fill-rule="nonzero" xlink:href="#path-5"></use>
                                <rect id="Rectangle" stroke="none" fill="#BEF4E0" fill-rule="nonzero" mask="url(#mask-6)" x="10" y="-2" width="17" height="23"></rect>
                                <path d="M10.6666667,4.66666667 C11.0348565,4.66666667 11.3333333,4.9651435 11.3333333,5.33333333 L11.333,7.33266667 L13.3333333,7.33333333 C13.7015232,7.33333333 14,7.63181017 14,8 L14,9.33333333 C14,9.70152317 13.7015232,10 13.3333333,10 L11.333,9.99966667 L11.3333333,12 C11.3333333,12.3681898 11.0348565,12.6666667 10.6666667,12.6666667 L9.33333333,12.6666667 C8.9651435,12.6666667 8.66666667,12.3681898 8.66666667,12 L8.666,9.99966667 L6.66666667,10 C6.29847683,10 6,9.70152317 6,9.33333333 L6,8 C6,7.63181017 6.29847683,7.33333333 6.66666667,7.33333333 L8.666,7.33266667 L8.66666667,5.33333333 C8.66666667,4.9651435 8.9651435,4.66666667 9.33333333,4.66666667 L10.6666667,4.66666667 Z" id="Combined-Shape" stroke="none" fill="#26CF8C" fill-rule="nonzero" mask="url(#mask-6)"></path>
                            </g>
                        </g>
                    </g>
                </g>
            </g>
        </g>
    </g>
</svg>