<?xml version="1.0" encoding="UTF-8"?>
<svg width="12px" height="12px" viewBox="0 0 12 12" version="1.1" xmlns="http://www.w3.org/2000/svg" xmlns:xlink="http://www.w3.org/1999/xlink">
    <!-- Generator: Sketch 64 (93537) - https://sketch.com -->
    <title>mine_icon_vip2</title>
    <desc>Created with Sketch.</desc>
    <defs>
        <path d="M6,0.857142857 C6.71008039,0.857142857 7.28571429,1.43277675 7.28571429,2.14285714 C7.28571429,2.58916947 7.05830454,2.9823674 6.71303626,3.21289973 L11.1428571,9.85714286 C9.42857143,11 7.71428571,11.5714286 6,11.5714286 C4.28571429,11.5714286 2.57142857,11 0.857142857,9.85714286 L5.28599238,3.21225052 C4.941269,2.98162964 4.71428571,2.58875079 4.71428571,2.14285714 C4.71428571,1.43277675 5.28991961,0.857142857 6,0.857142857 Z" id="path-1"></path>
    </defs>
    <g id="个人中心" stroke="none" stroke-width="1" fill="none" fill-rule="evenodd">
        <g id="我的" transform="translate(-149.000000, -127.000000)">
            <g id="header" transform="translate(0.000000, 64.000000)">
                <g id="会员2" transform="translate(140.000000, 60.000000)">
                    <g id="icon会员-copy" transform="translate(9.000000, 3.000000)">
                        <path d="M11.1428571,3 C11.6162441,3 12,3.38375593 12,3.85714286 C12,4.33052979 11.6162441,4.71428571 11.1428571,4.71428571 L11.1428571,4.71428571 L11.1428571,9.85714286 L0.857142857,9.85714286 L0.857142857,4.71428571 C0.383755929,4.71428571 0,4.33052979 0,3.85714286 C0,3.38375593 0.383755929,3 0.857142857,3 C1.33052979,3 1.71428571,3.38375593 1.71428571,3.85714286 C1.71428571,4.08947685 1.62184823,4.30022092 1.47174461,4.45460372 L6,8.85714286 L10.5282554,4.45460372 C10.3781518,4.30022092 10.2857143,4.08947685 10.2857143,3.85714286 C10.2857143,3.38375593 10.6694702,3 11.1428571,3 Z" id="Combined-Shape" fill="#7754DE" fill-rule="nonzero"></path>
                        <mask id="mask-2" fill="white">
                            <use xlink:href="#path-1"></use>
                        </mask>
                        <use id="Combined-Shape" fill="#C6ADF7" fill-rule="nonzero" xlink:href="#path-1"></use>
                        <rect id="Rectangle" fill="#9A7FEB" fill-rule="nonzero" mask="url(#mask-2)" x="6" y="0.857142857" width="5.14285714" height="11.1428571"></rect>
                    </g>
                </g>
            </g>
        </g>
    </g>
</svg>