<?xml version="1.0" encoding="UTF-8"?>
<svg width="24px" height="24px" viewBox="0 0 24 24" version="1.1" xmlns="http://www.w3.org/2000/svg" xmlns:xlink="http://www.w3.org/1999/xlink">
    <!-- Generator: Sketch 64 (93537) - https://sketch.com -->
    <title>mine_icon_adr</title>
    <desc>Created with Sketch.</desc>
    <g id="个人中心" stroke="none" stroke-width="1" fill="none" fill-rule="evenodd">
        <g id="我的" transform="translate(-245.000000, -594.000000)" fill-rule="nonzero">
            <g id="常用工具" transform="translate(0.000000, 544.000000)">
                <g id="Group-8" transform="translate(32.000000, 50.000000)">
                    <g id="地址" transform="translate(213.000000, 0.000000)">
                        <path d="M12,18.625 C16.6666667,14.1189955 19,10.5773288 19,8 C19,4.13400675 15.8659932,1 12,1 C8.13400675,1 5,4.13400675 5,8 C5,10.5773288 7.33333333,14.1189955 12,18.625 Z" id="Oval" stroke="#262626" stroke-width="1.4" stroke-linecap="round" stroke-linejoin="round"></path>
                        <path d="M12,4.3 C9.95654643,4.3 8.3,5.95654643 8.3,8 C8.3,10.0434536 9.95654643,11.7 12,11.7 C14.0434536,11.7 15.7,10.0434536 15.7,8 C15.7,5.95654643 14.0434536,4.3 12,4.3 Z M12,5.7 C13.2702549,5.7 14.3,6.72974508 14.3,8 C14.3,9.27025492 13.2702549,10.3 12,10.3 C10.7297451,10.3 9.7,9.27025492 9.7,8 C9.7,6.72974508 10.7297451,5.7 12,5.7 Z" id="Oval" fill="#F5181B"></path>
                        <polyline id="Path" stroke="#262626" stroke-width="1.4" stroke-linecap="round" stroke-linejoin="round" points="17.75 17 20 17 21 23 3 23 4 17 6.25 17"></polyline>
                    </g>
                </g>
            </g>
        </g>
    </g>
</svg>