<?xml version="1.0" encoding="UTF-8"?>
<svg width="32px" height="32px" viewBox="0 0 32 32" version="1.1" xmlns="http://www.w3.org/2000/svg" xmlns:xlink="http://www.w3.org/1999/xlink">
    <title>order_icon_van</title>
    <defs>
        <linearGradient x1="21.5850411%" y1="7.45682621%" x2="78.2653814%" y2="90.2743816%" id="linearGradient-1">
            <stop stop-color="#1994FF" offset="0%"></stop>
            <stop stop-color="#0D86FF" offset="100%"></stop>
        </linearGradient>
    </defs>
    <g id="实体类业务流程" stroke="none" stroke-width="1" fill="none" fill-rule="evenodd">
        <g id="订单详情/待收货" transform="translate(-15.000000, -228.000000)" fill-rule="nonzero">
            <g id="Group-2" transform="translate(0.000000, 204.000000)">
                <g id="订单详情/物流" transform="translate(0.000000, -0.000000)">
                    <g transform="translate(0.000000, -0.000000)" id="订单详情/图标/物流">
                        <g transform="translate(15.000000, 24.000000)">
                            <g id="Group-4">
                                <circle id="Oval" fill="url(#linearGradient-1)" cx="16" cy="16" r="16"></circle>
                                <path d="M10.8333333,19.3333333 C11.6617605,19.3333333 12.3333333,20.0049062 12.3333333,20.8333333 C12.3333333,21.6617605 11.6617605,22.3333333 10.8333333,22.3333333 C10.0049062,22.3333333 9.33333333,21.6617605 9.33333333,20.8333333 C9.33333333,20.0049062 10.0049062,19.3333333 10.8333333,19.3333333 Z M19.5,19.3333333 C20.3284271,19.3333333 21,20.0049062 21,20.8333333 C21,21.6617605 20.3284271,22.3333333 19.5,22.3333333 C18.6715729,22.3333333 18,21.6617605 18,20.8333333 C18,20.0049062 18.6715729,19.3333333 19.5,19.3333333 Z M13.6666667,12.3333333 C14.0348565,12.3333333 14.3333333,12.6318102 14.3333333,13 L14.3333333,19.6666667 C14.3333333,20.0348565 14.0348565,20.3333333 13.6666667,20.3333333 L12.9420968,20.3336473 C12.7164895,19.3779224 11.8579727,18.6666667 10.8333333,18.6666667 C9.80869393,18.6666667 8.95017721,19.3779224 8.72456982,20.3336473 L8,20.3333333 C7.63181017,20.3333333 7.33333333,20.0348565 7.33333333,19.6666667 L7.33333333,15.5747 C7.33333333,15.4187423 7.38801081,15.2677204 7.48785248,15.1479104 L9.63343578,12.5732104 C9.76009833,12.4212153 9.94773007,12.3333333 10.1455833,12.3333333 L13.6666667,12.3333333 Z M23.3333333,9.66666667 C23.7015232,9.66666667 24,9.9651435 24,10.3333333 L24,19.6666667 C24,20.0348565 23.7015232,20.3333333 23.3333333,20.3333333 L21.6085988,20.3329501 C21.3827386,19.3775765 20.5243902,18.6666667 19.5,18.6666667 C18.4756098,18.6666667 17.6172614,19.3775765 17.3914012,20.3329501 L15.6666667,20.3333333 C15.2984768,20.3333333 15,20.0348565 15,19.6666667 L15,10.3333333 C15,9.9651435 15.2984768,9.66666667 15.6666667,9.66666667 L23.3333333,9.66666667 Z M12.3333333,13.3333333 L10.156125,13.3333333 C10.08193,13.3333333 10.0106099,13.3580501 9.95286907,13.40247 L9.90005122,13.4532719 L8.41059291,15.2406218 C8.37731235,15.2805585 8.35406828,15.3274312 8.34227007,15.377347 L8.33333333,15.4540166 L8.33333333,16.3333333 C8.33333333,16.4944164 8.447594,16.6288124 8.59948837,16.6598945 L8.66666667,16.6666667 L12.3333333,16.6666667 C12.4944164,16.6666667 12.6288124,16.552406 12.6598945,16.4005116 L12.6666667,16.3333333 L12.6666667,13.6666667 C12.6666667,13.4825718 12.5174282,13.3333333 12.3333333,13.3333333 Z" id="Combined-Shape" fill="#FFFFFF"></path>
                            </g>
                        </g>
                    </g>
                </g>
            </g>
        </g>
    </g>
</svg>