<?xml version="1.0" encoding="UTF-8"?>
<svg width="11px" height="11px" viewBox="0 0 11 11" version="1.1" xmlns="http://www.w3.org/2000/svg" xmlns:xlink="http://www.w3.org/1999/xlink">
    <!-- Generator: Sketch 64 (93537) - https://sketch.com -->
    <title>order_pop_icon_error</title>
    <desc>Created with Sketch.</desc>
    <g id="提交订单" stroke="none" stroke-width="1" fill="none" fill-rule="evenodd">
        <g id="预约信息组件/填写推广码（输入有误）" transform="translate(-73.000000, -348.000000)" fill="#F5181B" fill-rule="nonzero">
            <g id="Group-3" transform="translate(73.000000, 346.000000)">
                <g id="icon/error" transform="translate(0.000000, 2.000000)">
                    <path d="M5.4846358,-4.97379915e-14 C8.51371172,-4.97379915e-14 10.9692716,2.45555987 10.9692716,5.4846358 C10.9692716,8.51371172 8.51371172,10.9692458 5.4846358,10.9692458 C2.45553408,10.9692458 2.30926389e-13,8.51368592 2.30926389e-13,5.48461 C2.30926389e-13,2.45553408 2.45553408,-4.97379915e-14 5.4846358,-4.97379915e-14 Z M7.4443317,3.52473351 C7.30951119,3.38993879 7.09079547,3.38993879 6.95579437,3.52473351 L6.95579437,3.52473351 L5.48264935,4.99787853 L4.03024595,3.54547513 C3.89632836,3.41160914 3.67941851,3.41160914 3.54550093,3.54547513 C3.41160914,3.67939271 3.41160914,3.89632836 3.54550093,4.03022015 L3.54550093,4.03022015 L4.99790433,5.48262355 L3.53569768,6.94503659 C3.40067078,7.07985711 3.40067078,7.29857282 3.53569768,7.43357392 C3.67049239,7.56857502 3.88918231,7.56857502 4.02420921,7.43357392 L4.02420921,7.43357392 L5.48641586,5.97136727 L6.93905145,7.42374487 C7.07273685,7.55766246 7.28987888,7.55766246 7.42374487,7.42374487 C7.55766246,7.28987888 7.55766246,7.07273685 7.42374487,6.93905145 L7.42374487,6.93905145 L5.97136727,5.48641586 L7.4443317,4.01347723 C7.5793328,3.87845033 7.5793328,3.65973461 7.4443317,3.52473351 Z" id="order_pop_icon_error"></path>
                </g>
            </g>
        </g>
    </g>
</svg>