<?xml version="1.0" encoding="UTF-8"?>
<svg width="17px" height="16px" viewBox="0 0 17 16" version="1.1" xmlns="http://www.w3.org/2000/svg" xmlns:xlink="http://www.w3.org/1999/xlink">
    <!-- Generator: Sketch 64 (93537) - https://sketch.com -->
    <title>order_icon_pen</title>
    <desc>Created with Sketch.</desc>
    <defs>
        <filter x="-11.6%" y="-10.9%" width="123.1%" height="121.7%" filterUnits="objectBoundingBox" id="filter-1">
            <feOffset dx="0" dy="1" in="SourceAlpha" result="shadowOffsetOuter1"></feOffset>
            <feGaussianBlur stdDeviation="10" in="shadowOffsetOuter1" result="shadowBlurOuter1"></feGaussianBlur>
            <feColorMatrix values="0 0 0 0 0   0 0 0 0 0   0 0 0 0 0  0 0 0 0.08 0" type="matrix" in="shadowBlurOuter1" result="shadowMatrixOuter1"></feColorMatrix>
            <feMerge>
                <feMergeNode in="shadowMatrixOuter1"></feMergeNode>
                <feMergeNode in="SourceGraphic"></feMergeNode>
            </feMerge>
        </filter>
    </defs>
    <g id="提交订单" stroke="none" stroke-width="1" fill="none" fill-rule="evenodd">
        <g id="提交订单/多订单" transform="translate(-19.000000, -404.000000)" fill-rule="nonzero">
            <g id="编组-18" filter="url(#filter-1)" transform="translate(8.000000, 116.000000)">
                <g id="服务栏" transform="translate(0.000000, 271.000000)">
                    <g id="submitorder_icon_fillin" transform="translate(11.000000, 16.000000)">
                        <g id="submitorder_icon_right" transform="translate(0.800000, 0.800000)">
                            <path d="M5.9818382,13.6440909 L12.4908635,7.13044251 L14.2955815,5.32444263 L11.1782752,2.20385674 C11.1409861,2.22795947 11.0984398,2.25805308 11.0487672,2.29305682 C10.6937588,2.54322719 10.1561193,3.02032187 9.28612176,3.88357803 L2.75269635,10.4205029 L2.09341714,14.3064155 L5.97540656,13.646866 L5.9818382,13.6440909 Z" id="形状" stroke="#FFAB11" stroke-width="1.2"></path>
                            <path d="M10.991949,7.44541316 L9.5587157,6.01116186 C9.26533972,5.7175775 9.26533972,5.24180417 9.5587157,4.94821981 C9.85182253,4.65490481 10.3272114,4.65473604 10.6205264,4.94784286 C10.6206521,4.94796847 10.6207777,4.94809412 10.6209033,4.94821981 L12.0541366,6.38247112 C12.3475126,6.67605548 12.3475126,7.1518288 12.0541366,7.44541316 C11.7610298,7.73872817 11.285641,7.73889694 10.992326,7.44579011 C10.9922003,7.44566451 10.9920746,7.44553886 10.991949,7.44541316 Z" id="路径" fill="#FFAB11"></path>
                        </g>
                    </g>
                </g>
            </g>
        </g>
    </g>
</svg>