<?xml version="1.0" encoding="UTF-8"?>
<svg width="14px" height="14px" viewBox="0 0 14 14" version="1.1" xmlns="http://www.w3.org/2000/svg" xmlns:xlink="http://www.w3.org/1999/xlink">
    <!-- Generator: Sketch 64 (93537) - https://sketch.com -->
    <title>order_pop_icon_point</title>
    <desc>Created with Sketch.</desc>
    <g id="提交订单" stroke="none" stroke-width="1" fill-rule="evenodd">
        <g id="预约信息组件/优惠券选择（默认）" transform="translate(-16.000000, -504.000000)" fill-rule="nonzero">
            <g id="Group-11" transform="translate(16.000000, 503.000000)">
                <path d="M7,15 L7,15 C3.13400391,15 -6.82121026e-13,11.8659961 -6.82121026e-13,8 C-6.82121026e-13,4.13400391 3.13400391,1 7,1 C10.8659961,1 14,4.13400391 14,8 L14,8 C14,11.8659961 10.8659961,15 7,15 C7,15 7,15 7,15 L7,15 Z M7.99999972,4.99999357 L7.99999972,4.99999357 C7.99999972,4.4477092 7.55228527,3.99999357 6.99999972,3.99999357 C6.44771535,3.99999357 5.99999972,4.4477092 5.99999972,4.99999357 L5.99999972,7.99999357 L5.99999972,7.99999357 C5.99999972,8.55228511 6.44771535,8.99999357 6.99999972,8.99999357 C7.55228527,8.99999357 7.99999972,8.55228374 7.99999972,7.99999357 L7.99999972,4.99999357 L7.99999972,4.99999357 Z M6.99999968,9.99999023 L6.99999968,9.99999023 C6.4477153,9.99999023 5.99999968,10.4477059 5.99999968,10.9999902 C5.99999968,11.5522758 6.4477153,11.9999902 6.99999968,11.9999902 C7.55228522,11.9999902 7.99999968,11.5522758 7.99999968,10.9999902 L7.99999968,10.9999902 C7.99999968,10.4477059 7.55228522,9.99999023 6.99999968,9.99999023 C6.99999968,9.99999023 6.99999968,9.99999023 6.99999968,9.99999023 L6.99999968,9.99999023 Z" id="order_pop_icon_point"></path>
            </g>
        </g>
    </g>
</svg>