<?xml version="1.0" encoding="UTF-8"?>
<svg width="32px" height="32px" viewBox="0 0 32 32" version="1.1" xmlns="http://www.w3.org/2000/svg" xmlns:xlink="http://www.w3.org/1999/xlink">
    <title>orderdetails_icon_location</title>
    <defs>
        <linearGradient x1="21.5850411%" y1="7.45682621%" x2="78.2653814%" y2="90.2743816%" id="linearGradient-1">
            <stop stop-color="#FA7532" offset="0%"></stop>
            <stop stop-color="#FA5300" offset="100%"></stop>
        </linearGradient>
    </defs>
    <g id="实体类业务流程" stroke="none" stroke-width="1" fill="none" fill-rule="evenodd">
        <g id="提交订单/有地址" transform="translate(-20.000000, -144.000000)" fill-rule="nonzero">
            <g id="提交订单/地址卡片/有地址" transform="translate(8.000000, 120.000000)">
                <g id="Group" transform="translate(12.000000, 24.000000)">
                    <circle id="Oval" fill="url(#linearGradient-1)" cx="16" cy="16" r="16"></circle>
                    <path d="M16,8 C19.8659932,8 23,11.1340068 23,15 C23,17.5773288 20.6666667,20.9106622 16,25 C11.3333333,20.9106622 9,17.5773288 9,15 C9,11.1340068 12.1340068,8 16,8 Z M16,12 C14.3431458,12 13,13.3431458 13,15 C13,16.6568542 14.3431458,18 16,18 C17.6568542,18 19,16.6568542 19,15 C19,13.3431458 17.6568542,12 16,12 Z" id="Combined-Shape" fill="#FFFFFF"></path>
                </g>
            </g>
        </g>
    </g>
</svg>