<?xml version="1.0" encoding="UTF-8"?>
<svg width="29px" height="29px" viewBox="0 0 29 29" version="1.1" xmlns="http://www.w3.org/2000/svg" xmlns:xlink="http://www.w3.org/1999/xlink">
    <title>tabbar_icon_mine_def</title>
    <g id="一级页面" stroke="none" stroke-width="1" fill="none" fill-rule="evenodd">
        <g id="tabbar图标" transform="translate(-314.000000, -393.000000)" fill="#3D3E40" fill-rule="nonzero">
            <g id="全局/标签栏-copy-2" transform="translate(0.000000, 388.000000)">
                <g id="Combined-Shape-2" transform="translate(314.000000, 5.000000)">
                    <path d="M14.5,2.41666667 C21.1734407,2.41666667 26.5833333,7.82655927 26.5833333,14.5 C26.5833333,21.1734407 21.1734407,26.5833333 14.5,26.5833333 C7.82655927,26.5833333 2.41666667,21.1734407 2.41666667,14.5 C2.41666667,7.82655927 7.82655927,2.41666667 14.5,2.41666667 Z M14.5,4.22916667 C8.82757538,4.22916667 4.22916667,8.82757538 4.22916667,14.5 C4.22916667,20.1724246 8.82757538,24.7708333 14.5,24.7708333 C20.1724246,24.7708333 24.7708333,20.1724246 24.7708333,14.5 C24.7708333,8.82757538 20.1724246,4.22916667 14.5,4.22916667 Z M18.527826,16.3436046 C18.9740909,16.463181 19.2528806,16.8957991 19.1912432,17.3418976 L19.1686415,17.4535297 C18.6188196,19.5163813 16.7368616,21.0359043 14.5,21.0359043 C12.2631384,21.0359043 10.3811804,19.5163813 9.83004398,17.4532534 L9.83135851,17.4535297 L9.80875683,17.3418976 C9.74711942,16.8957991 10.0259091,16.463181 10.472174,16.3436046 C10.9556277,16.2140636 11.452558,16.5009665 11.5820991,16.9844202 L11.5812683,16.984213 C11.9257168,18.2736855 13.101949,19.2234043 14.5,19.2234043 C15.8943892,19.2234043 17.0681202,18.278654 17.4160081,16.9943381 L17.4179009,16.9844202 C17.547442,16.5009665 18.0443723,16.2140636 18.527826,16.3436046 Z" id="Combined-Shape"></path>
                </g>
            </g>
        </g>
    </g>
</svg>