<?xml version="1.0" encoding="UTF-8"?>
<svg width="29px" height="29px" viewBox="0 0 29 29" version="1.1" xmlns="http://www.w3.org/2000/svg" xmlns:xlink="http://www.w3.org/1999/xlink">
    <title>tabbar_icon_shop_def</title>
    <g id="一级页面" stroke="none" stroke-width="1" fill="none" fill-rule="evenodd">
        <g id="tabbar图标" transform="translate(-126.000000, -393.000000)" fill="#3D3E40" fill-rule="nonzero">
            <g id="全局/标签栏-copy-2" transform="translate(0.000000, 388.000000)">
                <g id="图标/tabbar/首页1-copy" transform="translate(125.000000, 5.000000)">
                    <g id="Combined-Shape-2" transform="translate(0.656909, 0.000000)">
                        <path d="M18.5877234,3.02083333 C20.6777297,3.02083333 21.4366995,3.22832185 22.2084459,3.62329052 C22.9801924,4.0182592 23.5941025,4.60070803 24.0290874,5.35062866 C24.4640722,6.10054929 24.7111645,6.84756478 24.8210128,8.93468229 L25.4503348,20.891799 C25.5906341,23.5574857 23.543403,25.8321869 20.8777163,25.9724862 C20.7931114,25.9769391 20.708404,25.9791667 20.6236819,25.9791667 L9.0625,25.9791667 C6.39312371,25.9791667 4.22916667,23.8152096 4.22916667,21.1458333 C4.22916667,21.0611113 4.23139427,20.9764039 4.23584716,20.891799 L4.86516909,8.93468229 C4.97501738,6.84756478 5.22210968,6.10054929 5.65709453,5.35062866 C6.09207938,4.60070803 6.70598957,4.0182592 7.47773598,3.62329052 C8.24948239,3.22832185 9.00845226,3.02083333 11.0984585,3.02083333 L18.5877234,3.02083333 Z M19.1956354,4.83333333 L10.4905465,4.83333333 C9.18387569,4.83333333 8.70937377,4.96312072 8.2269263,5.2101446 C7.74447883,5.45716849 7.36075281,5.82142889 7.08896983,6.29037491 C6.83417329,6.73001181 6.68264039,7.16803416 6.60869376,8.29627587 L6.5949313,8.53133213 L5.94610948,20.9887112 C5.94338397,21.0410409 5.94202053,21.0934327 5.94202053,21.1458333 C5.94202053,22.7546092 7.19961355,24.0696585 8.78535695,24.1615386 L8.96285386,24.1666667 L20.7233281,24.1666667 C20.7757287,24.1666667 20.8281205,24.1653032 20.8804502,24.1625777 C22.4870484,24.0789007 23.7349067,22.7546105 23.7441835,21.1662346 L23.7400725,20.9887112 L23.0912506,8.53133213 C23.023287,7.22642997 22.8689951,6.75932094 22.5972121,6.29037491 C22.3254291,5.82142889 21.9417031,5.45716849 21.4592556,5.2101446 C20.9768082,4.96312072 20.5023062,4.83333333 19.1956354,4.83333333 Z M18.8709169,8.59936701 C19.3171819,8.71894333 19.5959715,9.15156147 19.5343341,9.59765995 L19.5117325,9.70929205 C18.9619106,11.7721437 17.0799526,13.2916667 14.843091,13.2916667 C12.6062293,13.2916667 10.7242713,11.7721437 10.1731349,9.70901573 L10.1744495,9.70929205 L10.1518478,9.59765995 C10.0902104,9.15156147 10.3690001,8.71894333 10.815265,8.59936701 C11.2987186,8.46982599 11.795649,8.75672888 11.92519,9.24018253 L11.9243593,9.2399754 C12.2688078,10.5294479 13.44504,11.4791667 14.843091,11.4791667 C16.2374802,11.4791667 17.4112111,10.5344163 17.7590991,9.25010045 L17.7609919,9.24018253 C17.8905329,8.75672888 18.3874633,8.46982599 18.8709169,8.59936701 Z" id="Combined-Shape"></path>
                    </g>
                </g>
            </g>
        </g>
    </g>
</svg>