<?xml version="1.0" encoding="UTF-8"?>
<svg width="29px" height="29px" viewBox="0 0 29 29" version="1.1" xmlns="http://www.w3.org/2000/svg" xmlns:xlink="http://www.w3.org/1999/xlink">
    <title>tabbar_icon_home_def</title>
    <g id="一级页面" stroke="none" stroke-width="1" fill="none" fill-rule="evenodd">
        <g id="tabbar图标" transform="translate(-32.000000, -277.000000)" fill="#3D3E40"  fill-rule="nonzero">
            <g id="全局/标签栏-copy" transform="translate(0.000000, 272.000000)" >
                <g id="Group" transform="translate(32.000000, 5.000000)">
                    <path d="M15.4710386,2.8131713 C16.1226479,2.96108949 16.6745898,3.18592515 18.0517082,4.05568415 L22.8025756,7.05623198 C24.0657242,7.85401003 24.4731001,8.20692254 24.8673254,8.66809657 C25.2615506,9.1292706 25.5395109,9.63358141 25.7189149,10.2131582 C25.8983189,10.7927349 25.9791667,11.3256195 25.9791667,12.8196055 L25.9791667,19.7831108 C25.9791667,21.9376144 25.7548381,22.7188895 25.333596,23.5065438 C24.9123538,24.2941981 24.2941981,24.9123538 23.5065438,25.333596 C22.7188895,25.7548381 21.9376144,25.9791667 19.7831108,25.9791667 L9.21688923,25.9791667 C7.06238561,25.9791667 6.28111054,25.7548381 5.49345622,25.333596 C4.7058019,24.9123538 4.08764617,24.2941981 3.66640403,23.5065438 C3.24516189,22.7188895 3.02083333,21.9376144 3.02083333,19.7831108 L3.02083333,12.8196055 C3.02083333,11.3256195 3.10168106,10.7927349 3.28108508,10.2131582 C3.4604891,9.63358141 3.73844943,9.1292706 4.13267464,8.66809657 C4.52689986,8.20692254 4.93427578,7.85401003 6.19742436,7.05623198 L10.9482918,4.05568415 C12.3254102,3.18592515 12.8773521,2.96108949 13.5289614,2.8131713 C14.1805706,2.6652531 14.8194294,2.6652531 15.4710386,2.8131713 Z M13.8891899,4.56298879 C13.5086878,4.64991847 13.1823291,4.77882278 12.4463011,5.23752766 L12.2689651,5.34936809 L6.8053714,8.83240907 C6.02051151,9.33275725 5.76758135,9.5533451 5.52288696,9.84122964 C5.27819258,10.1291142 5.10580417,10.4434507 4.99458936,10.8045381 C4.89192953,11.1378495 4.84139396,11.4462539 4.83422671,12.223813 L4.83333333,12.4282627 L4.83333333,20.2941317 C4.83333333,21.6406965 4.97353868,22.1289934 5.23681502,22.6212774 C5.50009136,23.1135613 5.88643868,23.4999086 6.37872264,23.763185 C6.84023884,24.0100065 7.29825082,24.1486603 8.46323469,24.1650278 L8.70586827,24.1666667 L20.2941317,24.1666667 C21.6406965,24.1666667 22.1289934,24.0264613 22.6212774,23.763185 C23.1135613,23.4999086 23.4999086,23.1135613 23.763185,22.6212774 C24.0100065,22.1597612 24.1486603,21.7017492 24.1650278,20.5367653 L24.1666667,20.2941317 L24.1666667,12.4282627 C24.1666667,11.4974817 24.1166255,11.1656255 24.0054106,10.8045381 C23.8941958,10.4434507 23.7218074,10.1291142 23.477113,9.84122964 C23.2512413,9.57549007 23.0183521,9.36709204 22.3665459,8.94306584 L22.1946286,8.83240907 L16.7310349,5.34936809 C15.8675596,4.79890258 15.5205816,4.65660537 15.1108101,4.56298879 C14.7010386,4.4693722 14.2989614,4.4693722 13.8891899,4.56298879 Z M14.5,15.7083333 C15.0005081,15.7083333 15.40625,16.1140753 15.40625,16.6145833 L15.40625,20.84375 C15.40625,21.3442581 15.0005081,21.75 14.5,21.75 C13.9994919,21.75 13.59375,21.3442581 13.59375,20.84375 L13.59375,16.6145833 C13.59375,16.1140753 13.9994919,15.7083333 14.5,15.7083333 Z" id="Combined-Shape"></path>
                </g>
            </g>
        </g>
    </g>
</svg>