<?xml version="1.0" encoding="UTF-8"?>
<svg width="29px" height="29px" viewBox="0 0 29 29" version="1.1" xmlns="http://www.w3.org/2000/svg" xmlns:xlink="http://www.w3.org/1999/xlink">
    <title>tabbar_icon_mine_sel</title>
    <defs>
        <linearGradient x1="21.5850411%" y1="7.45682621%" x2="91.060401%" y2="93.9439405%" id="linearGradient-1">
            <stop stop-color="#FFC233" offset="0%"></stop>
            <stop stop-color="#FFA319" offset="100%"></stop>
        </linearGradient>
    </defs>
    <g id="一级页面" stroke="none" stroke-width="1" fill="none" fill-rule="evenodd">
        <g id="tabbar图标" transform="translate(-314.000000, -509.000000)" fill="url(#linearGradient-1)" fill-rule="nonzero">
            <g id="全局/标签栏-copy-3" transform="translate(0.000000, 504.000000)">
                <g id="Combined-Shape-2" transform="translate(314.000000, 5.000000)">
                    <path d="M14.5,2.41666667 C21.1734407,2.41666667 26.5833333,7.82655927 26.5833333,14.5 C26.5833333,21.1734407 21.1734407,26.5833333 14.5,26.5833333 C7.82655927,26.5833333 2.41666667,21.1734407 2.41666667,14.5 C2.41666667,7.82655927 7.82655927,2.41666667 14.5,2.41666667 Z M18.897801,15.7498062 C18.2531961,15.5770848 17.5906223,15.959622 17.4179009,16.6042269 L17.4179009,16.6042269 L17.4013055,16.6783333 L17.3812222,16.7338847 C17.2808569,17.0515501 17.1281225,17.3498841 16.9298419,17.6176321 C16.362527,18.3837052 15.4706529,18.843211 14.5,18.843211 C13.5293471,18.843211 12.637473,18.3837052 12.0701581,17.6176321 C11.8718775,17.3498841 11.7191431,17.0515501 11.6187778,16.7338847 C11.612495,16.7139991 11.6057456,16.6943903 11.5990808,16.6761941 C11.5941781,16.6521976 11.5885226,16.6281998 11.5820991,16.6042269 C11.4093777,15.959622 10.7468039,15.5770848 10.102199,15.7498062 C9.45759414,15.9225275 9.07505696,16.5851014 9.24777832,17.2297062 L9.24777832,17.2297062 L9.28167522,17.3352085 C9.29020672,17.3775406 9.30108564,17.4198374 9.31439037,17.4619481 C9.49572622,18.0358927 9.77122343,18.5740177 10.1280504,19.0558587 C11.1463899,20.4309722 12.7552473,21.2598777 14.5,21.2598777 C16.2447527,21.2598777 17.8536101,20.4309722 18.8719496,19.0558587 C19.2287766,18.5740177 19.5042738,18.0358927 19.6856096,17.4619481 C19.6989144,17.4198374 19.7097933,17.3775406 19.7189464,17.3347721 C19.731495,17.3005943 19.7426159,17.2655556 19.7522217,17.2297062 C19.924943,16.5851014 19.5424059,15.9225275 18.897801,15.7498062 Z" id="Combined-Shape"></path>
                </g>
            </g>
        </g>
    </g>
</svg>