<?xml version="1.0" encoding="UTF-8"?>
<svg width="29px" height="29px" viewBox="0 0 29 29" version="1.1" xmlns="http://www.w3.org/2000/svg" xmlns:xlink="http://www.w3.org/1999/xlink">
    <title>tabbar_icon_shop_sel</title>
    <defs>
        <linearGradient x1="25.706884%" y1="7.45682621%" x2="85.1042242%" y2="93.9439405%" id="linearGradient-1">
            <stop stop-color="#FFC233" offset="0%"></stop>
            <stop stop-color="#FFA319" offset="100%"></stop>
        </linearGradient>
    </defs>
    <g id="一级页面" stroke="none" stroke-width="1" fill="none" fill-rule="evenodd">
        <g id="tabbar图标" transform="translate(-126.000000, -277.000000)" fill="url(#linearGradient-1)" fill-rule="nonzero">
            <g id="全局/标签栏-copy" transform="translate(0.000000, 272.000000)">
                <g id="图标/tabbar/首页1-copy" transform="translate(125.000000, 5.000000)">
                    <g id="Combined-Shape-2" transform="translate(0.656909, 0.000000)">
                        <path d="M18.5877234,3.02083333 C20.6777297,3.02083333 21.4366995,3.22832185 22.2084459,3.62329052 C22.9801924,4.0182592 23.5941025,4.60070803 24.0290874,5.35062866 C24.4640722,6.10054929 24.7111645,6.84756478 24.8210128,8.93468229 L25.4503348,20.891799 C25.5906341,23.5574857 23.543403,25.8321869 20.8777163,25.9724862 C20.7931114,25.9769391 20.708404,25.9791667 20.6236819,25.9791667 L9.0625,25.9791667 C6.39312371,25.9791667 4.22916667,23.8152096 4.22916667,21.1458333 C4.22916667,21.0611113 4.23139427,20.9764039 4.23584716,20.891799 L4.86516909,8.93468229 C4.97501738,6.84756478 5.22210968,6.10054929 5.65709453,5.35062866 C6.09207938,4.60070803 6.70598957,4.0182592 7.47773598,3.62329052 C8.24948239,3.22832185 9.00845226,3.02083333 11.0984585,3.02083333 L18.5877234,3.02083333 Z M19.240892,7.89563953 C18.5962871,7.72291817 17.9337133,8.10545535 17.7609919,8.75006022 L17.7609919,8.75006022 L17.7443964,8.82416667 L17.7243132,8.87971799 C17.6239478,9.19738346 17.4712135,9.49571742 17.2729329,9.76346547 C16.7056179,10.5295386 15.8137439,10.9890444 14.843091,10.9890444 C13.8724381,10.9890444 12.980564,10.5295386 12.4132491,9.76346547 C12.2149684,9.49571742 12.0622341,9.19738346 11.9618688,8.87971799 C11.955586,8.8598324 11.9488366,8.84022363 11.9421717,8.82202738 C11.9372691,8.79803089 11.9316136,8.77403313 11.92519,8.75006022 C11.7524687,8.10545535 11.0898949,7.72291817 10.44529,7.89563953 C9.8006851,8.06836088 9.41814793,8.73093471 9.59086928,9.37553958 L9.59086928,9.37553958 L9.62476618,9.48104186 C9.63329768,9.52337397 9.64417661,9.56567076 9.65748133,9.60778143 C9.83881718,10.181726 10.1143144,10.719851 10.4711414,11.201692 C11.4894808,12.5768056 13.0983382,13.405711 14.843091,13.405711 C16.5878437,13.405711 18.1967011,12.5768056 19.2150405,11.201692 C19.5718675,10.719851 19.8473647,10.181726 20.0287006,9.60778143 C20.0420053,9.56567076 20.0528842,9.52337397 20.0620373,9.4806054 C20.074586,9.44642765 20.0857068,9.4113889 20.0953126,9.37553958 C20.268034,8.73093471 19.8854968,8.06836088 19.240892,7.89563953 Z" id="Combined-Shape"></path>
                    </g>
                </g>
            </g>
        </g>
    </g>
</svg>