<?xml version="1.0" encoding="UTF-8"?>
<svg width="29px" height="29px" viewBox="0 0 29 29" version="1.1" xmlns="http://www.w3.org/2000/svg" xmlns:xlink="http://www.w3.org/1999/xlink">
    <title>tabbar_icon_ent_def</title>
    <g id="团检" stroke="none" stroke-width="1" fill="none" fill-rule="evenodd">
        <g id="个人中心/无家属额度" transform="translate(-173.000000, -948.000000)" fill-rule="nonzero">
            <g id="全局/标签栏-copy-3" transform="translate(0.000000, 943.000000)">
                <g id="Group-2" transform="translate(165.000000, 5.000000)">
                    <g id="图标/tabbar/首页1-copy-4" transform="translate(8.000000, 0.000000)">
                        <g id="Group-2" transform="translate(3.020833, 1.208333)">
                            <path d="M11.1308757,2.38058885 C12.1829313,2.11757495 13.2419964,2.30589034 14.103801,2.82297312 C14.9656057,3.3400559 15.6301499,4.18590606 15.8931638,5.23796169 C15.9710384,5.54946031 16.0104167,5.86933387 16.0104167,6.1904193 L16.0104167,6.1904193 L16.0104167,23.8645833 L6.1960559,23.8645833 C4.29819976,23.8645833 3.59725442,23.6990102 2.90000935,23.3261194 C2.27262183,22.9905889 1.78024443,22.4982115 1.44471391,21.870824 C1.07182317,21.1735789 0.90625,20.4726336 0.90625,18.5747774 L0.90625,18.5747774 L0.90625,9.24523759 C0.90625,7.59715881 1.01795905,6.99100118 1.28922196,6.36235481 C1.53171392,5.80038456 1.89580045,5.33407112 2.38217874,4.96252156 C2.92626437,4.54688874 3.48723023,4.29150023 5.0861015,3.89178241 L5.0861015,3.89178241 Z" id="Rectangle" stroke="#3D3E40" stroke-width="1.8125"></path>
                            <path d="M16.0104167,9.08119226 L18.1169867,9.72936765 C19.6413666,10.1984076 20.1708131,10.4675031 20.6817822,10.8872695 C21.1377791,11.2618756 21.4757167,11.7194294 21.6996551,12.2654279 C21.9505903,12.8772489 22.0520833,13.4624198 22.0520833,15.0573282 L22.0520833,15.0573282 L22.0520833,18.7069241 C22.0520833,20.4571127 21.884731,21.1769057 21.5136194,21.870824 C21.1780889,22.4982115 20.6857115,22.9905889 20.058324,23.3261194 C19.3644057,23.697231 18.6446127,23.8645833 16.8944241,23.8645833 L16.8944241,23.8645833 L16.0104167,23.8645833 L16.0104167,9.08119226 Z" id="Rectangle" stroke="#3D3E40" stroke-width="1.8125"></path>
                            <path d="M10.5729167,15.1041667 C11.0734247,15.1041667 11.4791667,15.5099086 11.4791667,16.0104167 C11.4791667,16.5109247 11.0734247,16.9166667 10.5729167,16.9166667 L6.34375,16.9166667 C5.84324195,16.9166667 5.4375,16.5109247 5.4375,16.0104167 C5.4375,15.5099086 5.84324195,15.1041667 6.34375,15.1041667 L10.5729167,15.1041667 Z M10.5729167,9.66666667 C11.0734247,9.66666667 11.4791667,10.0724086 11.4791667,10.5729167 C11.4791667,11.0734247 11.0734247,11.4791667 10.5729167,11.4791667 L6.34375,11.4791667 C5.84324195,11.4791667 5.4375,11.0734247 5.4375,10.5729167 C5.4375,10.0724086 5.84324195,9.66666667 6.34375,9.66666667 L10.5729167,9.66666667 Z" id="Combined-Shape" fill="#3D3E40"></path>
                        </g>
                    </g>
                </g>
            </g>
        </g>
    </g>
</svg>