<?xml version="1.0" encoding="UTF-8"?>
<svg width="29px" height="29px" viewBox="0 0 29 29" version="1.1" xmlns="http://www.w3.org/2000/svg" xmlns:xlink="http://www.w3.org/1999/xlink">
    <title>tabbar_icon_heal_sel</title>
    <defs>
        <linearGradient x1="27.2522905%" y1="7.45682621%" x2="82.8710689%" y2="93.9439405%" id="linearGradient-1">
            <stop stop-color="#FFC233" offset="0%"></stop>
            <stop stop-color="#FFA319" offset="100%"></stop>
        </linearGradient>
    </defs>
    <g id="一级页面" stroke="none" stroke-width="1" fill="none" fill-rule="evenodd">
        <g id="tabbar图标" transform="translate(-220.000000, -393.000000)" fill="url(#linearGradient-1)" fill-rule="nonzero">
            <g id="全局/标签栏-copy-2" transform="translate(0.000000, 388.000000)">
                <g id="Combined-Shape-2" transform="translate(220.000000, 5.000000)">
                    <path d="M18.5747774,3.02083333 C20.7292811,3.02083333 21.5105561,3.24516189 22.2982105,3.66640403 C23.0858648,4.08764617 23.7040205,4.7058019 24.1252626,5.49345622 C24.5465048,6.28111054 24.7708333,7.06238561 24.7708333,9.21688923 L24.7708333,19.7831108 C24.7708333,21.9376144 24.5465048,22.7188895 24.1252626,23.5065438 C23.7040205,24.2941981 23.0858648,24.9123538 22.2982105,25.333596 C21.5105561,25.7548381 20.7292811,25.9791667 18.5747774,25.9791667 L10.4252226,25.9791667 C8.27071895,25.9791667 7.48944387,25.7548381 6.70178955,25.333596 C5.91413523,24.9123538 5.29597951,24.2941981 4.87473737,23.5065438 C4.45349523,22.7188895 4.22916667,21.9376144 4.22916667,19.7831108 L4.22916667,9.21688923 C4.22916667,7.06238561 4.45349523,6.28111054 4.87473737,5.49345622 C5.29597951,4.7058019 5.91413523,4.08764617 6.70178955,3.66640403 C7.48944387,3.24516189 8.27071895,3.02083333 10.4252226,3.02083333 L18.5747774,3.02083333 Z M15.1041667,16.3125 L10.2708333,16.3125 C9.60348926,16.3125 9.0625,16.8534893 9.0625,17.5208333 C9.0625,18.1881774 9.60348926,18.7291667 10.2708333,18.7291667 L10.2708333,18.7291667 L15.1041667,18.7291667 C15.7715107,18.7291667 16.3125,18.1881774 16.3125,17.5208333 C16.3125,16.8534893 15.7715107,16.3125 15.1041667,16.3125 L15.1041667,16.3125 Z M18.7291667,10.2708333 L10.2708333,10.2708333 C9.60348926,10.2708333 9.0625,10.8118226 9.0625,11.4791667 C9.0625,12.1465107 9.60348926,12.6875 10.2708333,12.6875 L10.2708333,12.6875 L18.7291667,12.6875 C19.3965107,12.6875 19.9375,12.1465107 19.9375,11.4791667 C19.9375,10.8118226 19.3965107,10.2708333 18.7291667,10.2708333 L18.7291667,10.2708333 Z" id="Combined-Shape"></path>
                </g>
            </g>
        </g>
    </g>
</svg>