<?xml version="1.0" encoding="UTF-8"?>
<svg width="29px" height="29px" viewBox="0 0 29 29" version="1.1" xmlns="http://www.w3.org/2000/svg" xmlns:xlink="http://www.w3.org/1999/xlink">
    <title>tabbar_icon_home_sel</title>
    <defs>
        <linearGradient x1="22.3575715%" y1="7.45682621%" x2="89.9440732%" y2="93.9439405%" id="linearGradient-1">
            <stop stop-color="#FFC233" offset="0%"></stop>
            <stop stop-color="#FFA319" offset="100%"></stop>
        </linearGradient>
    </defs>
    <g id="一级页面" stroke="none" stroke-width="1" fill="none" fill-rule="evenodd">
        <g id="tabbar图标" transform="translate(-32.000000, -161.000000)" fill="url(#linearGradient-1)" fill-rule="nonzero">
            <g id="全局/标签栏" transform="translate(0.000000, 156.000000)">
                <g id="Group" transform="translate(32.000000, 5.000000)">
                    <path d="M15.4710386,2.8131713 C16.1226479,2.96108949 16.6745898,3.18592515 18.0517082,4.05568415 L22.8025756,7.05623198 C24.0657242,7.85401003 24.4731001,8.20692254 24.8673254,8.66809657 C25.2615506,9.1292706 25.5395109,9.63358141 25.7189149,10.2131582 C25.8983189,10.7927349 25.9791667,11.3256195 25.9791667,12.8196055 L25.9791667,19.7831108 C25.9791667,21.9376144 25.7548381,22.7188895 25.333596,23.5065438 C24.9123538,24.2941981 24.2941981,24.9123538 23.5065438,25.333596 C22.7188895,25.7548381 21.9376144,25.9791667 19.7831108,25.9791667 L9.21688923,25.9791667 C7.06238561,25.9791667 6.28111054,25.7548381 5.49345622,25.333596 C4.7058019,24.9123538 4.08764617,24.2941981 3.66640403,23.5065438 C3.24516189,22.7188895 3.02083333,21.9376144 3.02083333,19.7831108 L3.02083333,12.8196055 C3.02083333,11.3256195 3.10168106,10.7927349 3.28108508,10.2131582 C3.4604891,9.63358141 3.73844943,9.1292706 4.13267464,8.66809657 C4.52689986,8.20692254 4.93427578,7.85401003 6.19742436,7.05623198 L10.9482918,4.05568415 C12.3254102,3.18592515 12.8773521,2.96108949 13.5289614,2.8131713 C14.1805706,2.6652531 14.8194294,2.6652531 15.4710386,2.8131713 Z M14.5,15.7083333 C13.8326559,15.7083333 13.2916667,16.2493226 13.2916667,16.9166667 L13.2916667,16.9166667 L13.2916667,20.5416667 C13.2916667,21.2090107 13.8326559,21.75 14.5,21.75 C15.1673441,21.75 15.7083333,21.2090107 15.7083333,20.5416667 L15.7083333,20.5416667 L15.7083333,16.9166667 C15.7083333,16.2493226 15.1673441,15.7083333 14.5,15.7083333 Z" id="Rectangle-2"></path>
                </g>
            </g>
        </g>
    </g>
</svg>