<?xml version="1.0" encoding="UTF-8"?>
<svg width="29px" height="29px" viewBox="0 0 29 29" version="1.1" xmlns="http://www.w3.org/2000/svg" xmlns:xlink="http://www.w3.org/1999/xlink">
    <title>tabbar_icon_heal_def</title>
    <g id="一级页面" stroke="none" stroke-width="1" fill="none" fill-rule="evenodd">
        <g id="tabbar图标" transform="translate(-220.000000, -277.000000)" fill="#3D3E40" fill-rule="nonzero">
            <g id="全局/标签栏-copy" transform="translate(0.000000, 272.000000)">
                <g id="Combined-Shape-2" transform="translate(220.000000, 5.000000)">
                    <path d="M18.5747774,3.02083333 C20.7292811,3.02083333 21.5105561,3.24516189 22.2982105,3.66640403 C23.0858648,4.08764617 23.7040205,4.7058019 24.1252626,5.49345622 C24.5465048,6.28111054 24.7708333,7.06238561 24.7708333,9.21688923 L24.7708333,19.7831108 C24.7708333,21.9376144 24.5465048,22.7188895 24.1252626,23.5065438 C23.7040205,24.2941981 23.0858648,24.9123538 22.2982105,25.333596 C21.5105561,25.7548381 20.7292811,25.9791667 18.5747774,25.9791667 L10.4252226,25.9791667 C8.27071895,25.9791667 7.48944387,25.7548381 6.70178955,25.333596 C5.91413523,24.9123538 5.29597951,24.2941981 4.87473737,23.5065438 C4.45349523,22.7188895 4.22916667,21.9376144 4.22916667,19.7831108 L4.22916667,9.21688923 C4.22916667,7.06238561 4.45349523,6.28111054 4.87473737,5.49345622 C5.29597951,4.7058019 5.91413523,4.08764617 6.70178955,3.66640403 C7.48944387,3.24516189 8.27071895,3.02083333 10.4252226,3.02083333 L18.5747774,3.02083333 Z M19.0857984,4.83333333 L9.9142016,4.83333333 C8.56763684,4.83333333 8.07933992,4.97353868 7.58705597,5.23681502 C7.09477202,5.50009136 6.70842469,5.88643868 6.44514835,6.37872264 C6.19832679,6.84023884 6.05967308,7.29825082 6.04330551,8.46323469 L6.04166667,8.70586827 L6.04166667,20.2941317 C6.04166667,21.6406965 6.18187202,22.1289934 6.44514835,22.6212774 C6.70842469,23.1135613 7.09477202,23.4999086 7.58705597,23.763185 C8.04857217,24.0100065 8.50658415,24.1486603 9.67156803,24.1650278 L9.9142016,24.1666667 L19.0857984,24.1666667 C20.4323632,24.1666667 20.9206601,24.0264613 21.412944,23.763185 C21.905228,23.4999086 22.2915753,23.1135613 22.5548516,22.6212774 C22.8016732,22.1597612 22.9403269,21.7017492 22.9566945,20.5367653 L22.9583333,20.2941317 L22.9583333,8.70586827 C22.9583333,7.35930351 22.818128,6.87100659 22.5548516,6.37872264 C22.2915753,5.88643868 21.905228,5.50009136 21.412944,5.23681502 C20.9206601,4.97353868 20.4323632,4.83333333 19.0857984,4.83333333 Z M15.40625,16.3125 C15.9067581,16.3125 16.3125,16.7182419 16.3125,17.21875 C16.3125,17.7192581 15.9067581,18.125 15.40625,18.125 L9.96875,18.125 C9.46824195,18.125 9.0625,17.7192581 9.0625,17.21875 C9.0625,16.7182419 9.46824195,16.3125 9.96875,16.3125 L15.40625,16.3125 Z M19.03125,10.875 C19.5317581,10.875 19.9375,11.2807419 19.9375,11.78125 C19.9375,12.2817581 19.5317581,12.6875 19.03125,12.6875 L9.96875,12.6875 C9.46824195,12.6875 9.0625,12.2817581 9.0625,11.78125 C9.0625,11.2807419 9.46824195,10.875 9.96875,10.875 L19.03125,10.875 Z" id="Combined-Shape"></path>
                </g>
            </g>
        </g>
    </g>
</svg>