<?xml version="1.0" encoding="UTF-8"?>
<svg width="29px" height="29px" viewBox="0 0 29 29" version="1.1" xmlns="http://www.w3.org/2000/svg" xmlns:xlink="http://www.w3.org/1999/xlink">
    <title>tabbar_icon_home_sel</title>
    <defs>
        <linearGradient x1="22.6823412%" y1="7.45682621%" x2="89.474772%" y2="93.9439405%" id="linearGradient-1">
            <stop stop-color="#FFC233" offset="0%"></stop>
            <stop stop-color="#FFA319" offset="100%"></stop>
        </linearGradient>
    </defs>
    <g id="团检" stroke="none" stroke-width="1" fill="none" fill-rule="evenodd">
        <g id="团检（无特色功能、健康档案）" transform="translate(-173.000000, -780.000000)" fill="url(#linearGradient-1)" fill-rule="nonzero">
            <g id="全局/标签栏-copy" transform="translate(0.000000, 775.000000)">
                <g id="Group-2" transform="translate(165.000000, 5.000000)">
                    <g id="Group" transform="translate(8.000000, 0.000000)">
                        <path d="M19.7931888,6.22649711 C19.8890345,6.60988003 19.9375,7.00357056 19.9375,7.39875263 L19.9368333,9.62027595 L21.4043353,10.0715263 C23.1216704,10.599937 23.7039744,10.9238765 24.2778823,11.3953477 C24.8517902,11.8668189 25.2771113,12.4426864 25.5589554,13.1298685 C25.8407995,13.8170506 25.9791667,14.4688706 25.9791667,16.2656615 L25.9791667,19.9152574 C25.9791667,21.9111851 25.7548381,22.7188895 25.333596,23.5065438 C24.9123538,24.2941981 24.2941981,24.9123538 23.5065438,25.333596 C22.7582722,25.733776 21.9919054,25.9562415 20.2058809,25.9774876 L19.9375,25.9791667 L9.21688923,25.9791667 C7.06238561,25.9791667 6.28111054,25.7548381 5.49345622,25.333596 C4.7058019,24.9123538 4.08764617,24.2941981 3.66640403,23.5065438 C3.24516189,22.7188895 3.02083333,21.9376144 3.02083333,19.7831108 L3.02083333,10.4535709 C3.02083333,8.59405777 3.17291852,7.91858018 3.47796592,7.21163893 C3.78301333,6.50469768 4.24102296,5.91808975 4.85287185,5.45069186 C5.46472074,4.98329397 6.08314418,4.67192229 7.88713692,4.2209241 L13.9319111,2.70973055 C16.5215865,2.0623117 19.1457699,3.63682172 19.7931888,6.22649711 Z M13.2916667,16.3125 L9.66666667,16.3125 C8.99932259,16.3125 8.45833333,16.8534893 8.45833333,17.5208333 C8.45833333,18.1881774 8.99932259,18.7291667 9.66666667,18.7291667 L9.66666667,18.7291667 L13.2916667,18.7291667 C13.9590107,18.7291667 14.5,18.1881774 14.5,17.5208333 C14.5,16.8534893 13.9590107,16.3125 13.2916667,16.3125 L13.2916667,16.3125 Z M13.2916667,10.875 L9.66666667,10.875 C8.99932259,10.875 8.45833333,11.4159893 8.45833333,12.0833333 C8.45833333,12.7506774 8.99932259,13.2916667 9.66666667,13.2916667 L9.66666667,13.2916667 L13.2916667,13.2916667 C13.9590107,13.2916667 14.5,12.7506774 14.5,12.0833333 C14.5,11.4159893 13.9590107,10.875 13.2916667,10.875 L13.2916667,10.875 Z" id="Combined-Shape"></path>
                    </g>
                </g>
            </g>
        </g>
    </g>
</svg>