<?xml version="1.0" encoding="UTF-8"?>
<svg width="28px" height="16px" viewBox="0 0 28 16" version="1.1" xmlns="http://www.w3.org/2000/svg" xmlns:xlink="http://www.w3.org/1999/xlink">
    <title>tag_three</title>
    <g id="Symbols" stroke="none" stroke-width="1" fill="none" fill-rule="evenodd">
        <g id="首页/推荐机构" transform="translate(-86.000000, -15.000000)" fill-rule="nonzero">
            <g id="tag_three" transform="translate(86.000000, 15.000000)">
                <rect id="Rectangle" fill="#1890FF" x="0" y="0" width="28" height="16" rx="2"></rect>
                <path d="M12.84,5.09 L12.84,4.07 L5.18,4.07 L5.18,5.09 L12.84,5.09 Z M12.15,8.51 L12.15,7.49 L5.86,7.49 L5.86,8.51 L12.15,8.51 Z M13.54,12.21 L13.54,11.17 L4.46,11.17 L4.46,12.21 L13.54,12.21 Z M19.46,12.65 L19.46,9.55 L21.82,9.55 L21.82,10.03 L22.82,10.03 L22.82,3.7 L15.18,3.7 L15.18,10.03 L16.18,10.03 L16.18,9.55 L18.46,9.55 L18.46,12.65 L19.46,12.65 Z M18.46,6.14 L16.18,6.14 L16.18,4.68 L18.46,4.68 L18.46,6.14 Z M21.82,6.14 L19.46,6.14 L19.46,4.68 L21.82,4.68 L21.82,6.14 Z M18.46,8.58 L16.18,8.58 L16.18,7.11 L18.46,7.11 L18.46,8.58 Z M21.82,8.58 L19.46,8.58 L19.46,7.11 L21.82,7.11 L21.82,8.58 Z" id="三甲" fill="#FFFFFF"></path>
            </g>
        </g>
    </g>
</svg>