<?xml version="1.0" encoding="UTF-8"?>
<svg width="12px" height="12px" viewBox="0 0 12 12" version="1.1" xmlns="http://www.w3.org/2000/svg" xmlns:xlink="http://www.w3.org/1999/xlink">
    <!-- Generator: Sketch 64 (93537) - https://sketch.com -->
    <title>video_icon_play</title>
    <desc>Created with Sketch.</desc>
    <g id="首页" stroke="none" stroke-width="1" fill="none" fill-rule="evenodd">
        <g transform="translate(-199.000000, -717.000000)" fill-rule="nonzero" id="科普视频">
            <g transform="translate(0.000000, 585.000000)">
                <g id="Group-22" transform="translate(14.000000, 53.000000)">
                    <g id="科普视频-copy" transform="translate(177.000000, 0.000000)">
                        <g id="Group-2" transform="translate(0.000000, 64.000000)">
                            <g id="播放" transform="translate(8.000000, 15.000000)">
                                <rect id="矩形" fill="#000000" opacity="0" x="0" y="0" width="12" height="12"></rect>
                                <path d="M3.5638852,1 L8.4361148,1 C9.32763354,1 9.65091978,1.09282561 9.9768457,1.2671327 C10.3027716,1.4414398 10.5585602,1.69722837 10.7328673,2.0231543 C10.9071744,2.34908022 11,2.67236646 11,3.5638852 L11,8.4361148 C11,9.32763354 10.9071744,9.65091978 10.7328673,9.9768457 C10.5585602,10.3027716 10.3027716,10.5585602 9.9768457,10.7328673 C9.65091978,10.9071744 9.32763354,11 8.4361148,11 L3.5638852,11 C2.67236646,11 2.34908022,10.9071744 2.0231543,10.7328673 C1.69722837,10.5585602 1.4414398,10.3027716 1.2671327,9.9768457 C1.09282561,9.65091978 1,9.32763354 1,8.4361148 L1,3.5638852 C1,2.67236646 1.09282561,2.34908022 1.2671327,2.0231543 C1.4414398,1.69722837 1.69722837,1.4414398 2.0231543,1.2671327 C2.34908022,1.09282561 2.67236646,1 3.5638852,1 Z" id="Rectangle" stroke="#FFFFFF" stroke-width="0.8" stroke-linecap="round"></path>
                                <path d="M6.67516848,4.76275272 L8.28179646,7.1726947 C8.34629172,7.26943758 8.32014985,7.40014691 8.22340697,7.46464217 C8.18882433,7.48769726 8.14819114,7.5 8.10662798,7.5 L4.89337202,7.5 C4.77710155,7.5 4.6828457,7.40574416 4.6828457,7.28947368 C4.6828457,7.24791053 4.69514845,7.20727733 4.71820354,7.1726947 L6.32483152,4.76275272 C6.38932677,4.66600984 6.52003611,4.63986798 6.61677899,4.70436323 C6.63990579,4.7197811 6.65975062,4.73962593 6.67516848,4.76275272 Z" id="Rectangle" fill="#FFFFFF" transform="translate(6.500000, 6.000000) rotate(-270.000000) translate(-6.500000, -6.000000) "></path>
                            </g>
                        </g>
                    </g>
                </g>
            </g>
        </g>
    </g>
</svg>