<?xml version="1.0" encoding="UTF-8"?>
<svg width="20px" height="20px" viewBox="0 0 20 20" version="1.1" xmlns="http://www.w3.org/2000/svg" xmlns:xlink="http://www.w3.org/1999/xlink">
    <title>welfare_live_icon_like</title>
    <g id="福利商城首页" stroke="none" stroke-width="1" fill="none" fill-rule="evenodd">
        <g transform="translate(-292.000000, -1213.000000)" fill-rule="nonzero" id="直播">
            <g transform="translate(0.000000, 1087.000000)">
                <g id="直播预告" transform="translate(15.000000, 16.000000)">
                    <g id="按钮/中/主按钮/默认" transform="translate(265.000000, 105.000000)">
                        <g id="图标" transform="translate(12.000000, 5.000000)">
                            <rect id="Rectangle" x="0" y="0" width="20" height="20"></rect>
                            <g id="Group-4" transform="translate(2.500000, 4.166667)">
                                <path d="M8.18020452,11.0178278 C7.6163828,11.4009087 7.04210894,11.7423328 6.48148148,12.037037 L6.2600243,11.9185619 C3.07725396,10.1861208 -0.439586329,6.98595077 0.0450328506,3.22894207 C0.540922244,-0.61543893 4.38904635,-0.61543893 6.48148148,1.09473995 C8.57391661,-0.61543893 12.4220407,-0.61543893 12.9179301,3.22894207" id="Path" stroke="#F7F7F7" stroke-width="1.38888889" stroke-linecap="round"></path>
                                <path d="M13.0876758,5.78703704 C13.4712068,5.78703704 13.7821202,6.09795041 13.7821202,6.48148148 L13.781935,8.33303704 L15.6339721,8.33333333 C16.0175031,8.33333333 16.3284165,8.6442467 16.3284165,9.02777778 C16.3284165,9.41130885 16.0175031,9.72222222 15.6339721,9.72222222 L13.781935,9.72203704 L13.7821202,11.5740741 C13.7821202,11.9576052 13.4712068,12.2685185 13.0876758,12.2685185 C12.7041447,12.2685185 12.3932313,11.9576052 12.3932313,11.5740741 L12.392935,9.72203704 L10.5413795,9.72222222 C10.1578484,9.72222222 9.84693501,9.41130885 9.84693501,9.02777778 C9.84693501,8.6442467 10.1578484,8.33333333 10.5413795,8.33333333 L12.392935,8.33303704 L12.3932313,6.48148148 C12.3932313,6.09795041 12.7041447,5.78703704 13.0876758,5.78703704 Z" id="Combined-Shape" fill="#F7F7F7"></path>
                            </g>
                        </g>
                    </g>
                </g>
            </g>
        </g>
    </g>
</svg>